<svg version="1.1" id="Layer_1" xmlns="http://www.w3.org/2000/svg" xmlns:xlink="http://www.w3.org/1999/xlink" x="0px"
	y="0px" width="100%" viewBox="0 0 360 360" enable-background="new 0 0 360 360" xml:space="preserve">
	<path fill="none" opacity="1.000000" stroke="none" d="
M194.000000,361.000000 
	C129.355606,361.000000 65.211227,361.000000 1.033418,361.000000 
	C1.033418,241.063950 1.033418,121.127892 1.033418,1.095913 
	C120.894333,1.095913 240.788757,1.095913 360.841614,1.095913 
	C360.841614,120.999832 360.841614,240.999893 360.841614,361.000000 
	C305.461334,361.000000 249.980667,361.000000 194.000000,361.000000 
M88.029747,206.705170 
	C88.689125,207.836044 89.348503,208.966934 90.195198,210.621674 
	C90.760567,211.082230 91.325943,211.542801 91.986000,212.709595 
	C96.645958,216.498688 101.305916,220.287781 105.992180,224.016129 
	C105.992180,224.016129 105.929527,224.037552 106.181801,224.693817 
	C107.830948,225.416534 109.480095,226.139252 111.510414,226.961182 
	C111.510414,226.961182 111.897858,227.032028 112.060989,227.540695 
	C112.368736,227.640503 112.676483,227.740326 113.777245,227.975510 
	C116.497803,228.955307 119.218361,229.935120 121.192009,231.029541 
	C114.668228,233.997070 107.420403,235.976044 101.759789,240.122055 
	C86.311485,251.436951 79.060440,266.973083 80.986900,286.409943 
	C82.109474,297.736053 86.616013,307.604340 94.372574,315.694427 
	C107.188477,329.061371 123.035576,333.538879 141.149612,330.004150 
	C158.535248,326.611572 170.448044,316.720520 177.403839,300.315277 
	C183.186630,286.676544 180.451965,272.338257 181.823013,258.351746 
	C182.425171,252.209137 182.022614,245.954391 181.858673,239.756332 
	C181.782227,236.865677 181.188080,233.988724 180.915512,230.158493 
	C180.930145,220.940033 180.855637,211.720123 181.004837,202.503845 
	C181.061783,198.986923 181.631439,195.478317 182.061813,192.768356 
	C182.538177,194.813126 182.687668,197.006729 183.540527,198.880096 
	C194.336807,222.594635 212.895294,234.445312 239.468307,230.652100 
	C267.491760,226.651871 286.172913,199.927841 280.646912,172.220413 
	C276.676697,152.313797 263.849243,138.916031 243.945923,132.983398 
	C243.115311,132.735825 242.514557,131.717026 242.147980,130.362610 
	C248.879074,126.983864 255.874542,124.028008 262.232758,120.052834 
	C265.547302,117.980583 267.734375,114.108315 270.438690,111.056152 
	C279.522583,100.803833 282.993500,88.816231 280.953644,75.370567 
	C277.121490,50.110573 257.473846,32.425499 233.188736,31.200182 
	C215.760345,30.320826 198.245178,31.160994 179.872025,31.082754 
	C171.438828,30.740404 163.005981,30.140722 154.572357,30.129568 
	C146.472687,30.118855 138.375000,30.852274 130.271500,31.018660 
	C116.874046,31.293741 105.133842,35.675156 95.568367,45.104858 
	C83.476631,57.024960 79.063927,71.866898 81.197334,88.369186 
	C83.031700,102.558380 89.933212,114.423973 102.093018,122.220367 
	C108.146873,126.101860 115.349312,128.191940 121.715813,131.805389 
	C116.810600,133.599091 111.905380,135.392807 106.472771,137.116348 
	C106.296654,137.408340 106.120537,137.700348 106.001320,138.002228 
	C106.001320,138.002228 105.985268,137.946762 105.242058,137.980942 
	C102.473244,139.977280 99.704422,141.973618 96.993584,143.993439 
	C96.993584,143.993439 96.970497,143.935287 96.334923,144.174194 
	C93.860062,147.436752 91.385208,150.699295 88.977165,153.975922 
	C88.977165,153.975922 88.977509,153.907639 88.463264,154.059082 
	C88.364883,154.366669 88.266495,154.674271 88.027611,155.437164 
	C88.027611,155.437164 87.943466,155.906174 87.309715,156.183075 
	C86.516449,157.779602 85.723183,159.376144 84.990166,160.993851 
	C84.990166,160.993851 84.963966,160.935593 84.283249,161.304276 
	C83.181618,167.446381 82.141464,173.600296 80.962494,179.727524 
	C79.545998,187.089218 80.915161,193.853546 85.067047,200.516602 
	C85.067047,200.516602 85.209038,200.913910 85.060677,201.616241 
	C86.035385,203.092224 87.010101,204.568192 88.000229,205.994858 
	C88.000229,205.994858 87.951477,206.011993 88.029747,206.705170 
z" />
	<path fill="#F24E1F" opacity="1.000000" stroke="none" d="
M122.032181,131.092392 
	C115.349312,128.191940 108.146873,126.101860 102.093018,122.220367 
	C89.933212,114.423973 83.031700,102.558380 81.197334,88.369186 
	C79.063927,71.866898 83.476631,57.024960 95.568367,45.104858 
	C105.133842,35.675156 116.874046,31.293741 130.271500,31.018660 
	C138.375000,30.852274 146.472687,30.118855 154.572357,30.129568 
	C163.005981,30.140722 171.438828,30.740404 180.395752,31.606670 
	C180.929657,65.015923 180.939819,97.901260 180.490906,130.869034 
	C160.698593,130.998444 141.365387,131.045425 122.032181,131.092392 
z" />
	<path fill="#FE7261" opacity="1.000000" stroke="none" d="
M180.949997,130.786591 
	C180.939819,97.901260 180.929657,65.015923 180.844116,31.682316 
	C198.245178,31.160994 215.760345,30.320826 233.188736,31.200182 
	C257.473846,32.425499 277.121490,50.110573 280.953644,75.370567 
	C282.993500,88.816231 279.522583,100.803833 270.438690,111.056152 
	C267.734375,114.108315 265.547302,117.980583 262.232758,120.052834 
	C255.874542,124.028008 248.879074,126.983864 241.520874,130.707260 
	C232.610123,131.436020 224.326477,131.820129 215.580078,132.107483 
	C204.034470,131.786728 192.951660,131.562744 181.619415,131.233521 
	C181.229980,131.014389 181.089981,130.900497 180.949997,130.786591 
z" />
	<path fill="#A159FD" opacity="1.000000" stroke="none" d="
M180.490906,130.869034 
	C181.089981,130.900497 181.229980,131.014389 181.390381,131.557892 
	C181.304062,143.385010 181.189041,154.782486 181.130524,166.180267 
	C181.128769,166.524536 181.717270,166.871841 182.033508,167.644653 
	C182.013428,176.036346 181.990417,184.001129 181.967407,191.965912 
	C181.631439,195.478317 181.061783,198.986923 181.004837,202.503845 
	C180.855637,211.720123 180.930145,220.940033 180.414932,230.610138 
	C160.589203,231.012817 141.264069,230.963867 121.938919,230.914917 
	C119.218361,229.935120 116.497803,228.955307 113.223610,227.741806 
	C112.454071,227.282166 112.196701,227.123474 111.897858,227.032028 
	C111.897858,227.032028 111.510414,226.961182 111.170639,226.599579 
	C109.197083,225.504486 107.563309,224.771011 105.929535,224.037537 
	C105.929527,224.037552 105.992180,224.016129 105.904167,223.716995 
	C101.174538,219.613022 96.532928,215.808197 91.891312,212.003357 
	C91.325943,211.542801 90.760567,211.082230 90.104370,209.987488 
	C89.326195,208.239548 88.638832,207.125763 87.951477,206.011993 
	C87.951477,206.011993 88.000229,205.994858 87.986458,205.663544 
	C87.051468,203.859451 86.130257,202.386673 85.209038,200.913910 
	C85.209038,200.913910 85.067047,200.516602 85.051147,199.874954 
	C82.174057,187.128235 80.635445,175.025513 84.980026,162.901566 
	C85.187523,162.322525 84.978844,161.594330 84.963974,160.935593 
	C84.963966,160.935593 84.990166,160.993851 85.319885,160.916473 
	C86.414230,159.194809 87.178848,157.550491 87.943466,155.906174 
	C87.943466,155.906174 88.027611,155.437164 88.264404,155.055405 
	C88.723358,154.457733 88.882133,154.202393 88.977509,153.907639 
	C88.977509,153.907639 88.977165,153.975922 89.289673,153.917419 
	C92.058289,150.551056 94.514389,147.243164 96.970497,143.935287 
	C96.970497,143.935287 96.993584,143.993439 97.348297,143.995331 
	C100.463760,141.980392 103.224510,139.963577 105.985268,137.946762 
	C105.985268,137.946762 106.001320,138.002228 106.177948,137.904724 
	C106.603928,137.635834 106.819130,137.428925 107.000168,137.186508 
	C111.905380,135.392807 116.810600,133.599091 121.873993,131.448883 
	C141.365387,131.045425 160.698593,130.998444 180.490906,130.869034 
z" />
	<path fill="#0BCE83" opacity="1.000000" stroke="none" d="
M121.565460,230.972229 
	C141.264069,230.963867 160.589203,231.012817 180.371475,231.083664 
	C181.188080,233.988724 181.782227,236.865677 181.858673,239.756332 
	C182.022614,245.954391 182.425171,252.209137 181.823013,258.351746 
	C180.451965,272.338257 183.186630,286.676544 177.403839,300.315277 
	C170.448044,316.720520 158.535248,326.611572 141.149612,330.004150 
	C123.035576,333.538879 107.188477,329.061371 94.372574,315.694427 
	C86.616013,307.604340 82.109474,297.736053 80.986900,286.409943 
	C79.060440,266.973083 86.311485,251.436951 101.759789,240.122055 
	C107.420403,235.976044 114.668228,233.997070 121.565460,230.972229 
z" />
	<path fill="#1BBBFC" opacity="1.000000" stroke="none" d="
M182.014618,192.367126 
	C181.990417,184.001129 182.013428,176.036346 182.364105,167.453705 
	C185.892822,156.646393 191.101776,147.736908 200.045044,141.605438 
	C205.134064,138.116425 210.694626,135.315201 216.042847,132.204254 
	C224.326477,131.820129 232.610123,131.436020 241.350235,131.054718 
	C242.514557,131.717026 243.115311,132.735825 243.945923,132.983398 
	C263.849243,138.916031 276.676697,152.313797 280.646912,172.220413 
	C286.172913,199.927841 267.491760,226.651871 239.468307,230.652100 
	C212.895294,234.445312 194.336807,222.594635 183.540527,198.880096 
	C182.687668,197.006729 182.538177,194.813126 182.014618,192.367126 
z" />
	<path fill="#9E67E1" opacity="1.000000" stroke="none" d="
M84.623611,161.119934 
	C84.978844,161.594330 85.187523,162.322525 84.980026,162.901566 
	C80.635445,175.025513 82.174057,187.128235 85.022018,199.666016 
	C80.915161,193.853546 79.545998,187.089218 80.962494,179.727524 
	C82.141464,173.600296 83.181618,167.446381 84.623611,161.119934 
z" />
	<path fill="#9765DE" opacity="1.000000" stroke="none" d="
M91.938660,212.356476 
	C96.532928,215.808197 101.174538,219.613022 105.891014,223.747375 
	C101.305916,220.287781 96.645958,216.498688 91.938660,212.356476 
z" />
	<path fill="#9C6BDE" opacity="1.000000" stroke="none" d="
M96.652710,144.054749 
	C94.514389,147.243164 92.058289,150.551056 89.256271,153.910385 
	C91.385208,150.699295 93.860062,147.436752 96.652710,144.054749 
z" />
	<path fill="#9C6BDE" opacity="1.000000" stroke="none" d="
M105.613663,137.963852 
	C103.224510,139.963577 100.463760,141.980392 97.319305,143.983582 
	C99.704422,141.973618 102.473244,139.977280 105.613663,137.963852 
z" />
	<path fill="#9E67E1" opacity="1.000000" stroke="none" d="
M87.626595,156.044617 
	C87.178848,157.550491 86.414230,159.194809 85.289764,160.905884 
	C85.723183,159.376144 86.516449,157.779602 87.626595,156.044617 
z" />
	<path fill="#9E67E1" opacity="1.000000" stroke="none" d="
M85.134857,201.265076 
	C86.130257,202.386673 87.051468,203.859451 87.978745,205.688202 
	C87.010101,204.568192 86.035385,203.092224 85.134857,201.265076 
z" />
	<path fill="#9765DE" opacity="1.000000" stroke="none" d="
M106.055664,224.365677 
	C107.563309,224.771011 109.197083,225.504486 110.980049,226.549957 
	C109.480095,226.139252 107.830948,225.416534 106.055664,224.365677 
z" />
	<path fill="#9E67E1" opacity="1.000000" stroke="none" d="
M87.990616,206.358582 
	C88.638832,207.125763 89.326195,208.239548 90.010712,209.725555 
	C89.348503,208.966934 88.689125,207.836044 87.990616,206.358582 
z" />
	<path fill="#9C6BDE" opacity="1.000000" stroke="none" d="
M106.736465,137.151428 
	C106.819130,137.428925 106.603928,137.635834 106.149490,137.899780 
	C106.120537,137.700348 106.296654,137.408340 106.736465,137.151428 
z" />
	<path fill="#9C6BDE" opacity="1.000000" stroke="none" d="
M88.720383,153.983368 
	C88.882133,154.202393 88.723358,154.457733 88.334656,154.827759 
	C88.266495,154.674271 88.364883,154.366669 88.720383,153.983368 
z" />
	<path fill="#9765DE" opacity="1.000000" stroke="none" d="
M111.979424,227.286362 
	C112.196701,227.123474 112.454071,227.282166 112.827103,227.674133 
	C112.676483,227.740326 112.368736,227.640503 111.979424,227.286362 
z" />
	<path fill="#000000" opacity="1.000000" stroke="none" d="
M215.580078,132.107483 
	C210.694626,135.315201 205.134064,138.116425 200.045044,141.605438 
	C191.101776,147.736908 185.892822,156.646393 182.361176,167.026794 
	C181.717270,166.871841 181.128769,166.524536 181.130524,166.180267 
	C181.189041,154.782486 181.304062,143.385010 181.639801,131.663116 
	C192.951660,131.562744 204.034470,131.786728 215.580078,132.107483 
z" />
</svg>