<svg version="1.1" id="Layer_1" xmlns="http://www.w3.org/2000/svg" xmlns:xlink="http://www.w3.org/1999/xlink" x="0px"
	y="0px" width="100%" viewBox="0 0 400 400" enable-background="new 0 0 400 400" xml:space="preserve">
	<path fill="none" opacity="1.000000" stroke="none" d="
M226.000000,401.000000 
	C150.690048,401.000000 75.880096,401.000000 1.035072,401.000000 
	C1.035072,267.731720 1.035072,134.463425 1.035072,1.097562 
	C134.226578,1.097562 267.453247,1.097562 400.839966,1.097562 
	C400.839966,134.333176 400.839966,267.666565 400.839966,401.000000 
	C342.796844,401.000000 284.648407,401.000000 226.000000,401.000000 
M213.927094,23.467091 
	C213.615738,23.281940 213.304382,23.096792 213.002304,22.993294 
	C213.002304,22.993294 213.082932,22.977425 212.993790,22.255808 
	C211.493225,20.167713 210.186905,17.885027 208.391266,16.092508 
	C207.723846,15.426216 205.210205,15.349501 204.728714,15.953209 
	C200.301758,21.503860 196.136292,27.263058 191.977509,32.992653 
	C191.977509,32.992653 191.951675,32.908009 191.328812,33.139790 
	C190.520828,34.411964 189.712845,35.684139 188.987915,36.988083 
	C188.987915,36.988083 188.953888,36.905949 188.314148,37.167992 
	C184.519608,42.754444 180.725067,48.340897 176.443512,54.079456 
	C176.267578,54.360619 176.091644,54.641781 175.283691,55.197277 
	C173.455811,58.116112 171.627930,61.034950 169.176514,64.228073 
	C162.584183,74.194275 155.576614,83.914963 149.502914,94.187798 
	C141.622314,107.516808 134.527069,121.308701 126.990265,134.843719 
	C125.598404,137.343307 123.715302,139.569351 121.805687,141.308411 
	C119.566208,139.177780 117.326736,137.047134 115.004982,134.211151 
	C110.233040,127.485191 105.474197,120.749901 100.683884,114.037048 
	C98.118660,110.442307 94.714622,109.891029 92.601257,112.974213 
	C89.224480,117.900604 85.418861,122.723549 83.100464,128.148346 
	C76.762123,142.979294 71.105515,158.101624 65.063095,173.506714 
	C65.063095,173.506714 65.157799,173.910446 64.992821,174.598145 
	C64.965591,175.068451 64.938354,175.538757 64.997620,176.003403 
	C64.997620,176.003403 64.992058,175.916916 64.479553,176.080063 
	C64.380936,176.391129 64.282310,176.702194 64.029152,177.745041 
	C63.750244,179.154114 63.471340,180.563187 62.951622,182.527130 
	C62.697247,183.027267 62.442871,183.527390 62.048977,184.676392 
	C62.088524,185.114426 62.128067,185.552444 61.932510,186.539978 
	C61.680626,187.033096 61.428741,187.526230 61.042217,188.824432 
	C59.381550,196.680847 57.512787,204.501572 56.156200,212.410141 
	C55.561268,215.878479 56.011330,219.526062 56.005810,223.475540 
	C56.005810,223.475540 55.980824,223.858475 55.284546,224.281677 
	C54.851269,226.160416 54.061741,228.035675 54.043415,229.918442 
	C53.936771,240.875351 53.851208,251.837830 54.112541,262.789978 
	C54.202370,266.554626 55.311520,270.294952 55.992844,273.996948 
	C55.992844,273.996948 55.937584,274.026001 56.001480,274.872467 
	C57.658806,280.602386 59.316128,286.332306 60.989349,291.995880 
	C60.989349,291.995880 60.921898,291.985657 61.009457,292.623230 
	C61.328018,293.123352 61.646584,293.623444 62.276928,294.787903 
	C64.905525,301.008118 66.710312,307.766785 70.345581,313.329071 
	C76.631355,322.946808 84.052834,331.822296 91.137077,341.501221 
	C91.421623,341.668823 91.706169,341.836426 92.231277,342.610870 
	C93.814789,344.076263 95.398300,345.541656 97.235367,347.628174 
	C102.157814,351.746399 107.080254,355.864624 112.239227,360.622314 
	C113.625565,361.762268 114.971230,362.956329 116.404549,364.033752 
	C130.408707,374.560883 146.225510,381.211670 163.555084,385.889221 
	C163.736649,385.856812 163.918228,385.824402 164.710861,385.958862 
	C165.477768,386.222717 166.244659,386.486572 167.667038,386.895752 
	C168.110489,386.853851 168.553940,386.811951 169.628326,386.946014 
	C170.421768,387.217896 171.215225,387.489777 172.709686,387.901093 
	C173.181900,387.856140 173.654129,387.811188 174.723206,387.931702 
	C175.480637,388.203125 176.238052,388.474518 177.690170,388.901001 
	C178.161743,388.868896 178.633331,388.836823 179.778992,388.960815 
	C180.462082,388.899353 181.145187,388.837891 182.689850,388.934662 
	C184.439026,389.271790 186.195038,389.930695 187.936295,389.893738 
	C199.168945,389.655609 210.426651,389.633636 221.617355,388.774872 
	C227.501175,388.323395 233.265991,386.320984 239.731827,385.003937 
	C240.156021,384.938995 240.580215,384.874084 241.766968,384.881561 
	C252.834915,380.240906 264.351776,376.423004 274.831726,370.704651 
	C283.541199,365.952423 291.031219,358.965271 299.669067,352.716736 
	C303.449249,348.816742 307.229462,344.916779 311.632172,340.756866 
	C316.744446,333.892273 321.856720,327.027679 327.545807,319.914154 
	C327.629730,319.534088 327.713623,319.154022 327.924866,318.448608 
	C327.924866,318.448608 327.953674,318.100464 328.483429,317.886810 
	C328.576538,317.547668 328.669647,317.208557 328.904419,316.495636 
	C328.904419,316.495636 328.967102,316.100861 329.491547,315.910126 
	C329.678131,315.601501 329.864685,315.292847 329.988098,314.981323 
	C329.988098,314.981323 329.995728,315.044067 330.578278,314.796936 
	C330.738892,314.195618 330.899506,313.594299 330.998047,312.987457 
	C330.998047,312.987457 331.007080,313.049103 331.590271,312.794952 
	C331.744080,312.188599 331.897919,311.582275 331.985748,310.978485 
	C331.985748,310.978485 331.994354,311.044006 332.582336,310.780731 
	C332.642670,310.165100 332.703003,309.549438 332.903320,308.519379 
	C332.903320,308.519379 332.970947,308.087219 333.633942,307.767700 
	C336.671997,298.365997 340.327759,289.110199 342.590942,279.525543 
	C345.389984,267.671570 345.629028,255.526184 343.184296,243.463272 
	C341.729065,236.282791 340.250488,229.107025 338.887604,221.182281 
	C334.270630,210.083023 329.653687,198.983765 324.748535,187.243515 
	C316.902496,172.841873 309.056458,158.440231 300.914886,143.429810 
	C300.260284,142.574158 299.605652,141.718491 298.977234,140.580215 
	C298.977234,140.580215 298.840485,140.331512 298.977386,139.640167 
	C298.632172,139.357574 298.286926,139.074997 297.823334,138.380753 
	C297.642639,138.123169 297.395142,138.001587 296.961426,137.373459 
	C296.629272,136.872696 296.297119,136.371933 295.833130,135.374847 
	C295.496796,134.987854 295.160461,134.600845 294.935669,133.608505 
	C294.625183,133.379807 294.314667,133.151093 294.008026,132.996613 
	C294.008026,132.996613 294.081635,132.986359 293.994080,132.327606 
	C293.329834,131.532501 292.665619,130.737396 291.996490,130.002060 
	C291.996490,130.002060 292.056366,129.998764 291.958893,129.280853 
	C288.334991,123.826019 284.711060,118.371185 280.906128,112.439896 
	C280.619415,112.276390 280.332703,112.112885 279.970764,111.304352 
	C279.333008,110.518730 278.695282,109.733101 277.966370,108.235275 
	C273.303436,101.452446 268.825592,94.532738 263.934570,87.918587 
	C256.429688,77.769783 248.640533,67.831184 240.868820,57.402142 
	C240.706360,57.145580 240.473251,57.017223 240.027618,56.310059 
	C238.033875,53.845440 236.040115,51.380825 234.012604,48.988075 
	C234.012604,48.988075 234.091034,49.000553 233.931458,48.463211 
	C233.619278,48.279968 233.307098,48.096725 233.005890,47.993202 
	C233.005890,47.993202 233.083923,47.973606 233.008667,47.286240 
	C231.685867,45.830917 230.363068,44.375591 229.012360,42.995899 
	C229.012360,42.995899 229.088547,42.969498 229.011154,42.296558 
	C228.023102,41.171329 227.035065,40.046101 226.008438,38.987789 
	C226.008438,38.987789 226.085022,38.997940 225.938446,38.455376 
	C225.624908,38.273838 225.311371,38.092304 225.011963,37.988689 
	C225.011963,37.988689 225.085648,37.959690 224.995682,37.248756 
	C222.016098,33.474880 219.036514,29.701006 216.000885,25.976921 
	C216.000885,25.976921 216.074860,25.987915 215.934006,25.450697 
	C215.623749,25.272232 215.313492,25.093767 215.000671,24.997429 
	C215.000671,24.997429 215.082840,24.997753 214.941956,24.451756 
	C214.626999,24.270880 214.312042,24.090006 213.997208,24.000898 
	C213.997208,24.000898 214.088943,24.003384 213.927094,23.467091 
z" />
	<path fill="#FD5722" opacity="1.000000" stroke="none" d="
M55.980824,223.858475 
	C55.980824,223.858475 56.005810,223.475540 56.204441,222.960831 
	C57.006371,219.292892 57.609665,216.139648 58.464638,212.881409 
	C58.822273,211.858002 58.928230,210.939621 59.097076,209.739532 
	C59.457050,208.973236 59.754135,208.488632 60.398487,207.915771 
	C62.940350,207.484558 65.123993,206.990524 67.331848,206.830490 
	C71.751167,206.510132 76.181664,206.286514 80.611328,206.180115 
	C86.977333,206.027222 93.351349,205.832458 99.713356,205.993866 
	C105.985672,206.153015 113.000534,204.182175 117.285843,211.357437 
	C117.243118,211.572174 117.076233,211.977020 116.878815,212.193024 
	C116.481819,212.948380 116.282227,213.487732 116.081177,214.039322 
	C116.079704,214.051559 116.083130,214.076004 115.775635,214.241760 
	C114.371490,217.042053 113.274841,219.676575 112.156677,222.680023 
	C109.241653,233.057892 106.348137,243.066849 103.089218,253.060913 
	C102.482407,253.034485 102.240997,253.022934 101.852600,252.659927 
	C101.768593,250.207123 101.737595,248.097794 101.914703,246.006088 
	C102.250992,242.034241 98.980286,235.227707 96.366936,235.473846 
	C91.029938,235.976547 85.775314,237.313980 80.442390,237.911911 
	C75.921913,238.418793 69.765930,240.320648 67.100502,238.172348 
	C60.929394,233.198517 58.617168,235.742310 56.047432,240.543304 
	C56.021748,234.672760 56.001286,229.265625 55.980824,223.858475 
z" />
	<path fill="#FA4010" opacity="1.000000" stroke="none" d="
M326.968994,320.163086 
	C321.856720,327.027679 316.744446,333.892273 311.270264,340.834106 
	C310.908356,340.911377 310.806305,340.806702 310.882294,340.459290 
	C313.950745,334.807770 317.049133,329.558533 319.849884,324.155029 
	C320.439240,323.017944 319.935638,321.314362 319.935638,319.561462 
	C316.583374,322.787048 314.029663,325.244232 311.475983,327.701416 
	C311.024750,327.309235 310.573517,326.917023 310.122284,326.524841 
	C312.188873,323.181549 314.255493,319.838226 316.663727,315.942261 
	C313.005676,316.158508 309.287537,316.326233 305.578247,316.609436 
	C299.577942,317.067535 293.669281,317.368805 288.543640,313.226318 
	C286.254425,311.376251 284.457062,311.994110 282.881287,314.607330 
	C280.632263,318.337097 277.919312,321.727753 272.986145,321.596283 
	C272.980865,320.458160 272.971558,319.698730 272.983307,318.962158 
	C273.004364,318.984985 272.945526,318.965424 273.310638,318.949219 
	C275.781342,316.275360 277.886932,313.617706 280.082214,310.754150 
	C280.328033,310.281738 280.544128,310.079163 281.174377,309.885803 
	C282.755737,308.779816 284.435364,307.966553 285.134613,306.637512 
	C288.892456,299.494934 292.406433,292.223999 296.368774,284.974548 
	C298.349274,284.926971 300.126801,284.447906 301.554504,284.954620 
	C308.519806,287.426483 315.322083,286.814178 321.946136,284.055664 
	C327.701965,281.658691 334.735443,282.787476 338.037231,287.433350 
	C337.754974,289.076721 337.371033,290.326904 337.213348,291.604980 
	C336.512299,297.286499 331.347900,301.815582 332.970947,308.087219 
	C332.970947,308.087219 332.903320,308.519379 332.668732,308.961731 
	C332.287537,309.950745 332.140930,310.497375 331.994354,311.044006 
	C331.994354,311.044006 331.985748,310.978485 331.799805,311.181030 
	C331.411591,311.938721 331.209351,312.493927 331.007080,313.049103 
	C331.007080,313.049103 330.998047,312.987457 330.811157,313.193176 
	C330.414734,313.947266 330.205231,314.495667 329.995728,315.044067 
	C329.995728,315.044067 329.988098,314.981323 329.795288,315.122711 
	C329.390686,315.543030 329.178894,315.821930 328.967102,316.100861 
	C328.967102,316.100861 328.904419,316.495636 328.657867,316.860291 
	C328.193054,317.482422 328.040497,317.774261 327.953674,318.100464 
	C327.953674,318.100464 327.924866,318.448608 327.677582,318.815094 
	C327.276520,319.508728 327.122742,319.835907 326.968994,320.163086 
z" />
	<path fill="#FB864B" opacity="1.000000" stroke="none" d="
M240.169495,57.017067 
	C240.473251,57.017223 240.706360,57.145580 240.901642,57.974106 
	C240.924362,59.039661 240.914246,59.533260 240.555237,60.043846 
	C237.818298,60.613747 236.495407,59.801994 234.436874,58.036400 
	C230.744141,54.869167 225.678253,53.350037 221.339188,50.874054 
	C218.011063,48.974934 215.229019,45.485287 210.762436,48.569290 
	C210.333069,48.865761 208.863968,47.794693 207.959885,47.227238 
	C207.016190,46.634922 206.255524,45.472076 205.270264,45.272545 
	C200.714905,44.349987 196.109222,43.675957 191.080917,42.839581 
	C192.160690,44.301781 193.381287,45.954689 195.008194,48.157833 
	C190.836502,49.455463 187.865402,48.138237 185.141022,45.729691 
	C186.482544,42.569637 187.718216,39.737793 188.953888,36.905949 
	C188.953888,36.905949 188.987915,36.988083 189.318573,36.949318 
	C190.416702,35.576374 191.184189,34.242191 191.951675,32.908012 
	C191.951675,32.908009 191.977509,32.992653 192.296539,32.925659 
	C194.169418,31.522326 195.905060,30.344952 197.240509,28.817644 
	C200.339218,25.273748 203.244629,21.560841 206.147232,18.015566 
	C208.916733,19.996897 210.999832,21.487164 213.082932,22.977427 
	C213.082932,22.977425 213.002304,22.993294 213.146729,23.166601 
	C213.557068,23.561066 213.823013,23.782223 214.088943,24.003384 
	C214.088943,24.003384 213.997208,24.000898 214.141022,24.171429 
	C214.550827,24.560556 214.816833,24.779156 215.082840,24.997755 
	C215.082840,24.997753 215.000671,24.997429 215.139435,25.173637 
	C215.543762,25.562534 215.809311,25.775223 216.074860,25.987911 
	C216.074860,25.987915 216.000885,25.976921 216.020416,26.320744 
	C218.272873,31.056110 219.406265,36.328232 225.085648,37.959690 
	C225.085648,37.959690 225.011963,37.988689 225.148544,38.166328 
	C225.551758,38.561958 225.818390,38.779945 226.085022,38.997936 
	C226.085022,38.997940 226.008438,38.987789 226.027954,39.315655 
	C227.061172,40.752178 228.074860,41.860840 229.088547,42.969498 
	C229.088547,42.969498 229.012360,42.995899 229.031494,43.322754 
	C230.395065,45.090939 231.739502,46.532272 233.083923,47.973606 
	C233.083923,47.973606 233.005890,47.993202 233.146988,48.168976 
	C233.555740,48.563351 233.823395,48.781948 234.091034,49.000549 
	C234.091034,49.000553 234.012604,48.988075 234.021667,49.334785 
	C234.217911,53.682442 236.540924,55.896038 240.169495,57.017067 
z" />
	<path fill="#F24619" opacity="1.000000" stroke="none" d="
M90.997879,341.009155 
	C84.052834,331.822296 76.631355,322.946808 70.345581,313.329071 
	C66.710312,307.766785 64.905525,301.008118 62.073853,294.153137 
	C61.554485,293.007477 61.238190,292.496552 60.921898,291.985657 
	C60.921898,291.985657 60.989349,291.995880 60.991081,291.613708 
	C60.580940,288.833038 60.411938,286.359528 59.699924,284.053650 
	C58.648457,280.648529 57.210785,277.362671 55.937584,274.026001 
	C55.937584,274.026001 55.992844,273.996948 56.014431,273.582642 
	C56.077923,271.113953 56.119827,269.059540 56.456589,267.160248 
	C57.788837,269.295380 58.905842,273.002960 59.849972,272.959442 
	C64.180611,272.759888 65.442154,275.633667 67.283249,278.406769 
	C67.876953,279.301025 69.568108,279.853729 70.777634,279.890472 
	C80.029968,280.171448 89.375298,280.860474 97.632545,275.626373 
	C99.015472,277.116180 100.219688,278.413452 100.865631,279.109314 
	C101.936150,275.862701 102.901474,272.935120 103.931923,270.419189 
	C106.336884,279.215118 108.676727,287.599396 110.804947,296.174408 
	C110.066528,296.908569 109.539742,297.452026 108.849945,297.667419 
	C106.721481,293.810333 107.453018,286.740692 99.845436,290.601196 
	C99.731956,290.658783 99.520103,290.559174 99.367874,290.498505 
	C90.249962,286.864960 80.819954,288.881653 71.515884,289.085205 
	C66.937286,289.185394 65.324966,293.209198 67.582199,297.217621 
	C68.906822,299.569916 69.663536,302.268494 70.478622,304.872986 
	C71.145157,307.002777 71.033699,309.511993 72.121117,311.346924 
	C74.700760,315.699860 77.652992,319.856445 80.754990,323.859650 
	C81.632057,324.991547 83.546005,325.319977 85.124001,326.328857 
	C85.837448,328.096191 86.411301,329.551544 87.057648,331.356750 
	C88.457703,334.138763 89.785271,336.570923 91.125992,339.312164 
	C91.176659,340.031342 91.214180,340.441498 91.187698,340.890137 
	C91.123711,340.928650 90.997879,341.009155 90.997879,341.009155 
z" />
	<path fill="#ED4614" opacity="1.000000" stroke="none" d="
M299.061432,352.968109 
	C291.031219,358.965271 283.541199,365.952423 274.831726,370.704651 
	C264.351776,376.423004 252.834915,380.240906 241.317383,384.647461 
	C240.273392,384.615234 239.678970,384.817047 239.084549,385.018890 
	C233.265991,386.320984 227.501175,388.323395 221.617355,388.774872 
	C210.426651,389.633636 199.168945,389.655609 187.936295,389.893738 
	C186.195038,389.930695 184.439026,389.271790 182.061172,388.701416 
	C180.656631,388.580322 179.880768,388.692535 179.104904,388.804749 
	C178.633331,388.836823 178.161743,388.868896 177.241333,388.572510 
	C175.903763,388.084747 175.015060,387.925507 174.126343,387.766235 
	C173.654129,387.811188 173.181900,387.856140 172.350861,387.516388 
	C171.976410,386.711853 171.960754,386.291992 172.280396,385.698608 
	C178.413498,386.021210 184.211304,386.517365 190.295425,387.208160 
	C191.716293,387.558289 192.850845,387.713745 194.424789,387.887909 
	C196.915970,387.897614 198.967743,387.888641 201.415268,387.907593 
	C202.868500,387.916718 203.925980,387.897919 205.322174,387.882812 
	C206.112457,387.883392 206.564056,387.880341 207.424377,387.904724 
	C209.883530,387.620056 211.933929,387.307922 214.399887,386.962524 
	C220.216034,385.954010 225.616623,384.978729 231.438202,384.004028 
	C234.901047,383.305603 237.942886,382.606598 241.323044,381.894653 
	C242.780121,381.262268 243.898911,380.642792 245.414917,380.007416 
	C251.085114,378.295258 256.393860,376.698029 261.600098,374.817108 
	C262.609436,374.452484 263.218964,372.981140 264.344360,372.018677 
	C265.117706,372.008240 265.559570,371.999512 266.308136,371.931091 
	C267.411041,371.251160 268.207275,370.630859 269.002258,370.005981 
	C269.001007,370.001343 269.010651,370.008270 269.379700,369.984070 
	C274.167450,367.307404 278.586151,364.654968 283.350281,361.936646 
	C285.461121,360.900238 287.226593,359.929718 289.234741,358.811035 
	C289.992462,358.115295 290.507477,357.567688 291.373108,356.982819 
	C294.078827,355.511749 296.433868,354.078003 298.861511,352.721466 
	C298.934052,352.798706 299.061432,352.968109 299.061432,352.968109 
z" />
	<path fill="#E58258" opacity="1.000000" stroke="none" d="
M65.178925,173.108551 
	C71.105515,158.101624 76.762123,142.979294 83.100464,128.148346 
	C85.418861,122.723549 89.224480,117.900604 92.601257,112.974213 
	C94.714622,109.891029 98.118660,110.442307 100.683884,114.037048 
	C105.474197,120.749901 110.233040,127.485191 114.962830,134.645752 
	C114.920685,135.080338 114.754196,135.244278 114.413696,135.152496 
	C112.194382,133.829834 109.815643,132.981201 108.528633,131.297882 
	C104.333366,125.810730 100.536713,120.018822 96.586685,114.344170 
	C95.927925,114.359848 95.269157,114.375519 94.610390,114.391197 
	C91.405159,120.586624 88.199928,126.782059 84.967224,133.283966 
	C84.926628,134.000366 84.913498,134.410294 84.575836,134.939178 
	C82.487511,138.034409 80.723709,141.010696 78.807022,144.316681 
	C77.937408,146.477814 77.214058,148.306671 76.505173,150.141098 
	C73.956932,156.735275 71.413589,163.331345 68.634689,170.116577 
	C68.027977,171.207581 67.654976,172.108704 66.931503,173.027100 
	C66.113670,173.065765 65.646301,173.087158 65.178925,173.108551 
z" />
	<path fill="#E58258" opacity="1.000000" stroke="none" d="
M122.058929,141.921661 
	C123.715302,139.569351 125.598404,137.343307 126.990265,134.843719 
	C134.527069,121.308701 141.622314,107.516808 149.502914,94.187798 
	C155.576614,83.914963 162.584183,74.194275 169.807098,64.127487 
	C170.650330,64.048264 170.862976,64.069626 170.985962,64.426254 
	C169.939987,66.846916 168.983673,68.932312 167.735657,71.198868 
	C164.953110,76.245239 162.462280,81.110443 159.982590,85.980286 
	C159.993713,85.984917 159.977768,85.974411 159.644943,86.055344 
	C156.895065,89.089302 154.478012,92.042320 151.964996,95.335602 
	C151.233170,97.438988 150.597321,99.202103 149.974915,100.974091 
	C149.988342,100.982964 149.972214,100.974266 149.687271,101.156540 
	C147.897980,103.868568 146.393616,106.398331 144.661896,109.174263 
	C139.268890,118.936867 134.103271,128.453293 128.744934,138.224426 
	C128.314957,139.289154 128.077682,140.099167 127.643646,141.176208 
	C126.041161,144.932510 124.301857,146.026840 121.924423,142.144379 
	C121.969170,142.070084 122.058929,141.921661 122.058929,141.921661 
z" />
	<path fill="#E3562F" opacity="1.000000" stroke="none" d="
M333.302429,307.927460 
	C331.347900,301.815582 336.512299,297.286499 337.213348,291.604980 
	C337.371033,290.326904 337.754974,289.076721 338.363464,287.259521 
	C339.139221,285.687561 339.898956,284.695251 339.984283,283.647980 
	C340.707458,274.772705 341.307709,265.887390 341.962494,256.542664 
	C340.984924,248.386627 339.989685,240.693024 338.903198,232.712509 
	C338.217621,231.934052 337.623291,231.442490 337.031067,230.711731 
	C337.033173,230.472549 337.025879,229.994202 337.028992,229.547195 
	C337.025482,226.689026 337.018829,224.277847 337.307495,221.868225 
	C337.996033,221.889542 338.389221,221.909332 338.782440,221.929138 
	C340.250488,229.107025 341.729065,236.282791 343.184296,243.463272 
	C345.629028,255.526184 345.389984,267.671570 342.590942,279.525543 
	C340.327759,289.110199 336.671997,298.365997 333.302429,307.927460 
z" />
	<path fill="#E86F41" opacity="1.000000" stroke="none" d="
M301.210419,144.038605 
	C309.056458,158.440231 316.902496,172.841873 324.860596,187.938278 
	C324.933746,189.132355 324.894867,189.631653 324.544617,190.004028 
	C321.840698,187.578339 319.448120,185.279572 317.016846,182.650864 
	C316.329071,181.527191 315.679962,180.733459 315.035767,179.527985 
	C315.030029,177.743546 315.019348,176.370850 314.990662,174.647064 
	C314.316101,172.857422 313.659546,171.418869 312.789062,169.794052 
	C312.053040,169.399185 311.530945,169.190598 310.759796,168.800522 
	C310.322205,167.078217 310.133636,165.537369 309.877594,163.655701 
	C308.810791,161.614334 307.755798,159.943726 306.823151,158.207413 
	C304.471161,153.828827 302.174255,149.420639 299.867889,144.793747 
	C299.880493,144.563187 299.905090,144.102020 300.231445,144.086792 
	C300.775360,144.060577 300.992889,144.049591 301.210419,144.038605 
z" />
	<path fill="#F24619" opacity="1.000000" stroke="none" d="
M163.014389,385.773926 
	C146.225510,381.211670 130.408707,374.560883 116.404549,364.033752 
	C114.971230,362.956329 113.625565,361.762268 112.192520,360.224915 
	C112.145821,359.827484 112.287300,359.670563 112.636887,359.754333 
	C115.984932,361.232513 118.983398,362.626953 122.260933,364.224487 
	C127.021255,366.954041 131.502502,369.480499 135.990540,372.005829 
	C135.997330,372.004669 135.999908,372.014862 136.201294,372.294312 
	C140.934631,374.383362 145.466553,376.192932 150.256378,378.234497 
	C152.007690,378.982178 153.501068,379.497864 155.206131,380.201538 
	C155.943924,380.579437 156.470032,380.769379 157.329071,380.976685 
	C158.106216,381.009125 158.550446,381.024170 159.216614,381.253906 
	C160.625000,382.297211 161.811432,383.125824 162.998627,384.257690 
	C163.004395,384.965271 163.009384,385.369598 163.014389,385.773926 
z" />
	<path fill="#E59065" opacity="1.000000" stroke="none" d="
M240.904114,60.026859 
	C240.914246,59.533260 240.924362,59.039661 240.953247,58.174728 
	C248.640533,67.831184 256.429688,77.769783 263.934570,87.918587 
	C268.825592,94.532738 273.303436,101.452446 277.944580,108.650558 
	C277.922821,109.065849 277.787903,109.184044 277.486115,109.053871 
	C276.369843,108.121826 275.486633,107.377953 274.752716,106.508087 
	C271.518250,102.674370 268.326782,98.804314 265.045959,94.642166 
	C264.326965,93.549576 263.681824,92.762253 262.966492,91.630524 
	C261.273132,89.506790 259.649994,87.727463 257.911316,85.700424 
	C257.548828,84.965759 257.301880,84.478813 257.034302,83.624870 
	C256.714752,82.504623 256.554291,81.651970 256.095734,81.013374 
	C251.058609,73.998650 245.975067,67.017281 240.904114,60.026859 
z" />
	<path fill="#E3562F" opacity="1.000000" stroke="none" d="
M56.161732,267.005127 
	C56.119827,269.059540 56.077923,271.113953 55.995514,273.607361 
	C55.311520,270.294952 54.202370,266.554626 54.112541,262.789978 
	C53.851208,251.837830 53.936771,240.875351 54.043415,229.918442 
	C54.061741,228.035675 54.851269,226.160416 55.632683,224.070068 
	C56.001286,229.265625 56.021748,234.672760 56.030853,240.942993 
	C56.015667,242.872437 56.011829,243.938797 55.809891,245.292786 
	C55.459705,246.724136 55.307625,247.867828 55.163055,249.429596 
	C55.500954,255.566818 55.831341,261.285980 56.161732,267.005127 
z" />
	<path fill="#E86F41" opacity="1.000000" stroke="none" d="
M60.051224,208.004028 
	C59.754135,208.488632 59.457050,208.973236 58.900467,209.990372 
	C58.498302,211.344070 58.355637,212.165253 58.212967,212.986420 
	C57.609665,216.139648 57.006371,219.292892 56.194981,222.769196 
	C56.011330,219.526062 55.561268,215.878479 56.156200,212.410141 
	C57.512787,204.501572 59.381550,196.680847 61.442181,188.416779 
	C62.285770,187.989868 62.729401,187.970596 63.389160,187.961151 
	C63.605293,187.970993 64.040588,187.987976 63.999977,188.375641 
	C62.656654,195.176895 61.353943,201.590454 60.051224,208.004028 
z" />
	<path fill="#E58258" opacity="1.000000" stroke="none" d="
M324.855988,190.130966 
	C324.894867,189.631653 324.933746,189.132355 325.004700,188.258774 
	C329.653687,198.983765 334.270630,210.083023 338.835022,221.555710 
	C338.389221,221.909332 337.996033,221.889542 337.290833,221.679779 
	C336.978851,221.489822 336.923492,221.112457 336.859802,220.805603 
	C336.216949,219.950485 335.637848,219.402206 335.001923,218.495392 
	C333.686646,214.737122 332.428162,211.337372 331.133606,207.561539 
	C329.016998,201.500626 326.936493,195.815796 324.855988,190.130966 
z" />
	<path fill="#E59065" opacity="1.000000" stroke="none" d="
M213.038361,22.616619 
	C210.999832,21.487164 208.916733,19.996897 206.147232,18.015566 
	C203.244629,21.560841 200.339218,25.273748 197.240509,28.817644 
	C195.905060,30.344952 194.169418,31.522326 192.255112,32.910088 
	C196.136292,27.263058 200.301758,21.503860 204.728714,15.953209 
	C205.210205,15.349501 207.723846,15.426216 208.391266,16.092508 
	C210.186905,17.885027 211.493225,20.167713 213.038361,22.616619 
z" />
	<path fill="#E59065" opacity="1.000000" stroke="none" d="
M188.634018,37.036972 
	C187.718216,39.737793 186.482544,42.569637 184.892090,45.962841 
	C181.901154,48.920200 182.276794,54.226276 177.079880,54.125565 
	C177.032745,54.057549 176.930527,53.927353 176.930511,53.927349 
	C180.725067,48.340897 184.519608,42.754444 188.634018,37.036972 
z" />
	<path fill="#F24619" opacity="1.000000" stroke="none" d="
M112.074257,359.905151 
	C107.080254,355.864624 102.157814,351.746399 97.187653,347.238922 
	C97.139946,346.849670 97.296745,346.690918 97.603485,346.744568 
	C99.879013,347.892029 101.953781,348.835480 103.784103,350.125702 
	C105.331436,351.216522 106.595558,352.709106 108.131866,354.206055 
	C108.489853,354.621185 108.730392,354.818268 109.233444,354.999573 
	C109.466568,355.019714 109.933983,355.042908 110.019882,355.360046 
	C110.832954,357.008301 111.560127,358.339417 112.287300,359.670563 
	C112.287300,359.670563 112.145821,359.827484 112.074257,359.905151 
z" />
	<path fill="#FC743C" opacity="1.000000" stroke="none" d="
M298.840485,140.331512 
	C298.840485,140.331512 298.977234,140.580215 298.901611,140.803635 
	C298.826019,141.027054 298.681091,141.172165 298.301575,141.131348 
	C296.428284,140.601868 294.191437,140.559219 293.580109,139.540817 
	C291.752777,136.496597 290.562042,133.070251 289.489441,129.818268 
	C290.589569,129.895187 291.322968,129.946976 292.056366,129.998764 
	C292.056366,129.998764 291.996490,130.002060 292.024017,130.314407 
	C292.728241,131.413300 293.404938,132.199829 294.081635,132.986359 
	C294.081635,132.986359 294.008026,132.996613 294.098022,133.200043 
	C294.400055,133.673615 294.612091,133.943726 294.824158,134.213837 
	C295.160461,134.600845 295.496796,134.987854 295.963287,135.927124 
	C296.422577,136.991608 296.751709,137.503799 297.080841,138.015991 
	C297.395142,138.001587 297.642639,138.123169 297.973755,138.874924 
	C298.362915,139.689896 298.601715,140.010712 298.840485,140.331512 
z" />
	<path fill="#E59065" opacity="1.000000" stroke="none" d="
M292.007629,129.639801 
	C291.322968,129.946976 290.589569,129.895187 289.470886,129.617432 
	C289.085571,129.391464 289.021820,128.989456 288.950439,128.657898 
	C287.602295,126.527145 286.325562,124.727928 284.940430,122.675476 
	C284.569946,121.937904 284.307770,121.453568 283.898987,120.652710 
	C282.752441,117.943863 281.752594,115.551544 280.838196,113.101067 
	C280.923676,113.042915 281.087158,112.916351 281.087158,112.916351 
	C284.711060,118.371185 288.334991,123.826019 292.007629,129.639801 
z" />
	<path fill="#FA4010" opacity="1.000000" stroke="none" d="
M310.958984,340.964081 
	C307.229462,344.916779 303.449249,348.816742 299.365234,352.842407 
	C299.061432,352.968109 298.934052,352.798706 298.922974,352.380859 
	C302.876740,348.244232 306.841522,344.525482 310.806305,340.806702 
	C310.806305,340.806702 310.908356,340.911377 310.958984,340.964081 
z" />
	<path fill="#E3562F" opacity="1.000000" stroke="none" d="
M55.969532,274.449219 
	C57.210785,277.362671 58.648457,280.648529 59.699924,284.053650 
	C60.411938,286.359528 60.580940,288.833038 60.983131,291.646912 
	C59.316128,286.332306 57.658806,280.602386 55.969532,274.449219 
z" />
	<path fill="#E59065" opacity="1.000000" stroke="none" d="
M225.040665,37.604225 
	C219.406265,36.328232 218.272873,31.056110 216.048431,26.295847 
	C219.036514,29.701006 222.016098,33.474880 225.040665,37.604225 
z" />
	<path fill="#E86F41" opacity="1.000000" stroke="none" d="
M65.121017,173.307632 
	C65.646301,173.087158 66.113670,173.065765 67.145081,173.225891 
	C66.593498,176.304901 65.477882,179.202423 64.069916,182.066956 
	C63.582523,182.013412 63.387478,181.992844 63.192432,181.972260 
	C63.471340,180.563187 63.750244,179.154114 64.263397,177.213211 
	C64.687126,176.442535 64.851936,176.187714 64.992058,175.916916 
	C64.992058,175.916916 64.997620,176.003403 65.138062,175.841431 
	C65.238274,175.089798 65.198036,174.500122 65.157791,173.910446 
	C65.157799,173.910446 65.063095,173.506714 65.121017,173.307632 
z" />
	<path fill="#E59065" opacity="1.000000" stroke="none" d="
M240.098557,56.663563 
	C236.540924,55.896038 234.217911,53.682442 234.038544,49.298851 
	C236.040115,51.380825 238.033875,53.845440 240.098557,56.663563 
z" />
	<path fill="#E59065" opacity="1.000000" stroke="none" d="
M171.075623,64.090988 
	C170.862976,64.069626 170.650330,64.048264 170.118851,63.990349 
	C171.627930,61.034950 173.455811,58.116112 175.693329,55.129742 
	C176.102951,55.062206 176.296326,55.192810 176.241989,55.542801 
	C175.485153,57.611538 174.782669,59.330284 173.821869,61.052837 
	C173.391449,61.062790 173.219330,61.068932 172.867737,61.208164 
	C172.463165,61.541046 172.280121,61.773899 172.060303,62.320980 
	C171.679535,63.098427 171.377579,63.594704 171.075623,64.090988 
z" />
	<path fill="#E58258" opacity="1.000000" stroke="none" d="
M115.003967,134.998413 
	C117.326736,137.047134 119.566208,139.177780 121.932312,141.615036 
	C122.058929,141.921661 121.969170,142.070084 121.710892,142.149292 
	C121.452621,142.228485 121.024216,142.237793 120.699493,142.096863 
	C118.501251,139.718704 116.627724,137.481491 114.754196,135.244278 
	C114.754196,135.244278 114.920685,135.080338 115.003967,134.998413 
z" />
	<path fill="#F24619" opacity="1.000000" stroke="none" d="
M97.060883,346.928345 
	C95.398300,345.541656 93.814789,344.076263 92.150772,342.247070 
	C92.070259,341.883270 92.146881,341.760651 92.505005,341.822021 
	C94.341011,343.485870 95.818878,345.088409 97.296745,346.690918 
	C97.296745,346.690918 97.139946,346.849670 97.060883,346.928345 
z" />
	<path fill="#E59065" opacity="1.000000" stroke="none" d="
M233.046295,47.629921 
	C231.739502,46.532272 230.395065,45.090939 229.045456,43.284935 
	C230.363068,44.375591 231.685867,45.830917 233.046295,47.629921 
z" />
	<path fill="#E59065" opacity="1.000000" stroke="none" d="
M191.640244,33.023903 
	C191.184189,34.242191 190.416702,35.576374 189.277039,36.933434 
	C189.712845,35.684139 190.520828,34.411964 191.640244,33.023903 
z" />
	<path fill="#E59065" opacity="1.000000" stroke="none" d="
M229.049850,42.633030 
	C228.074860,41.860840 227.061172,40.752178 226.047256,39.282196 
	C227.035065,40.046101 228.023102,41.171329 229.049850,42.633030 
z" />
	<path fill="#E59065" opacity="1.000000" stroke="none" d="
M277.990173,109.006668 
	C278.695282,109.733101 279.333008,110.518730 279.968811,111.679909 
	C279.966888,112.055466 279.892792,112.165085 279.590088,112.129791 
	C278.884796,112.038689 278.482147,111.982887 278.062683,111.581635 
	C277.959869,110.552124 277.873901,109.868088 277.787903,109.184044 
	C277.787903,109.184044 277.922821,109.065849 277.990173,109.006668 
z" />
	<path fill="#E59065" opacity="1.000000" stroke="none" d="
M294.037842,132.656982 
	C293.404938,132.199829 292.728241,131.413300 292.026459,130.284515 
	C292.665619,130.737396 293.329834,131.532501 294.037842,132.656982 
z" />
	<path fill="#ED4614" opacity="1.000000" stroke="none" d="
M168.997391,386.770020 
	C168.553940,386.811951 168.110489,386.853851 167.335922,386.526581 
	C167.004105,385.762054 167.003387,385.366669 167.257660,384.926636 
	C167.680984,384.843323 167.849319,384.804688 168.213837,384.923676 
	C168.655243,385.308960 168.900436,385.536652 169.106644,386.015503 
	C169.044250,386.434418 169.020828,386.602203 168.997391,386.770020 
z" />
	<path fill="#F24619" opacity="1.000000" stroke="none" d="
M174.424774,387.848969 
	C175.015060,387.925507 175.903763,388.084747 176.893982,388.494995 
	C176.238052,388.474518 175.480637,388.203125 174.424774,387.848969 
z" />
	<path fill="#F24619" opacity="1.000000" stroke="none" d="
M169.312866,386.858032 
	C169.020828,386.602203 169.044250,386.434418 169.454865,386.042664 
	C170.543091,385.836517 171.244095,385.854340 171.945114,385.872162 
	C171.960754,386.291992 171.976410,386.711853 172.000366,387.446655 
	C171.215225,387.489777 170.421768,387.217896 169.312866,386.858032 
z" />
	<path fill="#F24619" opacity="1.000000" stroke="none" d="
M167.002686,384.971313 
	C167.003387,385.366669 167.004105,385.762054 167.008179,386.453918 
	C166.244659,386.486572 165.477768,386.222717 164.620331,385.699402 
	C165.044937,385.226654 165.560089,385.013367 166.307251,384.842224 
	C166.539261,384.884399 167.002686,384.971313 167.002686,384.971313 
z" />
	<path fill="#ED4614" opacity="1.000000" stroke="none" d="
M166.075226,384.800110 
	C165.560089,385.013367 165.044937,385.226654 164.314789,385.615967 
	C163.918228,385.824402 163.736649,385.856812 163.284729,385.831573 
	C163.009384,385.369598 163.004395,384.965271 163.323364,384.278748 
	C164.456650,384.264374 165.265945,384.532227 166.075226,384.800110 
z" />
	<path fill="#E86F41" opacity="1.000000" stroke="none" d="
M62.167610,185.990479 
	C62.128067,185.552444 62.088524,185.114426 62.432224,184.351959 
	C63.232998,184.048843 63.650520,184.070145 64.013229,184.347168 
	C63.715412,185.060059 63.472416,185.517227 62.963989,185.979645 
	C62.521572,185.986771 62.344593,185.988632 62.167610,185.990479 
z" />
	<path fill="#E59065" opacity="1.000000" stroke="none" d="
M301.062653,143.734207 
	C300.992889,144.049591 300.775360,144.060577 300.069000,143.812180 
	C299.280487,142.759247 298.980774,141.965698 298.681091,141.172165 
	C298.681091,141.172165 298.826019,141.027054 298.888519,140.944946 
	C299.605652,141.718491 300.260284,142.574158 301.062653,143.734207 
z" />
	<path fill="#F24619" opacity="1.000000" stroke="none" d="
M179.441956,388.882782 
	C179.880768,388.692535 180.656631,388.580322 181.630386,388.622284 
	C181.145187,388.837891 180.462082,388.899353 179.441956,388.882782 
z" />
	<path fill="#F24619" opacity="1.000000" stroke="none" d="
M239.408188,385.011414 
	C239.678970,384.817047 240.273392,384.615234 240.936127,384.611267 
	C240.580215,384.874084 240.156021,384.938995 239.408188,385.011414 
z" />
	<path fill="#E58258" opacity="1.000000" stroke="none" d="
M62.050060,186.265228 
	C62.344593,185.988632 62.521572,185.986771 62.938660,186.309753 
	C63.176849,187.073517 63.174938,187.512421 63.173027,187.951324 
	C62.729401,187.970596 62.285770,187.989868 61.509502,188.014252 
	C61.428741,187.526230 61.680626,187.033096 62.050060,186.265228 
z" />
	<path fill="#E58258" opacity="1.000000" stroke="none" d="
M64.068039,184.091446 
	C63.650520,184.070145 63.232998,184.048843 62.501984,184.027527 
	C62.442871,183.527390 62.697247,183.027267 63.072029,182.249695 
	C63.387478,181.992844 63.582523,182.013412 64.000511,182.395325 
	C64.171646,183.201584 64.119843,183.646515 64.068039,184.091446 
z" />
	<path fill="#E59065" opacity="1.000000" stroke="none" d="
M297.021118,137.694733 
	C296.751709,137.503799 296.422577,136.991608 296.029205,136.175293 
	C296.297119,136.371933 296.629272,136.872696 297.021118,137.694733 
z" />
	<path fill="#E58258" opacity="1.000000" stroke="none" d="
M65.075302,174.254303 
	C65.198036,174.500122 65.238274,175.089798 65.094818,175.844269 
	C64.938354,175.538757 64.965591,175.068451 65.075302,174.254303 
z" />
	<path fill="#E3562F" opacity="1.000000" stroke="none" d="
M330.287018,314.920502 
	C330.205231,314.495667 330.414734,313.947266 330.842194,313.195923 
	C330.899506,313.594299 330.738892,314.195618 330.287018,314.920502 
z" />
	<path fill="#E3562F" opacity="1.000000" stroke="none" d="
M331.298676,312.922028 
	C331.209351,312.493927 331.411591,311.938721 331.832794,311.179749 
	C331.897919,311.582275 331.744080,312.188599 331.298676,312.922028 
z" />
	<path fill="#E3562F" opacity="1.000000" stroke="none" d="
M332.288330,310.912354 
	C332.140930,310.497375 332.287537,309.950745 332.598724,309.168945 
	C332.703003,309.549438 332.642670,310.165100 332.288330,310.912354 
z" />
	<path fill="#E3562F" opacity="1.000000" stroke="none" d="
M60.965675,292.304443 
	C61.238190,292.496552 61.554485,293.007477 61.917961,293.820984 
	C61.646584,293.623444 61.328018,293.123352 60.965675,292.304443 
z" />
	<path fill="#E58258" opacity="1.000000" stroke="none" d="
M64.735809,175.998489 
	C64.851936,176.187714 64.687126,176.442535 64.340660,176.847321 
	C64.282310,176.702194 64.380936,176.391129 64.735809,175.998489 
z" />
	<path fill="#E59065" opacity="1.000000" stroke="none" d="
M176.009338,54.992577 
	C176.091644,54.641781 176.267578,54.360619 176.687012,54.003403 
	C176.930527,53.927353 177.032745,54.057549 176.949707,54.298508 
	C176.684830,54.764481 176.494720,54.982262 176.296326,55.192810 
	C176.296326,55.192810 176.102951,55.062206 176.009338,54.992577 
z" />
	<path fill="#E59065" opacity="1.000000" stroke="none" d="
M234.011246,48.731880 
	C233.823395,48.781948 233.555740,48.563351 233.141510,48.129120 
	C233.307098,48.096725 233.619278,48.279968 234.011246,48.731880 
z" />
	<path fill="#E59065" opacity="1.000000" stroke="none" d="
M226.011734,38.726654 
	C225.818390,38.779945 225.551758,38.561958 225.141479,38.127369 
	C225.311371,38.092304 225.624908,38.273838 226.011734,38.726654 
z" />
	<path fill="#E59065" opacity="1.000000" stroke="none" d="
M216.004425,25.719303 
	C215.809311,25.775223 215.543762,25.562534 215.140717,25.132576 
	C215.313492,25.093767 215.623749,25.272232 216.004425,25.719303 
z" />
	<path fill="#E59065" opacity="1.000000" stroke="none" d="
M215.012390,24.724756 
	C214.816833,24.779156 214.550827,24.560556 214.140961,24.125546 
	C214.312042,24.090006 214.626999,24.270880 215.012390,24.724756 
z" />
	<path fill="#E59065" opacity="1.000000" stroke="none" d="
M214.008026,23.735237 
	C213.823013,23.782223 213.557068,23.561066 213.142090,23.125774 
	C213.304382,23.096792 213.615738,23.281940 214.008026,23.735237 
z" />
	<path fill="#E59065" opacity="1.000000" stroke="none" d="
M280.006439,112.002419 
	C280.332703,112.112885 280.619415,112.276390 280.996643,112.678123 
	C281.087158,112.916351 280.923676,113.042915 280.675110,112.953812 
	C280.212158,112.659309 280.034241,112.426102 279.892792,112.165085 
	C279.892792,112.165085 279.966888,112.055466 280.006439,112.002419 
z" />
	<path fill="#E59065" opacity="1.000000" stroke="none" d="
M294.879913,133.911163 
	C294.612091,133.943726 294.400055,133.673615 294.096069,133.162933 
	C294.314667,133.151093 294.625183,133.379807 294.879913,133.911163 
z" />
	<path fill="#E59065" opacity="1.000000" stroke="none" d="
M298.908936,139.985840 
	C298.601715,140.010712 298.362915,139.689896 298.032928,139.080750 
	C298.286926,139.074997 298.632172,139.357574 298.908936,139.985840 
z" />
	<path fill="#F24619" opacity="1.000000" stroke="none" d="
M92.030487,341.943665 
	C91.706169,341.836426 91.421623,341.668823 91.067474,341.255188 
	C90.997879,341.009155 91.123711,340.928650 91.344299,341.033447 
	C91.771751,341.333679 91.965744,341.541168 92.146881,341.760651 
	C92.146881,341.760651 92.070259,341.883270 92.030487,341.943665 
z" />
	<path fill="#E3562F" opacity="1.000000" stroke="none" d="
M329.229309,316.005493 
	C329.178894,315.821930 329.390686,315.543030 329.826843,315.124146 
	C329.864685,315.292847 329.678131,315.601501 329.229309,316.005493 
z" />
	<path fill="#E3562F" opacity="1.000000" stroke="none" d="
M328.218567,317.993652 
	C328.040497,317.774261 328.193054,317.482422 328.587036,317.047180 
	C328.669647,317.208557 328.576538,317.547668 328.218567,317.993652 
z" />
	<path fill="#E3562F" opacity="1.000000" stroke="none" d="
M327.257385,320.038635 
	C327.122742,319.835907 327.276520,319.508728 327.613922,318.977783 
	C327.713623,319.154022 327.629730,319.534088 327.257385,320.038635 
z" />
	<path fill="#FF9859" opacity="1.000000" stroke="none" d="
M111.016571,295.983704 
	C108.676727,287.599396 106.336884,279.215118 103.977631,269.960815 
	C103.682037,265.058441 103.405838,261.026062 103.164192,256.602478 
	C103.284035,255.166077 103.369324,254.120926 103.454620,253.075790 
	C106.348137,243.066849 109.241653,233.057892 112.411636,222.435913 
	C113.819786,219.240570 114.951462,216.658295 116.083130,214.076004 
	C116.083130,214.076004 116.079704,214.051559 116.299911,213.842331 
	C116.705482,213.081070 116.890854,212.529053 117.076233,211.977020 
	C117.076233,211.977020 117.243118,211.572174 117.566727,211.203400 
	C121.647942,203.990799 125.405563,197.146957 129.477875,190.162338 
	C133.234070,185.042542 136.675583,180.063553 140.391129,174.891083 
	C145.142395,168.188187 149.619614,161.678772 154.399872,155.022003 
	C158.512665,149.613846 162.322418,144.353012 166.439026,138.968048 
	C172.192810,131.606339 177.639786,124.368752 183.415817,117.034096 
	C188.712540,110.411163 193.845428,104.002327 198.582504,97.313179 
	C201.199341,93.618027 202.591629,93.122124 205.760101,96.373215 
	C206.896164,97.538879 207.613525,99.102859 208.691223,100.337288 
	C210.710007,102.649666 212.852249,104.854233 215.012634,107.370224 
	C215.381882,108.093575 215.681641,108.550362 216.095642,109.321671 
	C223.450333,119.127892 230.690796,128.619568 238.112061,138.394989 
	C241.191711,142.454147 244.090546,146.229599 246.994080,150.003174 
	C246.998779,150.001312 246.995605,150.010071 247.059723,150.313629 
	C247.754242,151.399139 248.384628,152.181107 249.009247,152.980042 
	C249.003479,152.997025 249.038498,152.989273 249.118851,153.281540 
	C249.777588,154.098328 250.355988,154.622864 251.079407,155.457611 
	C256.107574,162.874817 260.990692,169.981812 265.981079,177.418335 
	C269.688812,183.519699 273.289246,189.291565 276.966522,195.415192 
	C280.979645,203.250046 284.915955,210.733170 288.864777,218.596313 
	C291.937103,228.973984 294.996857,238.971634 298.036438,249.358856 
	C298.334778,251.489655 298.653320,253.230896 298.939819,255.420898 
	C298.624481,261.248962 298.341217,266.628265 297.874512,272.325806 
	C297.438995,274.077271 297.186920,275.510529 296.735382,277.247467 
	C293.302612,289.320587 287.281647,299.737427 280.820190,309.940521 
	C280.544128,310.079163 280.328033,310.281738 279.802582,310.936218 
	C277.270691,313.871246 275.108124,316.418335 272.945526,318.965424 
	C272.945526,318.965424 273.004364,318.984985 272.664856,319.069031 
	C269.847687,321.398468 267.369995,323.643890 264.568298,325.997498 
	C250.036942,336.291168 234.576523,343.771362 217.192764,346.355560 
	C208.546768,347.640778 199.711792,347.654724 190.597443,348.170349 
	C189.490326,348.085236 188.748077,348.073486 187.608383,347.968506 
	C176.668289,345.077789 165.910385,342.889069 155.660248,339.264435 
	C149.055145,336.928711 143.195358,332.485260 136.999466,328.994446 
	C136.997406,329.002441 137.013367,328.998077 136.859512,328.701019 
	C133.822021,325.912079 130.938385,323.420227 128.031540,320.962982 
	C128.008331,320.997620 128.072159,320.943726 127.926216,320.641479 
	C125.200455,317.539764 122.620636,314.740265 120.022827,311.969177 
	C120.004845,311.997589 120.060417,311.959656 119.931274,311.632202 
	C117.232391,307.501221 114.662651,303.697693 112.095688,299.937500 
	C112.098473,299.980865 112.136307,299.902649 112.091309,299.565247 
	C111.703064,298.146454 111.359825,297.065063 111.016571,295.983704 
z" />
	<path fill="#FD4D1A" opacity="1.000000" stroke="none" d="
M103.129646,256.993713 
	C103.405838,261.026062 103.682037,265.058441 103.912521,269.549164 
	C102.901474,272.935120 101.936150,275.862701 100.865631,279.109314 
	C100.219688,278.413452 99.015472,277.116180 97.632545,275.626373 
	C89.375298,280.860474 80.029968,280.171448 70.777634,279.890472 
	C69.568108,279.853729 67.876953,279.301025 67.283249,278.406769 
	C65.442154,275.633667 64.180611,272.759888 59.849972,272.959442 
	C58.905842,273.002960 57.788837,269.295380 56.456589,267.160248 
	C55.831341,261.285980 55.500954,255.566818 55.437923,249.299469 
	C55.806187,247.502563 55.907089,246.253860 56.007996,245.005142 
	C56.011829,243.938797 56.015667,242.872437 56.036079,241.406387 
	C58.617168,235.742310 60.929394,233.198517 67.100502,238.172348 
	C69.765930,240.320648 75.921913,238.418793 80.442390,237.911911 
	C85.775314,237.313980 91.029938,235.976547 96.366936,235.473846 
	C98.980286,235.227707 102.250992,242.034241 101.914703,246.006088 
	C101.737595,248.097794 101.768593,250.207123 101.858826,253.017975 
	C102.384560,254.816208 102.757103,255.904968 103.129646,256.993713 
z" />
	<path fill="#FD5F29" opacity="1.000000" stroke="none" d="
M129.163177,190.303131 
	C125.405563,197.146957 121.647942,203.990799 117.609451,210.988678 
	C113.000534,204.182175 105.985672,206.153015 99.713356,205.993866 
	C93.351349,205.832458 86.977333,206.027222 80.611328,206.180115 
	C76.181664,206.286514 71.751167,206.510132 67.331848,206.830490 
	C65.123993,206.990524 62.940350,207.484558 60.398491,207.915771 
	C61.353943,201.590454 62.656654,195.176895 64.348160,188.304016 
	C69.726929,186.513107 73.850822,181.321365 79.928642,184.568710 
	C80.676003,184.968018 82.115677,183.816391 83.237480,183.808624 
	C98.429626,183.703171 113.622292,183.672180 128.814865,183.637695 
	C128.936584,183.637421 129.058746,183.842010 129.163193,183.935318 
	C129.163193,186.068787 129.163193,188.185959 129.163177,190.303131 
z" />
	<path fill="#FD5F29" opacity="1.000000" stroke="none" d="
M115.775635,214.241760 
	C114.951462,216.658295 113.819786,219.240570 112.433151,222.066986 
	C113.274841,219.676575 114.371490,217.042053 115.775635,214.241760 
z" />
	<path fill="#FD5F29" opacity="1.000000" stroke="none" d="
M58.464645,212.881409 
	C58.355637,212.165253 58.498302,211.344070 58.837578,210.272064 
	C58.928230,210.939621 58.822273,211.858002 58.464645,212.881409 
z" />
	<path fill="#F24619" opacity="1.000000" stroke="none" d="
M103.164192,256.602478 
	C102.757103,255.904968 102.384560,254.816208 102.005798,253.369415 
	C102.240997,253.022934 102.482407,253.034485 103.089218,253.060913 
	C103.369324,254.120926 103.284035,255.166077 103.164192,256.602478 
z" />
	<path fill="#FD5F29" opacity="1.000000" stroke="none" d="
M116.878815,212.193024 
	C116.890854,212.529053 116.705482,213.081070 116.301376,213.830093 
	C116.282227,213.487732 116.481819,212.948380 116.878815,212.193024 
z" />
	<path fill="#FD3808" opacity="1.000000" stroke="none" d="
M310.882294,340.459290 
	C306.841522,344.525482 302.876740,348.244232 298.850433,352.303589 
	C296.433868,354.078003 294.078827,355.511749 291.275452,356.673096 
	C291.171509,352.613159 291.515869,348.825623 291.912720,344.460480 
	C290.278717,343.249329 288.667053,342.862549 287.077240,345.981415 
	C286.373993,347.361053 284.231018,348.850891 282.747650,348.844727 
	C275.787140,348.815826 268.807922,348.484863 261.886353,347.769043 
	C260.437744,347.619232 259.160645,345.431122 257.884918,344.104889 
	C256.803436,342.980530 255.655273,340.657379 254.860748,340.791077 
	C253.351105,341.045074 251.634064,342.404175 250.777496,343.784729 
	C247.584244,348.931396 247.659698,349.008972 244.064865,344.435425 
	C237.319687,351.179779 233.542526,351.816803 229.247833,346.734741 
	C231.072647,345.643585 232.560806,344.369263 234.242462,344.015900 
	C242.379105,342.306213 249.447098,338.307373 256.413452,334.066956 
	C259.011719,332.485413 261.481384,330.692657 264.388214,328.990356 
	C269.064819,328.483124 271.735443,326.072754 272.983276,321.989319 
	C272.990143,321.993195 272.982147,321.974976 272.982147,321.974976 
	C277.919312,321.727753 280.632263,318.337097 282.881287,314.607330 
	C284.457062,311.994110 286.254425,311.376251 288.543640,313.226318 
	C293.669281,317.368805 299.577942,317.067535 305.578247,316.609436 
	C309.287537,316.326233 313.005676,316.158508 316.663727,315.942261 
	C314.255493,319.838226 312.188873,323.181549 310.122284,326.524841 
	C310.573517,326.917023 311.024750,327.309235 311.475983,327.701416 
	C314.029663,325.244232 316.583374,322.787048 319.935638,319.561462 
	C319.935638,321.314362 320.439240,323.017944 319.849884,324.155029 
	C317.049133,329.558533 313.950745,334.807770 310.882294,340.459290 
M286.768890,318.800842 
	C286.109955,319.035370 285.450989,319.269867 284.792053,319.504364 
	C285.173248,319.918823 285.554443,320.333282 285.935669,320.747711 
	C286.337372,320.229736 286.739105,319.711731 286.768890,318.800842 
z" />
	<path fill="#FE4916" opacity="1.000000" stroke="none" d="
M296.934814,276.943756 
	C297.186920,275.510529 297.438995,274.077271 298.208221,272.143433 
	C299.482330,266.101105 300.239349,260.559387 301.229126,254.785248 
	C302.523102,253.888870 303.609711,252.616882 304.641296,252.660004 
	C311.155151,252.932358 317.650604,253.650421 324.164520,253.914001 
	C329.146698,254.115601 334.536896,255.266235 337.451538,250.345810 
	C339.008331,252.653076 340.476593,254.829086 341.944824,257.005096 
	C341.307709,265.887390 340.707458,274.772705 339.984283,283.647980 
	C339.898956,284.695251 339.139221,285.687561 338.365936,286.879181 
	C334.735443,282.787476 327.701965,281.658691 321.946136,284.055664 
	C315.322083,286.814178 308.519806,287.426483 301.554504,284.954620 
	C300.126801,284.447906 298.349274,284.926971 296.440063,284.617004 
	C296.409729,281.836151 296.672272,279.389954 296.934814,276.943756 
z" />
	<path fill="#ED4614" opacity="1.000000" stroke="none" d="
M296.735382,277.247467 
	C296.672272,279.389954 296.409729,281.836151 296.075897,284.639893 
	C292.406433,292.223999 288.892456,299.494934 285.134613,306.637512 
	C284.435364,307.966553 282.755737,308.779816 281.174377,309.885803 
	C287.281647,299.737427 293.302612,289.320587 296.735382,277.247467 
z" />
	<path fill="#ED4614" opacity="1.000000" stroke="none" d="
M264.892273,325.889313 
	C267.369995,323.643890 269.847687,321.398468 272.643799,319.046173 
	C272.971558,319.698730 272.980865,320.458160 272.986145,321.596283 
	C272.982147,321.974976 272.990143,321.993195 272.649292,322.071808 
	C269.901001,323.464539 267.493530,324.778656 265.037659,326.041870 
	C264.989258,325.990936 264.892273,325.889313 264.892273,325.889313 
z" />
	<path fill="#ED4614" opacity="1.000000" stroke="none" d="
M273.310638,318.949219 
	C275.108124,316.418335 277.270691,313.871246 279.712891,311.142090 
	C277.886932,313.617706 275.781342,316.275360 273.310638,318.949219 
z" />
	<path fill="#FE7F43" opacity="1.000000" stroke="none" d="
M176.241989,55.542801 
	C176.494720,54.982262 176.684830,54.764481 176.996857,54.366528 
	C182.276794,54.226276 181.901154,48.920200 184.786240,46.291046 
	C187.865402,48.138237 190.836502,49.455463 195.008194,48.157833 
	C193.381287,45.954689 192.160690,44.301781 191.080917,42.839581 
	C196.109222,43.675957 200.714905,44.349987 205.270264,45.272545 
	C206.255524,45.472076 207.016190,46.634922 207.959885,47.227238 
	C208.863968,47.794693 210.333069,48.865761 210.762436,48.569290 
	C215.229019,45.485287 218.011063,48.974934 221.339188,50.874054 
	C225.678253,53.350037 230.744141,54.869167 234.436874,58.036400 
	C236.495407,59.801994 237.818298,60.613747 240.555237,60.043846 
	C245.975067,67.017281 251.058609,73.998650 256.095734,81.013374 
	C256.554291,81.651970 256.714752,82.504623 256.675720,83.558365 
	C254.065430,82.508492 251.793060,81.158127 249.520691,79.807755 
	C249.546738,79.204376 249.572784,78.600998 249.598816,77.997620 
	C248.113602,79.858574 246.628372,81.719536 244.779312,84.036354 
	C243.542343,81.747688 242.605988,80.015228 241.120499,77.266769 
	C238.838348,82.273148 235.674118,81.119507 232.112961,80.287567 
	C229.501694,79.677528 226.555923,80.597633 223.754654,80.680115 
	C219.211517,80.813889 214.664322,80.885025 210.119431,80.862480 
	C205.205414,80.838104 199.999649,79.633415 195.470993,80.903725 
	C191.848465,81.919853 188.682831,82.542099 184.978729,82.090858 
	C180.602356,81.557709 175.835480,76.989510 171.792053,82.854500 
	C171.729538,82.945160 171.469193,82.883247 171.310120,82.925911 
	C167.529816,83.939720 163.750763,84.958099 159.971466,85.975655 
	C162.462280,81.110443 164.953110,76.245239 168.020020,71.300995 
	C172.757187,69.364151 175.147156,64.930740 174.080170,61.049026 
	C174.782669,59.330284 175.485153,57.611538 176.241989,55.542801 
z" />
	<path fill="#FE3E0D" opacity="1.000000" stroke="none" d="
M84.984406,326.016907 
	C83.546005,325.319977 81.632057,324.991547 80.754990,323.859650 
	C77.652992,319.856445 74.700760,315.699860 72.121117,311.346924 
	C71.033699,309.511993 71.145157,307.002777 70.478622,304.872986 
	C69.663536,302.268494 68.906822,299.569916 67.582199,297.217621 
	C65.324966,293.209198 66.937286,289.185394 71.515884,289.085205 
	C80.819954,288.881653 90.249962,286.864960 99.367874,290.498505 
	C99.520103,290.559174 99.731956,290.658783 99.845436,290.601196 
	C107.453018,286.740692 106.721481,293.810333 108.970901,297.977875 
	C110.215340,299.045135 111.175819,299.473907 112.136307,299.902649 
	C112.136307,299.902649 112.098473,299.980865 112.073059,300.343597 
	C112.404999,306.104797 114.737228,310.097046 120.060417,311.959656 
	C120.060417,311.959656 120.004845,311.997589 120.032433,312.342285 
	C121.044075,317.075958 123.128059,320.397522 128.072159,320.943726 
	C128.072159,320.943726 128.008331,320.997620 128.041290,321.326172 
	C129.057297,323.762207 130.040329,325.869720 130.597122,327.981415 
	C122.280388,327.323700 114.365700,326.860046 106.511414,325.901459 
	C103.409531,325.522888 100.435631,324.061615 97.415894,323.056000 
	C95.376099,322.376678 93.358025,321.632141 90.636925,320.672211 
	C91.682228,323.493011 92.301582,325.164368 92.920929,326.835724 
	C92.564400,327.081238 92.207878,327.326752 91.851349,327.572235 
	C90.722374,326.745880 89.693115,325.551239 88.432793,325.209961 
	C87.429703,324.938354 86.144402,325.708984 84.984406,326.016907 
z" />
	<path fill="#FD3807" opacity="1.000000" stroke="none" d="
M85.123993,326.328857 
	C86.144402,325.708984 87.429703,324.938354 88.432793,325.209961 
	C89.693115,325.551239 90.722374,326.745880 91.851349,327.572235 
	C92.207878,327.326752 92.564400,327.081238 92.920929,326.835724 
	C92.301582,325.164368 91.682228,323.493011 90.636925,320.672211 
	C93.358025,321.632141 95.376099,322.376678 97.415894,323.056000 
	C100.435631,324.061615 103.409531,325.522888 106.511414,325.901459 
	C114.365700,326.860046 122.280388,327.323700 130.967438,328.060913 
	C133.513794,328.423492 135.263580,328.710785 137.013367,328.998108 
	C137.013367,328.998077 136.997406,329.002441 137.027588,329.347107 
	C141.395203,335.879883 147.711197,339.271210 154.524963,341.873444 
	C159.303696,343.698486 164.171051,345.291473 168.733215,347.201630 
	C163.438736,352.117371 157.782715,352.719238 151.498001,350.258881 
	C150.178757,349.742462 148.531296,350.012421 147.034897,350.009186 
	C138.538177,349.990845 130.041061,350.040833 121.544975,349.965912 
	C119.748909,349.950073 117.795326,349.887115 116.191513,349.199402 
	C110.428322,346.728210 110.477051,346.623260 110.967636,353.000702 
	C111.018639,353.663727 110.989746,354.332886 110.731857,355.007904 
	C110.288506,355.025360 110.111244,355.034149 109.933983,355.042908 
	C109.933983,355.042908 109.466568,355.019714 109.082733,354.821594 
	C108.485481,354.394379 108.247528,354.194519 107.985031,354.023895 
	C106.595558,352.709106 105.331436,351.216522 103.784103,350.125702 
	C101.953781,348.835480 99.879013,347.892029 97.603485,346.744568 
	C95.818878,345.088409 94.341011,343.485870 92.505005,341.822021 
	C91.965744,341.541168 91.771751,341.333679 91.408295,340.994934 
	C91.214180,340.441498 91.176659,340.031342 91.508080,339.307983 
	C93.153221,338.298065 94.429428,337.601440 95.705627,336.904785 
	C94.774826,335.695801 94.072472,334.119263 92.859016,333.364990 
	C91.094299,332.268066 88.961189,331.763855 86.985161,331.006897 
	C86.411301,329.551544 85.837448,328.096191 85.123993,326.328857 
M124.176598,329.259796 
	C123.635941,329.716278 123.095284,330.172760 122.554611,330.629211 
	C123.042191,330.937653 123.529770,331.246063 124.017349,331.554474 
	C124.251610,330.845825 124.485870,330.137146 124.176598,329.259796 
z" />
	<path fill="#FD3808" opacity="1.000000" stroke="none" d="
M87.057648,331.356750 
	C88.961189,331.763855 91.094299,332.268066 92.859016,333.364990 
	C94.072472,334.119263 94.774826,335.695801 95.705627,336.904785 
	C94.429428,337.601440 93.153221,338.298065 91.494934,338.998901 
	C89.785271,336.570923 88.457703,334.138763 87.057648,331.356750 
z" />
	<path fill="#ED4614" opacity="1.000000" stroke="none" d="
M112.091309,299.565247 
	C111.175819,299.473907 110.215340,299.045135 109.133896,298.305939 
	C109.539742,297.452026 110.066528,296.908569 110.804947,296.174408 
	C111.359825,297.065063 111.703064,298.146454 112.091309,299.565247 
z" />
	<path fill="#FD3404" opacity="1.000000" stroke="none" d="
M110.997932,354.999207 
	C110.989746,354.332886 111.018639,353.663727 110.967636,353.000702 
	C110.477051,346.623260 110.428322,346.728210 116.191513,349.199402 
	C117.795326,349.887115 119.748909,349.950073 121.544975,349.965912 
	C130.041061,350.040833 138.538177,349.990845 147.034897,350.009186 
	C148.531296,350.012421 150.178757,349.742462 151.498001,350.258881 
	C157.782715,352.719238 163.438736,352.117371 169.130402,347.203918 
	C171.536102,347.324829 173.278976,347.657043 174.787598,348.221008 
	C173.993332,349.887726 173.433350,351.322662 172.873383,352.757568 
	C173.748138,353.097046 174.630173,353.747925 175.496490,353.727631 
	C183.727036,353.534821 191.967178,353.402863 200.174789,352.828339 
	C202.171356,352.688538 204.058487,350.985474 206.454590,349.997040 
	C214.275620,348.987274 221.637985,347.981659 229.000351,346.976074 
	C233.542526,351.816803 237.319687,351.179779 244.064865,344.435425 
	C247.659698,349.008972 247.584244,348.931396 250.777496,343.784729 
	C251.634064,342.404175 253.351105,341.045074 254.860748,340.791077 
	C255.655273,340.657379 256.803436,342.980530 257.884918,344.104889 
	C259.160645,345.431122 260.437744,347.619232 261.886353,347.769043 
	C268.807922,348.484863 275.787140,348.815826 282.747650,348.844727 
	C284.231018,348.850891 286.373993,347.361053 287.077240,345.981415 
	C288.667053,342.862549 290.278717,343.249329 291.912720,344.460480 
	C291.515869,348.825623 291.171509,352.613159 290.924805,356.710388 
	C290.507477,357.567688 289.992462,358.115295 289.109436,358.486572 
	C286.743011,355.626892 284.423676,355.471680 281.656982,357.255432 
	C282.146179,358.978333 282.575531,360.490448 283.004883,362.002533 
	C278.586151,364.654968 274.167450,367.307404 269.492188,369.658142 
	C269.897614,367.340912 270.559570,365.325409 271.221497,363.309906 
	C269.065857,363.239105 266.902252,363.020477 264.756714,363.136444 
	C262.293915,363.269531 259.847748,363.954956 257.393341,363.960602 
	C230.279999,364.023071 203.166428,363.980530 176.052994,364.012878 
	C168.740936,364.021606 160.981689,362.433746 155.379990,369.267151 
	C155.330978,369.326935 155.068329,369.211609 154.905426,369.178040 
	C153.957840,363.788452 151.403320,362.855011 145.856903,365.021545 
	C143.097549,366.099426 139.889725,366.042542 136.878860,366.455841 
	C135.867706,366.594574 134.838226,366.599884 133.718658,366.672577 
	C134.607941,368.766876 135.295853,370.386932 135.983765,372.006989 
	C131.502502,369.480499 127.021255,366.954041 122.265640,363.811890 
	C122.268913,358.581604 120.989433,355.759644 115.473648,356.696930 
	C114.117081,356.927460 112.496910,355.606781 110.997932,354.999207 
M129.002655,355.375519 
	C129.045975,354.833557 129.089294,354.291565 129.132614,353.749603 
	C128.615204,353.884399 128.097778,354.019196 127.580376,354.153961 
	C127.885277,354.604523 128.190186,355.055115 129.002655,355.375519 
z" />
	<path fill="#FE3103" opacity="1.000000" stroke="none" d="
M135.990555,372.005829 
	C135.295853,370.386932 134.607941,368.766876 133.718658,366.672577 
	C134.838226,366.599884 135.867706,366.594574 136.878860,366.455841 
	C139.889725,366.042542 143.097549,366.099426 145.856903,365.021545 
	C151.403320,362.855011 153.957840,363.788452 154.905426,369.178040 
	C155.068329,369.211609 155.330978,369.326935 155.379990,369.267151 
	C160.981689,362.433746 168.740936,364.021606 176.052994,364.012878 
	C203.166428,363.980530 230.279999,364.023071 257.393341,363.960602 
	C259.847748,363.954956 262.293915,363.269531 264.756714,363.136444 
	C266.902252,363.020477 269.065857,363.239105 271.221497,363.309906 
	C270.559570,365.325409 269.897614,367.340912 269.123169,369.682343 
	C269.010651,370.008270 269.001007,370.001343 268.672302,370.032898 
	C267.562897,370.706573 266.782166,371.348663 266.001465,371.990753 
	C265.559570,371.999512 265.117706,372.008240 264.110931,371.782867 
	C257.992798,367.183411 256.908478,367.448669 251.689301,374.400574 
	C249.426010,373.994507 247.191101,373.593506 244.666016,373.140472 
	C244.815292,376.061798 244.916489,378.042572 245.017700,380.023346 
	C243.898911,380.642792 242.780121,381.262268 241.161407,381.579376 
	C236.466141,378.717255 233.344986,379.957245 231.017212,384.003479 
	C225.616623,384.978729 220.216034,385.954010 214.091034,386.760010 
	C211.249649,387.019623 209.132645,387.448456 207.015640,387.877289 
	C206.564056,387.880341 206.112457,387.883392 205.196854,387.603882 
	C203.495056,387.507416 202.257294,387.693512 201.019531,387.879639 
	C198.967743,387.888641 196.915970,387.897614 194.301407,387.608887 
	C192.495453,387.211914 191.252289,387.112701 190.009109,387.013489 
	C184.211304,386.517365 178.413498,386.021210 172.280396,385.698608 
	C171.244095,385.854340 170.543091,385.836517 169.493851,385.791534 
	C168.900436,385.536652 168.655243,385.308960 168.178284,384.590820 
	C166.411850,378.841736 162.452911,380.672577 158.994675,381.039185 
	C158.550446,381.024170 158.106216,381.009125 157.260529,380.741638 
	C156.237534,380.330627 155.615997,380.172058 154.994446,380.013519 
	C153.501068,379.497864 152.007690,378.982178 150.168945,377.876801 
	C146.424713,370.113495 146.312363,370.061432 138.408173,371.655884 
	C137.613602,371.816162 136.803055,371.897095 135.999908,372.014862 
	C135.999908,372.014862 135.997330,372.004669 135.990555,372.005829 
M249.007538,368.362579 
	C247.579651,368.379730 246.151764,368.396881 244.723892,368.414032 
	C244.907303,369.128296 245.090714,369.842529 245.274124,370.556793 
	C246.634857,370.014130 247.995590,369.471466 249.007538,368.362579 
M158.502655,373.491333 
	C158.194138,373.938507 157.885635,374.385651 157.577103,374.832794 
	C158.092438,374.974884 158.607788,375.116943 159.123138,375.259003 
	C159.084381,374.716095 159.045609,374.173157 158.502655,373.491333 
z" />
	<path fill="#FD3404" opacity="1.000000" stroke="none" d="
M245.414917,380.007416 
	C244.916489,378.042572 244.815292,376.061798 244.666016,373.140472 
	C247.191101,373.593506 249.426010,373.994507 251.689301,374.400574 
	C256.908478,367.448669 257.992798,367.183411 263.779480,371.784546 
	C263.218964,372.981140 262.609436,374.452484 261.600098,374.817108 
	C256.393860,376.698029 251.085114,378.295258 245.414917,380.007416 
z" />
	<path fill="#FD3808" opacity="1.000000" stroke="none" d="
M283.350281,361.936646 
	C282.575531,360.490448 282.146179,358.978333 281.656982,357.255432 
	C284.423676,355.471680 286.743011,355.626892 288.866730,358.634705 
	C287.226593,359.929718 285.461121,360.900238 283.350281,361.936646 
z" />
	<path fill="#FD3807" opacity="1.000000" stroke="none" d="
M231.438202,384.004059 
	C233.344986,379.957245 236.466141,378.717255 240.823120,381.592285 
	C237.942886,382.606598 234.901047,383.305603 231.438202,384.004059 
z" />
	<path fill="#FD3807" opacity="1.000000" stroke="none" d="
M207.424377,387.904785 
	C209.132645,387.448456 211.249649,387.019623 213.675476,386.793274 
	C211.933929,387.307922 209.883530,387.620056 207.424377,387.904785 
z" />
	<path fill="#FD3807" opacity="1.000000" stroke="none" d="
M190.295425,387.208160 
	C191.252289,387.112701 192.495453,387.211914 193.862015,387.590179 
	C192.850845,387.713745 191.716293,387.558289 190.295425,387.208160 
z" />
	<path fill="#FD3807" opacity="1.000000" stroke="none" d="
M201.415268,387.907562 
	C202.257294,387.693512 203.495056,387.507416 204.858154,387.600220 
	C203.925980,387.897919 202.868500,387.916718 201.415268,387.907562 
z" />
	<path fill="#FD3404" opacity="1.000000" stroke="none" d="
M266.308136,371.931091 
	C266.782166,371.348663 267.562897,370.706573 268.673553,370.037537 
	C268.207275,370.630859 267.411041,371.251160 266.308136,371.931091 
z" />
	<path fill="#FD6B32" opacity="1.000000" stroke="none" d="
M154.096863,155.169342 
	C149.619614,161.678772 145.142395,168.188187 140.211105,174.630493 
	C141.082794,171.818115 142.526047,169.121094 143.681335,166.305878 
	C144.206009,165.027359 144.786285,163.086334 144.198746,162.227661 
	C143.599869,161.352448 141.038040,160.683441 140.304611,161.228348 
	C136.550980,164.017105 133.185638,161.507233 129.567551,161.347885 
	C115.776833,160.740479 101.939194,161.253784 88.119507,161.211319 
	C84.542717,161.200333 80.967461,160.690430 77.391495,160.409698 
	C76.238403,160.904053 75.383324,162.866837 74.985733,164.918289 
	C74.312019,168.394547 72.625298,170.351456 68.868401,169.926697 
	C71.413589,163.331345 73.956932,156.735275 76.505173,150.141098 
	C77.214058,148.306671 77.937408,146.477814 79.203064,144.328354 
	C86.992279,144.973587 86.978683,144.976868 85.230537,137.720749 
	C85.004341,136.781876 85.004868,135.788406 84.900368,134.820221 
	C84.913498,134.410294 84.926628,134.000366 85.350418,133.304199 
	C86.786804,133.682205 88.558182,134.203293 88.717636,135.033859 
	C89.780190,140.568466 92.090691,142.487518 97.119072,137.979752 
	C97.837700,138.912354 98.209106,139.827820 98.874786,140.168793 
	C100.299805,140.898743 101.876938,141.331726 103.391769,141.886337 
	C103.378311,140.258331 103.417198,138.627106 103.317154,137.004425 
	C103.289795,136.560684 102.626129,136.138611 102.633934,135.713562 
	C102.656609,134.477524 102.871590,133.245041 103.011147,132.011154 
	C104.163704,132.331604 105.650146,132.304855 106.409058,133.034653 
	C109.188438,135.707413 111.629761,138.730026 114.387383,141.427673 
	C116.273270,143.272537 118.182373,147.294205 121.024216,142.237793 
	C121.024216,142.237793 121.452621,142.228485 121.666153,142.223572 
	C124.301857,146.026840 126.041161,144.932510 128.026016,141.224915 
	C131.893539,142.281967 139.519562,143.251816 144.091522,143.054184 
	C145.237900,143.004639 146.393845,143.231628 147.547562,143.283401 
	C149.245667,143.359619 150.954865,143.301514 152.642242,143.470917 
	C154.176834,143.624969 156.410614,143.523331 157.010941,144.420822 
	C157.633011,145.350830 156.797379,147.386826 156.355606,148.866287 
	C155.717957,151.001724 154.860519,153.071533 154.096863,155.169342 
z" />
	<path fill="#FE652D" opacity="1.000000" stroke="none" d="
M68.634689,170.116577 
	C72.625298,170.351456 74.312019,168.394547 74.985733,164.918289 
	C75.383324,162.866837 76.238403,160.904053 77.391495,160.409698 
	C80.967461,160.690430 84.542717,161.200333 88.119507,161.211319 
	C101.939194,161.253784 115.776833,160.740479 129.567551,161.347885 
	C133.185638,161.507233 136.550980,164.017105 140.304611,161.228348 
	C141.038040,160.683441 143.599869,161.352448 144.198746,162.227661 
	C144.786285,163.086334 144.206009,165.027359 143.681335,166.305878 
	C142.526047,169.121094 141.082794,171.818115 139.937073,174.823975 
	C136.675583,180.063553 133.234070,185.042542 129.477875,190.162338 
	C129.163193,188.185959 129.163193,186.068787 129.163193,183.935318 
	C129.058746,183.842010 128.936584,183.637421 128.814865,183.637695 
	C113.622292,183.672180 98.429626,183.703171 83.237480,183.808624 
	C82.115677,183.816391 80.676003,184.968018 79.928642,184.568710 
	C73.850822,181.321365 69.726929,186.513107 64.388779,187.916351 
	C64.040588,187.987976 63.605293,187.970993 63.389160,187.961151 
	C63.174938,187.512421 63.176849,187.073517 63.204094,186.304504 
	C63.472416,185.517227 63.715412,185.060059 64.013222,184.347168 
	C64.119843,183.646515 64.171646,183.201584 64.292854,182.428284 
	C65.477882,179.202423 66.593498,176.304901 67.495544,173.208618 
	C67.654976,172.108704 68.027977,171.207581 68.634689,170.116577 
M131.672562,179.095139 
	C131.884628,179.057251 132.096695,179.019363 132.308762,178.981476 
	C132.099701,178.931137 131.890656,178.880814 131.672562,179.095139 
z" />
	<path fill="#FC743C" opacity="1.000000" stroke="none" d="
M120.699493,142.096863 
	C118.182373,147.294205 116.273270,143.272537 114.387383,141.427673 
	C111.629761,138.730026 109.188438,135.707413 106.409058,133.034653 
	C105.650146,132.304855 104.163704,132.331604 103.011147,132.011154 
	C102.871590,133.245041 102.656609,134.477524 102.633934,135.713562 
	C102.626129,136.138611 103.289795,136.560684 103.317154,137.004425 
	C103.417198,138.627106 103.378311,140.258331 103.391769,141.886337 
	C101.876938,141.331726 100.299805,140.898743 98.874786,140.168793 
	C98.209106,139.827820 97.837700,138.912354 97.119072,137.979752 
	C92.090691,142.487518 89.780190,140.568466 88.717636,135.033859 
	C88.558182,134.203293 86.786804,133.682205 85.377899,132.997711 
	C88.199928,126.782059 91.405159,120.586624 94.610390,114.391197 
	C95.269157,114.375519 95.927925,114.359848 96.586685,114.344170 
	C100.536713,120.018822 104.333366,125.810730 108.528633,131.297882 
	C109.815643,132.981201 112.194382,133.829834 114.413696,135.152496 
	C116.627724,137.481491 118.501251,139.718704 120.699493,142.096863 
z" />
	<path fill="#FD6F36" opacity="1.000000" stroke="none" d="
M84.575836,134.939178 
	C85.004868,135.788406 85.004341,136.781876 85.230537,137.720749 
	C86.978683,144.976868 86.992279,144.973587 79.355957,143.998642 
	C80.723709,141.010696 82.487511,138.034409 84.575836,134.939178 
z" />
	<path fill="#FE7B3F" opacity="1.000000" stroke="none" d="
M159.982590,85.980286 
	C163.750763,84.958099 167.529816,83.939720 171.310120,82.925911 
	C171.469193,82.883247 171.729538,82.945160 171.792053,82.854500 
	C175.835480,76.989510 180.602356,81.557709 184.978729,82.090858 
	C188.682831,82.542099 191.848465,81.919853 195.470993,80.903725 
	C199.999649,79.633415 205.205414,80.838104 210.119431,80.862480 
	C214.664322,80.885025 219.211517,80.813889 223.754654,80.680115 
	C226.555923,80.597633 229.501694,79.677528 232.112961,80.287567 
	C235.674118,81.119507 238.838348,82.273148 241.120499,77.266769 
	C242.605988,80.015228 243.542343,81.747688 244.779312,84.036354 
	C246.628372,81.719536 248.113602,79.858574 249.598816,77.997620 
	C249.572784,78.600998 249.546738,79.204376 249.520691,79.807755 
	C251.793060,81.158127 254.065430,82.508492 256.696381,83.925354 
	C257.301880,84.478813 257.548828,84.965759 257.979797,86.044228 
	C259.788116,88.415474 261.412384,90.195206 263.036682,91.974930 
	C263.681824,92.762253 264.326965,93.549576 264.659058,94.649750 
	C262.158234,94.044182 259.970459,93.125763 259.139038,92.776733 
	C255.253983,93.680321 252.432114,94.822479 249.578232,94.909012 
	C241.120407,95.165459 232.629669,94.662994 224.193695,95.163651 
	C220.393707,95.389175 216.597473,97.086624 213.087402,98.730782 
	C212.713623,98.905869 214.297607,103.212219 214.924927,105.614685 
	C215.046631,106.080811 214.942886,106.605812 214.943130,107.103653 
	C212.852249,104.854233 210.710007,102.649666 208.691223,100.337288 
	C207.613525,99.102859 206.896164,97.538879 205.760101,96.373215 
	C202.591629,93.122124 201.199341,93.618027 198.582504,97.313179 
	C193.845428,104.002327 188.712540,110.411163 183.418610,116.648010 
	C183.970367,114.236908 185.179169,112.178940 185.607468,109.969666 
	C185.882492,108.550957 185.347900,106.675392 184.511856,105.462616 
	C184.066895,104.817154 182.203888,105.015182 180.988815,105.057655 
	C175.464539,105.250786 169.703247,106.593414 164.497330,105.426041 
	C160.417618,104.511200 158.547852,105.326134 156.445099,109.409126 
	C155.339264,107.177208 154.873550,105.640617 153.932816,104.493629 
	C152.823746,103.141396 151.303467,102.126419 149.961472,100.965225 
	C150.597321,99.202103 151.233170,97.438988 152.341461,95.327637 
	C158.266541,94.415825 157.850067,89.183113 159.977768,85.974411 
	C159.977768,85.974411 159.993713,85.984917 159.982590,85.980286 
z" />
	<path fill="#FC743C" opacity="1.000000" stroke="none" d="
M149.974915,100.974091 
	C151.303467,102.126419 152.823746,103.141396 153.932816,104.493629 
	C154.873550,105.640617 155.339264,107.177208 156.445099,109.409126 
	C158.547852,105.326134 160.417618,104.511200 164.497330,105.426041 
	C169.703247,106.593414 175.464539,105.250786 180.988815,105.057655 
	C182.203888,105.015182 184.066895,104.817154 184.511856,105.462616 
	C185.347900,106.675392 185.882492,108.550957 185.607468,109.969666 
	C185.179169,112.178940 183.970367,114.236908 183.089539,116.745087 
	C177.639786,124.368752 172.192810,131.606339 166.260010,138.716461 
	C166.477966,137.212097 167.596146,135.888229 167.780823,134.444931 
	C168.012512,132.634323 167.736359,129.184647 167.235077,129.100861 
	C162.822083,128.363342 158.250061,127.630447 153.846725,128.082077 
	C150.332977,128.442459 147.555206,129.018921 144.136887,126.795746 
	C137.719437,122.621994 136.373810,123.899384 134.740341,131.591843 
	C134.224930,134.019089 130.949753,135.860291 128.937622,137.969696 
	C134.103271,128.453293 139.268890,118.936867 144.981491,109.303864 
	C146.459274,110.473412 147.390106,111.759521 148.320923,113.045639 
	C148.871353,112.820656 149.421783,112.595680 149.972214,112.370705 
	C149.972214,108.571892 149.972214,104.773079 149.972214,100.974266 
	C149.972214,100.974266 149.988342,100.982964 149.974915,100.974091 
z" />
	<path fill="#FD6F36" opacity="1.000000" stroke="none" d="
M128.744934,138.224411 
	C130.949753,135.860291 134.224930,134.019089 134.740341,131.591843 
	C136.373810,123.899384 137.719437,122.621994 144.136887,126.795746 
	C147.555206,129.018921 150.332977,128.442459 153.846725,128.082077 
	C158.250061,127.630447 162.822083,128.363342 167.235077,129.100861 
	C167.736359,129.184647 168.012512,132.634323 167.780823,134.444931 
	C167.596146,135.888229 166.477966,137.212097 165.953171,138.840576 
	C162.322418,144.353012 158.512665,149.613846 154.399887,155.022003 
	C154.860519,153.071533 155.717957,151.001724 156.355606,148.866287 
	C156.797379,147.386826 157.633011,145.350830 157.010941,144.420822 
	C156.410614,143.523331 154.176834,143.624969 152.642242,143.470917 
	C150.954865,143.301514 149.245667,143.359619 147.547562,143.283401 
	C146.393845,143.231628 145.237900,143.004639 144.091522,143.054184 
	C139.519562,143.251816 131.893539,142.281967 128.222794,140.957901 
	C128.077682,140.099167 128.314957,139.289154 128.744934,138.224411 
z" />
	<path fill="#FE7B3F" opacity="1.000000" stroke="none" d="
M149.687271,101.156540 
	C149.972214,104.773079 149.972214,108.571892 149.972214,112.370705 
	C149.421783,112.595680 148.871353,112.820656 148.320923,113.045639 
	C147.390106,111.759521 146.459274,110.473412 145.208862,109.057693 
	C146.393616,106.398331 147.897980,103.868568 149.687271,101.156540 
z" />
	<path fill="#FB864B" opacity="1.000000" stroke="none" d="
M173.821869,61.052834 
	C175.147156,64.930740 172.757187,69.364151 168.311737,71.119827 
	C168.983673,68.932312 169.939987,66.846916 170.985962,64.426254 
	C171.377579,63.594704 171.679535,63.098427 172.226334,62.175289 
	C172.684509,61.542225 172.876526,61.317776 173.047226,61.075077 
	C173.219330,61.068932 173.391449,61.062790 173.821869,61.052834 
z" />
	<path fill="#FE7F43" opacity="1.000000" stroke="none" d="
M159.644943,86.055344 
	C157.850067,89.183113 158.266541,94.415825 152.437439,94.987366 
	C154.478012,92.042320 156.895065,89.089302 159.644943,86.055344 
z" />
	<path fill="#FD5722" opacity="1.000000" stroke="none" d="
M298.056641,248.969269 
	C294.996857,238.971634 291.937103,228.973984 288.895630,218.169922 
	C288.498169,215.091492 288.197235,212.790649 287.636749,210.554871 
	C286.972504,207.905228 287.679932,206.216064 290.546600,206.096909 
	C299.457428,205.726471 308.382111,205.101883 317.281097,205.338791 
	C320.605408,205.427277 323.070099,205.873978 323.511261,202.587891 
	C326.139679,204.423950 328.654694,206.180786 331.169678,207.937622 
	C332.428162,211.337372 333.686646,214.737122 335.066040,218.804138 
	C335.765839,220.018402 336.344666,220.565430 336.923492,221.112457 
	C336.923492,221.112457 336.978851,221.489822 336.995514,221.678253 
	C337.018829,224.277847 337.025482,226.689026 336.647217,229.467636 
	C329.237732,228.891541 322.234467,227.641891 315.178406,227.151428 
	C312.256042,226.948288 309.235779,228.450424 306.229401,229.013519 
	C305.029480,229.238266 303.586670,229.392059 302.532074,228.936050 
	C299.424164,227.592255 298.369781,229.411346 298.227081,231.787430 
	C298.039551,234.909698 298.523865,238.066101 298.519653,241.207565 
	C298.516174,243.794998 298.221985,246.382050 298.056641,248.969269 
z" />
	<path fill="#FE511C" opacity="1.000000" stroke="none" d="
M298.036438,249.358856 
	C298.221985,246.382050 298.516174,243.794998 298.519653,241.207565 
	C298.523865,238.066101 298.039551,234.909698 298.227081,231.787430 
	C298.369781,229.411346 299.424164,227.592255 302.532074,228.936050 
	C303.586670,229.392059 305.029480,229.238266 306.229401,229.013519 
	C309.235779,228.450424 312.256042,226.948288 315.178406,227.151428 
	C322.234467,227.641891 329.237732,228.891541 336.644104,229.914642 
	C337.025879,229.994202 337.033173,230.472549 337.116394,231.004135 
	C337.797882,232.023621 338.396179,232.511520 338.994446,232.999405 
	C339.989685,240.693024 340.984924,248.386627 341.962494,256.542664 
	C340.476593,254.829086 339.008331,252.653076 337.451538,250.345810 
	C334.536896,255.266235 329.146698,254.115601 324.164520,253.914001 
	C317.650604,253.650421 311.155151,252.932358 304.641296,252.660004 
	C303.609711,252.616882 302.523102,253.888870 300.891846,254.778778 
	C299.871796,254.993866 299.421814,254.983002 298.971832,254.972137 
	C298.653320,253.230896 298.334778,251.489655 298.036438,249.358856 
z" />
	<path fill="#FD5722" opacity="1.000000" stroke="none" d="
M338.903229,232.712509 
	C338.396179,232.511520 337.797882,232.023621 337.114258,231.243317 
	C337.623291,231.442490 338.217621,231.934052 338.903229,232.712509 
z" />
	<path fill="#FD5F29" opacity="1.000000" stroke="none" d="
M331.133606,207.561539 
	C328.654694,206.180786 326.139679,204.423950 323.511261,202.587891 
	C323.070099,205.873978 320.605408,205.427277 317.281097,205.338791 
	C308.382111,205.101883 299.457428,205.726471 290.546600,206.096909 
	C287.679932,206.216064 286.972504,207.905228 287.636749,210.554871 
	C288.197235,212.790649 288.498169,215.091492 288.883118,217.789902 
	C284.915955,210.733170 280.979645,203.250046 277.184326,195.123322 
	C276.035858,190.736740 274.800690,186.973801 273.433075,183.259628 
	C272.793243,181.521973 271.897583,179.878525 271.589020,179.211227 
	C278.271698,179.489410 284.402283,179.710419 290.529022,180.009750 
	C296.119110,180.282883 302.181641,178.327621 306.793915,184.167023 
	C308.693207,179.738495 309.200439,174.763916 315.008667,174.998169 
	C315.019348,176.370850 315.030029,177.743546 315.089844,179.844177 
	C315.777832,181.375031 316.416656,182.177917 317.055511,182.980804 
	C319.448120,185.279572 321.840698,187.578339 324.544617,190.004028 
	C326.936493,195.815796 329.016998,201.500626 331.133606,207.561539 
z" />
	<path fill="#FD6F36" opacity="1.000000" stroke="none" d="
M246.989349,150.005051 
	C244.090546,146.229599 241.191711,142.454147 238.104919,138.002441 
	C236.618454,134.334427 235.086029,131.416122 234.114380,128.321732 
	C233.581924,126.625999 233.386017,124.272102 234.197388,122.900742 
	C234.740097,121.983444 237.838760,121.465675 238.906067,122.151138 
	C246.100723,126.771820 254.018112,124.549324 261.625946,124.948578 
	C266.190552,125.188126 270.981628,125.828911 274.412567,121.369064 
	C274.863129,120.783371 276.696381,121.261353 277.889221,121.246696 
	C277.821320,122.307480 277.989380,123.457962 277.628448,124.407310 
	C277.129395,125.719879 276.231934,126.880966 275.505066,128.106934 
	C276.002319,128.451172 276.499573,128.795425 276.996826,129.139664 
	C279.346405,126.416183 281.696014,123.692703 284.045624,120.969223 
	C284.307770,121.453568 284.569946,121.937904 284.904175,123.043777 
	C283.913818,127.271996 284.848724,129.360977 289.021820,128.989456 
	C289.021820,128.989456 289.085571,129.391464 289.104126,129.592285 
	C290.562042,133.070251 291.752777,136.496597 293.580109,139.540817 
	C294.191437,140.559219 296.428284,140.601868 298.301575,141.131348 
	C298.980774,141.965698 299.280487,142.759247 299.742645,143.827393 
	C299.905090,144.102020 299.880493,144.563187 299.501648,144.818024 
	C296.069611,145.976974 293.224701,146.399994 291.585907,142.655823 
	C291.351105,142.119370 290.209991,141.663452 289.511414,141.694244 
	C280.928528,142.072815 272.337494,142.392975 263.775940,143.072662 
	C260.070862,143.366791 256.428802,144.454788 252.758118,145.182175 
	C252.304886,146.114380 251.833221,145.662109 251.278030,145.366776 
	C250.078201,144.728485 248.835526,144.170715 247.610382,143.580002 
	C247.292099,144.898376 246.869354,146.203125 246.694916,147.540268 
	C246.591156,148.335510 246.878082,149.181747 246.989349,150.005051 
z" />
	<path fill="#FD6B32" opacity="1.000000" stroke="none" d="
M246.994064,150.003174 
	C246.878082,149.181747 246.591156,148.335510 246.694916,147.540268 
	C246.869354,146.203125 247.292099,144.898376 247.610382,143.580002 
	C248.835526,144.170715 250.078201,144.728485 251.278030,145.366776 
	C251.833221,145.662109 252.304886,146.114380 252.758118,145.182175 
	C256.428802,144.454788 260.070862,143.366791 263.775940,143.072662 
	C272.337494,142.392975 280.928528,142.072815 289.511414,141.694244 
	C290.209991,141.663452 291.351105,142.119370 291.585907,142.655823 
	C293.224701,146.399994 296.069611,145.976974 299.489044,145.048584 
	C302.174255,149.420639 304.471161,153.828827 306.823151,158.207413 
	C307.755798,159.943726 308.810791,161.614334 309.532654,163.568420 
	C305.062561,162.373062 300.928375,160.704788 296.653168,159.565872 
	C294.449951,158.978943 291.995789,159.333893 289.655029,159.263245 
	C287.524597,159.328125 285.303009,160.556747 282.956390,160.881424 
	C278.361237,161.517242 273.699066,161.692505 269.059723,161.979034 
	C262.175110,162.404251 260.547333,165.819748 264.190125,171.881973 
	C265.105255,173.404922 265.331146,175.342026 265.873810,177.088806 
	C260.990692,169.981812 256.107574,162.874817 251.010498,155.153275 
	C250.210541,154.022247 249.624512,153.505753 249.038498,152.989273 
	C249.038498,152.989273 249.003479,152.997025 248.975555,152.654037 
	C248.296967,151.544052 247.646286,150.777054 246.995605,150.010071 
	C246.995605,150.010071 246.998779,150.001312 246.994064,150.003174 
z" />
	<path fill="#FE652D" opacity="1.000000" stroke="none" d="
M265.981079,177.418335 
	C265.331146,175.342026 265.105255,173.404922 264.190125,171.881973 
	C260.547333,165.819748 262.175110,162.404251 269.059723,161.979034 
	C273.699066,161.692505 278.361237,161.517242 282.956390,160.881424 
	C285.303009,160.556747 287.524597,159.328125 289.655029,159.263245 
	C291.995789,159.333893 294.449951,158.978943 296.653168,159.565872 
	C300.928375,160.704788 305.062561,162.373062 309.600098,163.909271 
	C310.133636,165.537369 310.322205,167.078217 310.823975,169.042572 
	C311.759094,169.637512 312.381012,169.808914 313.002960,169.980331 
	C313.659546,171.418869 314.316101,172.857422 314.990662,174.647064 
	C309.200439,174.763916 308.693207,179.738495 306.793915,184.167023 
	C302.181641,178.327621 296.119110,180.282883 290.529022,180.009750 
	C284.402283,179.710419 278.271698,179.489410 271.589020,179.211227 
	C271.897583,179.878525 272.793243,181.521973 273.433075,183.259628 
	C274.800690,186.973801 276.035858,190.736740 277.107483,194.771576 
	C273.289246,189.291565 269.688812,183.519699 265.981079,177.418335 
z" />
	<path fill="#FE652D" opacity="1.000000" stroke="none" d="
M317.016846,182.650879 
	C316.416656,182.177917 315.777832,181.375031 315.084930,180.255936 
	C315.679962,180.733459 316.329071,181.527191 317.016846,182.650879 
z" />
	<path fill="#FD6B32" opacity="1.000000" stroke="none" d="
M312.789062,169.794052 
	C312.381012,169.808914 311.759094,169.637512 311.072998,169.224045 
	C311.530945,169.190598 312.053040,169.399185 312.789062,169.794052 
z" />
	<path fill="#FD3404" opacity="1.000000" stroke="none" d="
M136.201294,372.294312 
	C136.803055,371.897095 137.613602,371.816162 138.408173,371.655884 
	C146.312363,370.061432 146.424713,370.113495 149.911041,377.644775 
	C145.466553,376.192932 140.934631,374.383362 136.201294,372.294312 
z" />
	<path fill="#FD3808" opacity="1.000000" stroke="none" d="
M110.731857,355.007904 
	C112.496910,355.606781 114.117081,356.927460 115.473648,356.696930 
	C120.989433,355.759644 122.268913,358.581604 121.986588,363.608826 
	C118.983398,362.626953 115.984932,361.232513 112.636887,359.754333 
	C111.560127,358.339417 110.832954,357.008301 110.019882,355.360046 
	C110.111244,355.034149 110.288506,355.025360 110.731857,355.007904 
z" />
	<path fill="#FD3807" opacity="1.000000" stroke="none" d="
M159.216614,381.253906 
	C162.452911,380.672577 166.411850,378.841736 167.982071,384.433228 
	C167.849319,384.804688 167.680984,384.843323 167.257675,384.926636 
	C167.002686,384.971313 166.539261,384.884399 166.307251,384.842255 
	C165.265945,384.532227 164.456650,384.264374 163.322617,383.975464 
	C161.811432,383.125824 160.625000,382.297211 159.216614,381.253906 
z" />
	<path fill="#FD3404" opacity="1.000000" stroke="none" d="
M155.206146,380.201477 
	C155.615997,380.172058 156.237534,380.330627 156.927612,380.724243 
	C156.470032,380.769379 155.943924,380.579437 155.206146,380.201477 
z" />
	<path fill="#FD783D" opacity="1.000000" stroke="none" d="
M215.012634,107.370224 
	C214.942886,106.605812 215.046631,106.080811 214.924927,105.614685 
	C214.297607,103.212219 212.713623,98.905869 213.087402,98.730782 
	C216.597473,97.086624 220.393707,95.389175 224.193695,95.163651 
	C232.629669,94.662994 241.120407,95.165459 249.578232,94.909012 
	C252.432114,94.822479 255.253983,93.680321 259.139038,92.776733 
	C259.970459,93.125763 262.158234,94.044182 264.732880,94.955017 
	C268.326782,98.804314 271.518250,102.674370 274.752716,106.508087 
	C275.486633,107.377953 276.369843,108.121826 277.486115,109.053871 
	C277.873901,109.868088 277.959869,110.552124 277.698730,111.592484 
	C275.526917,111.860947 273.702728,111.759171 271.877350,111.689430 
	C270.281311,111.628441 268.499115,112.046387 267.124451,111.472954 
	C263.996124,110.167953 261.067566,108.384064 258.277374,106.910744 
	C256.925537,108.620522 255.748398,111.486893 254.429123,111.553894 
	C245.968292,111.983551 237.461166,112.106323 229.000763,111.689735 
	C224.627548,111.474403 220.319107,109.943596 215.981400,109.007141 
	C215.681641,108.550362 215.381882,108.093575 215.012634,107.370224 
z" />
	<path fill="#FE7F43" opacity="1.000000" stroke="none" d="
M262.966492,91.630524 
	C261.412384,90.195206 259.788116,88.415474 258.095337,86.291939 
	C259.649994,87.727463 261.273132,89.506790 262.966492,91.630524 
z" />
	<path fill="#FD5722" opacity="1.000000" stroke="none" d="
M55.809891,245.292786 
	C55.907089,246.253860 55.806187,247.502563 55.430412,248.881409 
	C55.307625,247.867828 55.459705,246.724136 55.809891,245.292786 
z" />
	<path fill="#E3562F" opacity="1.000000" stroke="none" d="
M336.859802,220.805603 
	C336.344666,220.565430 335.765839,220.018402 335.122864,219.162659 
	C335.637848,219.402206 336.216949,219.950485 336.859802,220.805603 
z" />
	<path fill="#FD3808" opacity="1.000000" stroke="none" d="
M108.131859,354.206055 
	C108.247528,354.194519 108.485481,354.394379 108.849609,354.801453 
	C108.730392,354.818268 108.489853,354.621185 108.131859,354.206055 
z" />
	<path fill="#FC743C" opacity="1.000000" stroke="none" d="
M216.095642,109.321671 
	C220.319107,109.943596 224.627548,111.474403 229.000763,111.689735 
	C237.461166,112.106323 245.968292,111.983551 254.429123,111.553894 
	C255.748398,111.486893 256.925537,108.620522 258.277374,106.910744 
	C261.067566,108.384064 263.996124,110.167953 267.124451,111.472954 
	C268.499115,112.046387 270.281311,111.628441 271.877350,111.689430 
	C273.702728,111.759171 275.526917,111.860947 277.715576,111.937950 
	C278.482147,111.982887 278.884796,112.038689 279.590088,112.129791 
	C280.034241,112.426102 280.212158,112.659309 280.589661,113.011963 
	C281.752594,115.551544 282.752441,117.943863 283.898987,120.652702 
	C281.696014,123.692703 279.346405,126.416183 276.996826,129.139664 
	C276.499573,128.795425 276.002319,128.451172 275.505066,128.106934 
	C276.231934,126.880966 277.129395,125.719879 277.628448,124.407310 
	C277.989380,123.457962 277.821320,122.307480 277.889221,121.246696 
	C276.696381,121.261353 274.863129,120.783371 274.412567,121.369064 
	C270.981628,125.828911 266.190552,125.188126 261.625946,124.948578 
	C254.018112,124.549324 246.100723,126.771820 238.906067,122.151138 
	C237.838760,121.465675 234.740097,121.983444 234.197388,122.900742 
	C233.386017,124.272102 233.581924,126.625999 234.114380,128.321732 
	C235.086029,131.416122 236.618454,134.334427 237.924103,137.718719 
	C230.690796,128.619568 223.450333,119.127892 216.095642,109.321671 
z" />
	<path fill="#FC743C" opacity="1.000000" stroke="none" d="
M288.950439,128.657898 
	C284.848724,129.360977 283.913818,127.271996 285.012543,123.297012 
	C286.325562,124.727928 287.602295,126.527145 288.950439,128.657898 
z" />
	<path fill="#E58258" opacity="1.000000" stroke="none" d="
M172.867737,61.208164 
	C172.876526,61.317776 172.684509,61.542225 172.305145,61.894119 
	C172.280121,61.773899 172.463165,61.541046 172.867737,61.208164 
z" />
	<path fill="#ED4614" opacity="1.000000" stroke="none" d="
M229.247833,346.734741 
	C221.637985,347.981659 214.275620,348.987274 205.989594,349.991943 
	C203.263412,349.989441 201.432327,350.190186 199.664856,349.940521 
	C196.742416,349.527771 193.860992,348.824554 190.962296,348.243744 
	C199.711792,347.654724 208.546768,347.640778 217.192764,346.355560 
	C234.576523,343.771362 250.036942,336.291168 264.568298,325.997498 
	C264.892273,325.889313 264.989258,325.990936 264.958069,326.340363 
	C264.621155,327.458588 264.315430,328.227386 264.009705,328.996185 
	C261.481384,330.692657 259.011719,332.485413 256.413452,334.066956 
	C249.447098,338.307373 242.379105,342.306213 234.242462,344.015900 
	C232.560806,344.369263 231.072647,345.643585 229.247833,346.734741 
z" />
	<path fill="#ED4614" opacity="1.000000" stroke="none" d="
M175.021866,347.989258 
	C173.278976,347.657043 171.536102,347.324829 169.396027,346.990356 
	C164.171051,345.291473 159.303696,343.698486 154.524963,341.873444 
	C147.711197,339.271210 141.395203,335.879883 137.029648,329.339111 
	C143.195358,332.485260 149.055145,336.928711 155.660248,339.264435 
	C165.910385,342.889069 176.668289,345.077789 187.261200,348.172852 
	C183.214935,348.310028 179.118393,348.149658 175.021866,347.989258 
z" />
	<path fill="#FD3807" opacity="1.000000" stroke="none" d="
M174.787598,348.221008 
	C179.118393,348.149658 183.214935,348.310028 187.658646,348.266083 
	C188.748077,348.073486 189.490326,348.085236 190.597443,348.170349 
	C193.860992,348.824554 196.742416,349.527771 199.664856,349.940521 
	C201.432327,350.190186 203.263412,349.989441 205.530930,349.996155 
	C204.058487,350.985474 202.171356,352.688538 200.174789,352.828339 
	C191.967178,353.402863 183.727036,353.534821 175.496490,353.727631 
	C174.630173,353.747925 173.748138,353.097046 172.873383,352.757568 
	C173.433350,351.322662 173.993332,349.887726 174.787598,348.221008 
z" />
	<path fill="#ED4614" opacity="1.000000" stroke="none" d="
M119.931274,311.632202 
	C114.737228,310.097046 112.404999,306.104797 112.070282,300.300232 
	C114.662651,303.697693 117.232391,307.501221 119.931274,311.632202 
z" />
	<path fill="#ED4614" opacity="1.000000" stroke="none" d="
M298.939819,255.420898 
	C299.421814,254.983002 299.871796,254.993866 300.659058,255.011215 
	C300.239349,260.559387 299.482330,266.101105 298.391632,271.825195 
	C298.341217,266.628265 298.624481,261.248962 298.939819,255.420898 
z" />
	<path fill="#ED4614" opacity="1.000000" stroke="none" d="
M136.859512,328.701050 
	C135.263580,328.710785 133.513794,328.423492 131.393677,328.056702 
	C130.040329,325.869720 129.057297,323.762207 128.064499,321.291504 
	C130.938385,323.420227 133.822021,325.912079 136.859512,328.701050 
z" />
	<path fill="#ED4614" opacity="1.000000" stroke="none" d="
M127.926216,320.641479 
	C123.128059,320.397522 121.044075,317.075958 120.050415,312.313904 
	C122.620636,314.740265 125.200455,317.539764 127.926216,320.641479 
z" />
	<path fill="#FD6F36" opacity="1.000000" stroke="none" d="
M247.059723,150.313629 
	C247.646286,150.777054 248.296967,151.544052 248.981323,152.637054 
	C248.384628,152.181107 247.754242,151.399139 247.059723,150.313629 
z" />
	<path fill="#FD6F36" opacity="1.000000" stroke="none" d="
M249.118851,153.281540 
	C249.624512,153.505753 250.210541,154.022247 250.865463,154.843048 
	C250.355988,154.622864 249.777588,154.098328 249.118851,153.281540 
z" />
	<path fill="#FA4010" opacity="1.000000" stroke="none" d="
M264.388214,328.990356 
	C264.315430,328.227386 264.621155,327.458588 265.006470,326.391296 
	C267.493530,324.778656 269.901001,323.464539 272.642456,322.067932 
	C271.735443,326.072754 269.064819,328.483124 264.388214,328.990356 
z" />
	<path fill="#FA4010" opacity="1.000000" stroke="none" d="
M286.954865,318.997284 
	C286.739105,319.711731 286.337372,320.229736 285.935669,320.747711 
	C285.554443,320.333282 285.173248,319.918823 284.792053,319.504364 
	C285.450989,319.269867 286.109955,319.035370 286.954865,318.997284 
z" />
	<path fill="#FE3E0D" opacity="1.000000" stroke="none" d="
M124.448364,329.344147 
	C124.485870,330.137146 124.251610,330.845825 124.017349,331.554474 
	C123.529770,331.246063 123.042191,330.937653 122.554626,330.629211 
	C123.095284,330.172760 123.635941,329.716278 124.448364,329.344147 
z" />
	<path fill="#FD3807" opacity="1.000000" stroke="none" d="
M128.748871,355.440613 
	C128.190186,355.055115 127.885277,354.604523 127.580368,354.153961 
	C128.097778,354.019196 128.615204,353.884399 129.132614,353.749603 
	C129.089294,354.291565 129.045975,354.833557 128.748871,355.440613 
z" />
	<path fill="#FD3404" opacity="1.000000" stroke="none" d="
M249.181946,368.645691 
	C247.995590,369.471466 246.634857,370.014130 245.274139,370.556793 
	C245.090714,369.842529 244.907303,369.128296 244.723877,368.414032 
	C246.151764,368.396881 247.579651,368.379730 249.181946,368.645691 
z" />
	<path fill="#FD3404" opacity="1.000000" stroke="none" d="
M158.754745,373.560791 
	C159.045609,374.173157 159.084381,374.716095 159.123138,375.259003 
	C158.607788,375.116943 158.092438,374.974884 157.577118,374.832794 
	C157.885635,374.385651 158.194138,373.938507 158.754745,373.560791 
z" />
	<path fill="#FD5F29" opacity="1.000000" stroke="none" d="
M131.677078,178.962814 
	C131.890656,178.880814 132.099701,178.931137 132.308762,178.981476 
	C132.096695,179.019363 131.884628,179.057251 131.677078,178.962814 
z" />
</svg>