<svg version="1.1" id="Layer_1" xmlns="http://www.w3.org/2000/svg" xmlns:xlink="http://www.w3.org/1999/xlink" x="0px"
	y="0px" width="100%" viewBox="0 0 993 1024" enable-background="new 0 0 993 1024" xml:space="preserve">
	<path fill="none" opacity="1.000000" stroke="none" d="
M994.000000,279.000000 
	C994.000000,528.000000 994.000000,776.500000 994.000000,1025.000000 
	C663.000000,1025.000000 332.000000,1025.000000 1.000000,1025.000000 
	C1.000000,683.666687 1.000000,342.333344 1.000000,1.000000 
	C332.000000,1.000000 663.000000,1.000000 994.000000,1.000000 
	C994.000000,93.500000 994.000000,186.000000 994.000000,279.000000 
M361.276855,613.012146 
	C378.624054,621.916687 397.053070,626.903992 417.846741,627.641052 
	C411.425415,635.618042 405.900879,642.628418 400.212860,649.503601 
	C394.991486,655.814819 388.448883,660.495911 380.580170,662.689087 
	C368.411346,666.080872 356.122498,669.064087 343.822693,671.957764 
	C331.614471,674.829834 319.476196,677.823608 309.496429,685.989929 
	C297.806183,695.555847 296.511566,710.704834 307.002991,721.547424 
	C311.549225,726.245789 317.130768,730.240784 322.867279,733.430969 
	C337.992554,741.842285 354.810120,744.734009 371.751068,746.515930 
	C402.149414,749.713257 431.254364,745.385742 458.001862,729.797974 
	C465.696930,725.313538 472.823242,719.853210 480.819672,714.426758 
	C480.819672,716.603516 480.825928,718.514160 480.818756,720.424805 
	C480.625214,771.908997 481.270844,823.359497 486.010101,874.683960 
	C488.344482,899.964600 493.543610,924.257507 506.573578,946.536560 
	C526.463806,980.545349 555.591797,998.331848 595.182800,997.815674 
	C623.571045,997.445618 650.499695,990.281677 676.146851,978.345581 
	C698.981934,967.718201 716.204590,951.125000 727.490662,928.530029 
	C734.610657,914.275757 739.632568,899.204041 741.897827,883.517456 
	C748.894104,835.069153 755.368652,786.544983 761.933350,738.035156 
	C763.549316,726.093445 764.737854,714.093933 766.138916,701.982849 
	C767.853577,702.417175 768.974915,702.719666 770.104980,702.984741 
	C794.692627,708.752808 819.364929,707.220886 844.103821,704.067383 
	C882.499878,699.172852 916.546631,684.587585 945.687012,658.959412 
	C952.612366,652.868774 958.698425,646.031067 962.182068,637.287903 
	C967.677612,623.495483 960.671082,609.910950 945.981873,608.252930 
	C937.078369,607.247864 927.717773,608.198669 918.810669,609.722107 
	C894.481323,613.883301 870.215637,618.183594 845.385498,615.903931 
	C835.757629,615.019897 826.300232,613.296875 817.791199,607.541077 
	C818.817017,605.883728 819.668030,604.474487 820.551758,603.086121 
	C879.606567,510.306702 923.377930,411.024658 947.393921,303.447266 
	C956.165833,264.154297 961.793884,224.444031 958.005676,184.005753 
	C956.100586,163.668732 951.033630,144.475494 937.611633,128.136307 
	C901.930298,84.699852 857.177795,55.012531 803.008545,40.347504 
	C732.972656,21.386976 663.516418,26.301054 594.757690,47.711792 
	C592.684387,48.357410 590.175415,48.454849 588.057312,47.976505 
	C562.440369,42.191216 536.553894,39.315784 510.265442,39.820164 
	C470.458740,40.583904 433.211090,49.951393 399.479218,71.763748 
	C397.982849,72.731331 395.381104,72.927025 393.622681,72.395592 
	C384.068329,69.508110 374.696167,66.008545 365.117432,63.212677 
	C313.311951,48.091545 260.723175,38.798290 206.463181,42.903030 
	C176.587173,45.163132 147.962158,52.157860 121.499512,66.660385 
	C78.657852,90.139229 52.994587,126.983887 40.203327,173.210236 
	C26.604700,222.354324 26.226068,272.187073 34.528526,322.267944 
	C44.832451,384.421783 59.295353,445.618469 77.226715,505.985840 
	C92.170998,556.296997 109.164864,605.868225 133.814163,652.436157 
	C145.784180,675.050171 159.343628,696.613281 178.630219,713.875061 
	C194.409302,727.997620 212.274033,736.812256 234.202606,732.786865 
	C251.335678,729.641846 264.789459,719.885132 276.067627,707.197693 
	C299.750092,680.556091 323.060333,653.583862 346.638947,626.849304 
	C351.001953,621.902283 355.908691,617.434875 361.276855,613.012146 
z" />
	<path fill="#FCFDFD" opacity="1.000000" stroke="none" d="
M360.920685,612.879150 
	C355.908691,617.434875 351.001953,621.902283 346.638947,626.849304 
	C323.060333,653.583862 299.750092,680.556091 276.067627,707.197693 
	C264.789459,719.885132 251.335678,729.641846 234.202606,732.786865 
	C212.274033,736.812256 194.409302,727.997620 178.630219,713.875061 
	C159.343628,696.613281 145.784180,675.050171 133.814163,652.436157 
	C109.164864,605.868225 92.170998,556.296997 77.226715,505.985840 
	C59.295353,445.618469 44.832451,384.421783 34.528526,322.267944 
	C26.226068,272.187073 26.604700,222.354324 40.203327,173.210236 
	C52.994587,126.983887 78.657852,90.139229 121.499512,66.660385 
	C147.962158,52.157860 176.587173,45.163132 206.463181,42.903030 
	C260.723175,38.798290 313.311951,48.091545 365.117432,63.212677 
	C374.696167,66.008545 384.068329,69.508110 393.622681,72.395592 
	C395.381104,72.927025 397.982849,72.731331 399.479218,71.763748 
	C433.211090,49.951393 470.458740,40.583904 510.265442,39.820164 
	C536.553894,39.315784 562.440369,42.191216 588.057312,47.976505 
	C590.175415,48.454849 592.684387,48.357410 594.757690,47.711792 
	C663.516418,26.301054 732.972656,21.386976 803.008545,40.347504 
	C857.177795,55.012531 901.930298,84.699852 937.611633,128.136307 
	C951.033630,144.475494 956.100586,163.668732 958.005676,184.005753 
	C961.793884,224.444031 956.165833,264.154297 947.393921,303.447266 
	C923.377930,411.024658 879.606567,510.306702 820.551758,603.086121 
	C819.668030,604.474487 818.817017,605.883728 817.791199,607.541077 
	C826.300232,613.296875 835.757629,615.019897 845.385498,615.903931 
	C870.215637,618.183594 894.481323,613.883301 918.810669,609.722107 
	C927.717773,608.198669 937.078369,607.247864 945.981873,608.252930 
	C960.671082,609.910950 967.677612,623.495483 962.182068,637.287903 
	C958.698425,646.031067 952.612366,652.868774 945.687012,658.959412 
	C916.546631,684.587585 882.499878,699.172852 844.103821,704.067383 
	C819.364929,707.220886 794.692627,708.752808 770.104980,702.984741 
	C768.974915,702.719666 767.853577,702.417175 766.138916,701.982849 
	C764.737854,714.093933 763.549316,726.093445 761.933350,738.035156 
	C755.368652,786.544983 748.894104,835.069153 741.897827,883.517456 
	C739.632568,899.204041 734.610657,914.275757 727.490662,928.530029 
	C716.204590,951.125000 698.981934,967.718201 676.146851,978.345581 
	C650.499695,990.281677 623.571045,997.445618 595.182800,997.815674 
	C555.591797,998.331848 526.463806,980.545349 506.573578,946.536560 
	C493.543610,924.257507 488.344482,899.964600 486.010101,874.683960 
	C481.270844,823.359497 480.625214,771.908997 480.818756,720.424805 
	C480.825928,718.514160 480.819672,716.603516 480.819672,714.426758 
	C472.823242,719.853210 465.696930,725.313538 458.001862,729.797974 
	C431.254364,745.385742 402.149414,749.713257 371.751068,746.515930 
	C354.810120,744.734009 337.992554,741.842285 322.867279,733.430969 
	C317.130768,730.240784 311.549225,726.245789 307.002991,721.547424 
	C296.511566,710.704834 297.806183,695.555847 309.496429,685.989929 
	C319.476196,677.823608 331.614471,674.829834 343.822693,671.957764 
	C356.122498,669.064087 368.411346,666.080872 380.580170,662.689087 
	C388.448883,660.495911 394.991486,655.814819 400.212860,649.503601 
	C405.900879,642.628418 411.425415,635.618042 417.846741,627.641052 
	C397.053070,626.903992 378.624054,621.916687 360.920685,612.879150 
M516.853882,890.565796 
	C518.588135,906.844055 525.149048,921.349182 533.525146,935.110596 
	C547.409546,957.921814 567.709534,969.319641 594.536804,969.193298 
	C611.918274,969.111450 628.484558,964.895203 645.009766,960.168335 
	C680.567139,949.997559 703.048035,927.190979 710.881714,890.933716 
	C714.744507,873.055420 717.801819,854.956116 720.226746,836.823486 
	C726.120056,792.755310 731.665344,748.636841 736.857971,704.480652 
	C738.896790,687.143250 739.103333,669.592590 741.070435,652.244080 
	C743.682251,629.209412 755.450623,612.886414 778.233032,605.629456 
	C779.451782,605.241211 780.602173,604.638489 782.340637,603.899048 
	C780.953552,601.995300 779.821167,600.420166 778.667297,598.860840 
	C771.734924,589.491943 763.998779,580.603577 758.054321,570.645386 
	C749.708313,556.664062 742.942871,541.750305 735.057983,527.480469 
	C716.203857,493.358826 697.303162,459.267242 683.669861,422.604156 
	C674.224182,397.202942 666.881958,371.334320 667.172852,343.862640 
	C667.562012,307.113953 687.623047,281.188690 723.110840,271.702667 
	C742.201111,266.599792 761.613220,266.256012 781.153625,267.702545 
	C783.356079,267.865570 785.567322,267.910034 787.739258,268.007874 
	C787.739258,267.009003 787.817688,266.658234 787.725220,266.360626 
	C787.379517,265.248199 787.013245,264.139465 786.592224,263.053589 
	C769.908630,220.024933 745.272705,182.065994 712.490234,149.687271 
	C656.332092,94.220840 588.537720,67.233276 509.541565,68.560883 
	C486.503235,68.948059 464.162354,72.911018 442.735962,81.513374 
	C404.540344,96.848328 377.300934,124.210915 357.562164,159.640594 
	C337.994568,194.763107 327.638062,232.846741 321.927734,272.364441 
	C320.748627,280.524628 319.909576,288.733978 318.781219,298.010345 
	C322.005524,296.377686 324.176697,295.252655 326.369659,294.171783 
	C353.401154,280.848541 381.432098,271.504883 412.063843,271.821472 
	C449.299072,272.206299 476.291290,293.265656 484.980255,329.429810 
	C490.942139,354.243530 494.817444,379.414185 496.498932,404.891327 
	C499.073669,443.902405 495.622589,482.128815 480.894318,518.755249 
	C472.820251,538.833801 464.276489,558.724365 456.284760,578.834900 
	C452.937073,587.258972 450.471375,596.033508 447.668274,604.457642 
	C448.577423,604.996338 448.721802,605.155945 448.864044,605.154053 
	C449.684998,605.143005 450.511353,605.144531 451.325165,605.049927 
	C463.687042,603.612183 475.031769,606.882996 484.840302,614.034180 
	C502.668549,627.032532 510.437500,644.951172 510.328247,667.083740 
	C510.092316,714.892822 509.903931,762.719666 510.970306,810.510742 
	C511.559875,836.935486 514.723877,863.302795 516.853882,890.565796 
M285.532104,472.936768 
	C287.313385,453.538086 290.235443,434.160767 290.599152,414.735535 
	C291.100616,387.955414 289.627838,361.139954 289.077637,334.338043 
	C288.286163,295.784302 293.134918,257.881897 302.874817,220.624725 
	C313.347229,180.565613 329.543854,143.204178 356.131348,110.947975 
	C360.535767,105.604485 365.283081,100.543594 370.193604,94.988159 
	C367.904602,94.206184 366.083008,93.421204 364.182861,92.959541 
	C341.389008,87.421494 318.762115,80.983910 295.740417,76.644394 
	C258.534668,69.631248 220.981613,67.759735 183.493362,74.997795 
	C130.035233,85.319237 91.775269,114.425438 72.631668,166.357788 
	C57.437172,207.577103 55.224380,250.392731 59.672409,293.504761 
	C63.983780,335.292267 73.348747,376.272766 83.136604,417.086792 
	C97.751709,478.029785 114.947174,538.196777 139.116730,596.150146 
	C150.998993,624.641174 164.259338,652.448853 183.263290,677.065796 
	C190.525558,686.473022 198.639465,695.043945 209.209518,700.905151 
	C219.606857,706.670654 230.240662,706.953491 239.923019,700.169006 
	C247.065842,695.164062 253.684036,689.095398 259.509735,682.582764 
	C279.721191,659.987854 299.459717,636.970520 319.435303,614.163879 
	C324.771332,608.071594 330.310822,602.157471 335.869049,596.038147 
	C299.706055,562.916016 283.167664,522.233826 285.532104,472.936768 
M930.072571,225.429886 
	C930.020508,212.953018 930.567688,200.436920 929.754456,188.009857 
	C928.870850,174.508362 926.687439,160.938477 918.051819,149.849533 
	C888.132751,111.430565 850.029297,84.571945 803.435425,70.068611 
	C762.719299,57.394825 721.048340,55.145649 678.891235,59.426373 
	C666.406799,60.694069 654.010742,62.832561 641.574219,64.572021 
	C641.548767,65.010368 641.523376,65.448715 641.497925,65.887054 
	C643.231262,66.755058 645.006409,67.549095 646.691223,68.502792 
	C659.722778,75.879265 673.273315,82.488914 685.664124,90.821556 
	C741.410583,128.310349 781.031067,179.261078 808.215210,240.242645 
	C816.467163,258.753937 822.915894,277.707001 820.265137,298.610321 
	C818.361389,313.622528 817.487305,328.769867 815.420532,343.755768 
	C812.343567,366.066589 809.531799,388.309906 811.857849,410.914886 
	C814.311523,434.760345 817.135559,458.603912 818.440247,482.522369 
	C820.122925,513.373535 814.173706,542.919128 798.598511,569.968689 
	C795.784363,574.856140 797.295044,577.274414 801.079285,580.143127 
	C801.753357,579.204590 802.267029,578.568542 802.696533,577.879883 
	C851.305908,499.922119 888.321350,416.881409 912.050476,328.040833 
	C920.960266,294.683075 927.625549,260.908966 930.072571,225.429886 
M342.044037,561.428772 
	C362.580109,584.895874 388.006836,598.134583 417.953735,598.943848 
	C427.813538,574.048828 436.876312,549.912781 446.914459,526.189453 
	C456.110321,504.456573 464.027100,482.458221 466.842438,458.911713 
	C471.878204,416.794556 466.394989,375.443542 456.637421,334.598724 
	C451.554291,313.320953 437.494995,302.062744 415.503571,300.867645 
	C379.995331,298.938080 349.133362,312.459625 320.189178,331.402222 
	C318.900452,332.245667 318.018524,334.733307 318.063995,336.425110 
	C318.336975,346.578094 318.948395,356.721680 319.425323,366.869446 
	C320.922516,398.726349 319.842468,430.509338 315.463348,462.088867 
	C310.374420,498.787231 317.937988,531.903320 342.044037,561.428772 
M791.151733,307.543152 
	C791.300781,304.421173 791.449768,301.299194 791.636169,297.393188 
	C784.159363,296.850952 776.922729,296.088531 769.668945,295.848511 
	C753.621033,295.317566 737.678162,295.926483 722.502319,302.095764 
	C708.279541,307.877563 699.666748,318.211060 696.797058,333.398773 
	C693.683289,349.878632 696.341370,365.917755 700.463684,381.771515 
	C709.281921,415.684814 724.468750,446.978363 740.636414,477.839203 
	C751.909241,499.356720 763.222595,520.852966 774.533020,542.350769 
	C775.400879,544.000366 776.389282,545.586548 777.741333,547.929382 
	C784.213745,534.053711 787.604370,520.445618 789.056519,506.287018 
	C791.525269,482.216125 788.417236,458.424408 785.498535,434.629578 
	C782.633667,411.273590 780.837830,387.902679 783.845032,364.417908 
	C786.233215,345.766876 788.676147,327.122803 791.151733,307.543152 
M379.485199,693.013428 
	C363.787140,696.854614 348.089111,700.695862 332.391052,704.537048 
	C332.414612,705.067383 332.438171,705.597778 332.461700,706.128113 
	C334.478668,707.206848 336.442657,708.402283 338.521210,709.345337 
	C352.084320,715.498840 366.568268,717.656494 381.226379,718.532776 
	C419.375183,720.813354 451.138824,708.104858 475.068176,677.645325 
	C485.037781,664.955078 482.881195,647.572144 469.479706,638.280212 
	C458.040131,630.348511 452.840027,631.830933 445.440033,640.047668 
	C439.541260,646.597412 433.623627,653.209900 428.486969,660.350342 
	C416.364410,677.201721 400.293152,687.859924 379.485199,693.013428 
M849.505249,674.100159 
	C878.585022,668.801880 919.091553,649.365601 924.793335,637.719604 
	C922.965759,638.012207 921.338806,638.228882 919.729370,638.536926 
	C898.612549,642.579590 877.374512,645.467896 855.809204,645.106323 
	C838.862305,644.822205 821.823853,643.469360 807.171936,634.395264 
	C799.680481,629.755798 793.606873,630.409607 786.381775,633.017578 
	C777.655823,636.167358 772.159058,642.047485 770.151489,651.041382 
	C769.394775,654.431030 769.009766,657.936218 768.800659,661.409546 
	C768.083191,673.324829 768.322815,673.840271 780.190369,675.992126 
	C803.106812,680.147461 825.921082,678.231384 849.505249,674.100159 
z" />
	<path fill="#336791" opacity="1.000000" stroke="none" d="
M516.790649,890.130859 
	C514.723877,863.302795 511.559875,836.935486 510.970306,810.510742 
	C509.903931,762.719666 510.092316,714.892822 510.328247,667.083740 
	C510.437500,644.951172 502.668549,627.032532 484.840302,614.034180 
	C475.031769,606.882996 463.687042,603.612183 451.325165,605.049927 
	C450.511353,605.144531 449.684998,605.143005 448.864044,605.154053 
	C448.721802,605.155945 448.577423,604.996338 447.668274,604.457642 
	C450.471375,596.033508 452.937073,587.258972 456.284760,578.834900 
	C464.276489,558.724365 472.820251,538.833801 480.894318,518.755249 
	C495.622589,482.128815 499.073669,443.902405 496.498932,404.891327 
	C494.817444,379.414185 490.942139,354.243530 484.980255,329.429810 
	C476.291290,293.265656 449.299072,272.206299 412.063843,271.821472 
	C381.432098,271.504883 353.401154,280.848541 326.369659,294.171783 
	C324.176697,295.252655 322.005524,296.377686 318.781219,298.010345 
	C319.909576,288.733978 320.748627,280.524628 321.927734,272.364441 
	C327.638062,232.846741 337.994568,194.763107 357.562164,159.640594 
	C377.300934,124.210915 404.540344,96.848328 442.735962,81.513374 
	C464.162354,72.911018 486.503235,68.948059 509.541565,68.560883 
	C588.537720,67.233276 656.332092,94.220840 712.490234,149.687271 
	C745.272705,182.065994 769.908630,220.024933 786.592224,263.053589 
	C787.013245,264.139465 787.379517,265.248199 787.725220,266.360626 
	C787.817688,266.658234 787.739258,267.009003 787.739258,268.007874 
	C785.567322,267.910034 783.356079,267.865570 781.153625,267.702545 
	C761.613220,266.256012 742.201111,266.599792 723.110840,271.702667 
	C687.623047,281.188690 667.562012,307.113953 667.172852,343.862640 
	C666.881958,371.334320 674.224182,397.202942 683.669861,422.604156 
	C697.303162,459.267242 716.203857,493.358826 735.057983,527.480469 
	C742.942871,541.750305 749.708313,556.664062 758.054321,570.645386 
	C763.998779,580.603577 771.734924,589.491943 778.667297,598.860840 
	C779.821167,600.420166 780.953552,601.995300 782.340637,603.899048 
	C780.602173,604.638489 779.451782,605.241211 778.233032,605.629456 
	C755.450623,612.886414 743.682251,629.209412 741.070435,652.244080 
	C739.103333,669.592590 738.896790,687.143250 736.857971,704.480652 
	C731.665344,748.636841 726.120056,792.755310 720.226746,836.823486 
	C717.801819,854.956116 714.744507,873.055420 710.881714,890.933716 
	C703.048035,927.190979 680.567139,949.997559 645.009766,960.168335 
	C628.484558,964.895203 611.918274,969.111450 594.536804,969.193298 
	C567.709534,969.319641 547.409546,957.921814 533.525146,935.110596 
	C525.149048,921.349182 518.588135,906.844055 516.790649,890.130859 
z" />
	<path fill="#336791" opacity="1.000000" stroke="none" d="
M285.471039,473.399689 
	C283.167664,522.233826 299.706055,562.916016 335.869049,596.038147 
	C330.310822,602.157471 324.771332,608.071594 319.435303,614.163879 
	C299.459717,636.970520 279.721191,659.987854 259.509735,682.582764 
	C253.684036,689.095398 247.065842,695.164062 239.923019,700.169006 
	C230.240662,706.953491 219.606857,706.670654 209.209518,700.905151 
	C198.639465,695.043945 190.525558,686.473022 183.263290,677.065796 
	C164.259338,652.448853 150.998993,624.641174 139.116730,596.150146 
	C114.947174,538.196777 97.751709,478.029785 83.136604,417.086792 
	C73.348747,376.272766 63.983780,335.292267 59.672409,293.504761 
	C55.224380,250.392731 57.437172,207.577103 72.631668,166.357788 
	C91.775269,114.425438 130.035233,85.319237 183.493362,74.997795 
	C220.981613,67.759735 258.534668,69.631248 295.740417,76.644394 
	C318.762115,80.983910 341.389008,87.421494 364.182861,92.959541 
	C366.083008,93.421204 367.904602,94.206184 370.193604,94.988159 
	C365.283081,100.543594 360.535767,105.604485 356.131348,110.947975 
	C329.543854,143.204178 313.347229,180.565613 302.874817,220.624725 
	C293.134918,257.881897 288.286163,295.784302 289.077637,334.338043 
	C289.627838,361.139954 291.100616,387.955414 290.599152,414.735535 
	C290.235443,434.160767 287.313385,453.538086 285.471039,473.399689 
z" />
	<path fill="#346892" opacity="1.000000" stroke="none" d="
M930.047729,225.910034 
	C927.625549,260.908966 920.960266,294.683075 912.050476,328.040833 
	C888.321350,416.881409 851.305908,499.922119 802.696533,577.879883 
	C802.267029,578.568542 801.753357,579.204590 801.079285,580.143127 
	C797.295044,577.274414 795.784363,574.856140 798.598511,569.968689 
	C814.173706,542.919128 820.122925,513.373535 818.440247,482.522369 
	C817.135559,458.603912 814.311523,434.760345 811.857849,410.914886 
	C809.531799,388.309906 812.343567,366.066589 815.420532,343.755768 
	C817.487305,328.769867 818.361389,313.622528 820.265137,298.610321 
	C822.915894,277.707001 816.467163,258.753937 808.215210,240.242645 
	C781.031067,179.261078 741.410583,128.310349 685.664124,90.821556 
	C673.273315,82.488914 659.722778,75.879265 646.691223,68.502792 
	C645.006409,67.549095 643.231262,66.755058 641.497925,65.887054 
	C641.523376,65.448715 641.548767,65.010368 641.574219,64.572021 
	C654.010742,62.832561 666.406799,60.694069 678.891235,59.426373 
	C721.048340,55.145649 762.719299,57.394825 803.435425,70.068611 
	C850.029297,84.571945 888.132751,111.430565 918.051819,149.849533 
	C926.687439,160.938477 928.870850,174.508362 929.754456,188.009857 
	C930.567688,200.436920 930.020508,212.953018 930.047729,225.910034 
z" />
	<path fill="#346891" opacity="1.000000" stroke="none" d="
M341.813782,561.158264 
	C317.937988,531.903320 310.374420,498.787231 315.463348,462.088867 
	C319.842468,430.509338 320.922516,398.726349 319.425323,366.869446 
	C318.948395,356.721680 318.336975,346.578094 318.063995,336.425110 
	C318.018524,334.733307 318.900452,332.245667 320.189178,331.402222 
	C349.133362,312.459625 379.995331,298.938080 415.503571,300.867645 
	C437.494995,302.062744 451.554291,313.320953 456.637421,334.598724 
	C466.394989,375.443542 471.878204,416.794556 466.842438,458.911713 
	C464.027100,482.458221 456.110321,504.456573 446.914459,526.189453 
	C436.876312,549.912781 427.813538,574.048828 417.953735,598.943848 
	C388.006836,598.134583 362.580109,584.895874 341.813782,561.158264 
M441.779510,340.176208 
	C446.677979,332.830811 445.855865,327.417358 438.318512,323.063934 
	C426.411346,316.186737 413.533630,314.300476 400.252777,318.134003 
	C391.846863,320.560364 389.683228,326.879852 393.877869,334.568970 
	C404.112946,353.330688 426.612488,356.255188 441.779510,340.176208 
z" />
	<path fill="#356892" opacity="1.000000" stroke="none" d="
M791.123230,308.009399 
	C788.676147,327.122803 786.233215,345.766876 783.845032,364.417908 
	C780.837830,387.902679 782.633667,411.273590 785.498535,434.629578 
	C788.417236,458.424408 791.525269,482.216125 789.056519,506.287018 
	C787.604370,520.445618 784.213745,534.053711 777.741333,547.929382 
	C776.389282,545.586548 775.400879,544.000366 774.533020,542.350769 
	C763.222595,520.852966 751.909241,499.356720 740.636414,477.839203 
	C724.468750,446.978363 709.281921,415.684814 700.463684,381.771515 
	C696.341370,365.917755 693.683289,349.878632 696.797058,333.398773 
	C699.666748,318.211060 708.279541,307.877563 722.502319,302.095764 
	C737.678162,295.926483 753.621033,295.317566 769.668945,295.848511 
	C776.922729,296.088531 784.159363,296.850952 791.636169,297.393188 
	C791.449768,301.299194 791.300781,304.421173 791.123230,308.009399 
M741.220276,338.873688 
	C751.584656,337.458801 759.026489,331.810272 763.819275,322.733612 
	C766.570679,317.522919 765.204163,313.241516 759.779724,311.419952 
	C746.016907,306.798309 732.792542,308.805267 720.725220,316.665741 
	C715.641113,319.977417 715.488525,324.295593 719.443909,329.061249 
	C724.839111,335.561554 731.786865,339.016083 741.220276,338.873688 
z" />
	<path fill="#366992" opacity="1.000000" stroke="none" d="
M379.877808,692.913086 
	C400.293152,687.859924 416.364410,677.201721 428.486969,660.350342 
	C433.623627,653.209900 439.541260,646.597412 445.440033,640.047668 
	C452.840027,631.830933 458.040131,630.348511 469.479706,638.280212 
	C482.881195,647.572144 485.037781,664.955078 475.068176,677.645325 
	C451.138824,708.104858 419.375183,720.813354 381.226379,718.532776 
	C366.568268,717.656494 352.084320,715.498840 338.521210,709.345337 
	C336.442657,708.402283 334.478668,707.206848 332.461700,706.128113 
	C332.438171,705.597778 332.414612,705.067383 332.391052,704.537048 
	C348.089111,700.695862 363.787140,696.854614 379.877808,692.913086 
z" />
	<path fill="#366992" opacity="1.000000" stroke="none" d="
M849.080322,674.161987 
	C825.921082,678.231384 803.106812,680.147461 780.190369,675.992126 
	C768.322815,673.840271 768.083191,673.324829 768.800659,661.409546 
	C769.009766,657.936218 769.394775,654.431030 770.151489,651.041382 
	C772.159058,642.047485 777.655823,636.167358 786.381775,633.017578 
	C793.606873,630.409607 799.680481,629.755798 807.171936,634.395264 
	C821.823853,643.469360 838.862305,644.822205 855.809204,645.106323 
	C877.374512,645.467896 898.612549,642.579590 919.729370,638.536926 
	C921.338806,638.228882 922.965759,638.012207 924.793335,637.719604 
	C919.091553,649.365601 878.585022,668.801880 849.080322,674.161987 
z" />
	<path fill="#FBFCFD" opacity="1.000000" stroke="none" d="
M441.546082,340.455383 
	C426.612488,356.255188 404.112946,353.330688 393.877869,334.568970 
	C389.683228,326.879852 391.846863,320.560364 400.252777,318.134003 
	C413.533630,314.300476 426.411346,316.186737 438.318512,323.063934 
	C445.855865,327.417358 446.677979,332.830811 441.546082,340.455383 
z" />
	<path fill="#FBFCFD" opacity="1.000000" stroke="none" d="
M740.788635,338.880829 
	C731.786865,339.016083 724.839111,335.561554 719.443909,329.061249 
	C715.488525,324.295593 715.641113,319.977417 720.725220,316.665741 
	C732.792542,308.805267 746.016907,306.798309 759.779724,311.419952 
	C765.204163,313.241516 766.570679,317.522919 763.819275,322.733612 
	C759.026489,331.810272 751.584656,337.458801 740.788635,338.880829 
z" />
</svg>