<svg version="1.1" id="Layer_1" xmlns="http://www.w3.org/2000/svg" xmlns:xlink="http://www.w3.org/1999/xlink" x="0px"
	y="0px" width="100%" viewBox="0 0 866 650" enable-background="new 0 0 866 650" xml:space="preserve">
	<path fill="none" opacity="1.000000" stroke="none" d="
M601.000000,651.000000 
	C400.666656,651.000000 200.833328,651.000000 1.000000,651.000000 
	C1.000000,434.333344 1.000000,217.666672 1.000000,1.000000 
	C289.666656,1.000000 578.333313,1.000000 867.000000,1.000000 
	C867.000000,217.666672 867.000000,434.333344 867.000000,651.000000 
	C778.500000,651.000000 690.000000,651.000000 601.000000,651.000000 
M607.467468,441.817230 
	C607.738281,441.602478 607.865356,441.322479 608.423218,440.613983 
	C615.512268,431.767517 622.600830,422.920624 629.690674,414.074707 
	C654.150391,383.556458 678.711548,353.118622 703.024963,322.484253 
	C713.979126,308.682251 716.636780,292.966187 710.883301,276.371338 
	C705.802856,261.717468 696.356262,250.792252 680.218689,245.815506 
	C676.832642,244.850220 673.446655,243.884933 669.742065,242.690964 
	C669.472717,242.590683 669.223999,242.627991 668.252441,242.610947 
	C667.490356,242.541992 666.728210,242.473038 665.500732,242.232300 
	C665.500732,242.232300 665.026489,242.378082 664.089233,242.304993 
	C657.743530,242.385849 651.397888,242.466721 644.161499,242.326279 
	C641.132996,242.342346 638.104553,242.358414 634.162903,242.129822 
	C627.809509,242.210327 621.456116,242.290848 614.161438,242.283249 
	C608.755066,242.390228 603.348755,242.497208 597.180054,242.350739 
	C593.111084,242.417786 589.042053,242.484818 584.067627,242.331558 
	C573.404846,242.406586 562.742004,242.481613 551.155396,242.338470 
	C543.458496,242.405930 535.761658,242.473389 527.142212,242.331177 
	C522.431824,242.384323 517.721497,242.437454 512.092590,242.304794 
	C506.395752,242.384750 500.698944,242.464691 494.088654,242.335480 
	C473.587250,242.258987 453.085876,242.182495 432.444427,241.163651 
	C432.351074,230.999451 432.255188,220.835281 432.164917,210.671066 
	C431.971039,188.848236 431.780029,167.025360 431.712433,144.292694 
	C431.661835,142.156906 431.611206,140.021103 431.708954,137.496643 
	C431.708954,137.496643 431.524933,137.123535 431.633057,136.179916 
	C431.520172,131.131836 431.407288,126.083771 431.547821,120.160599 
	C431.425720,116.425781 431.303619,112.690956 431.342346,108.175545 
	C431.277527,107.120316 431.212677,106.065086 431.377533,104.231689 
	C431.314575,90.942970 431.314697,77.653381 431.131317,64.366325 
	C431.097778,61.934013 430.317932,59.511997 429.850769,56.473335 
	C429.564911,55.941208 429.279053,55.409077 429.022522,54.238842 
	C428.363281,53.178802 427.704041,52.118763 427.076782,50.960312 
	C427.076782,50.960312 426.978577,50.927681 426.892609,50.321690 
	C426.323486,49.773239 425.754395,49.224789 425.062378,48.293343 
	C424.939117,48.035480 424.741089,47.863949 424.250549,47.240261 
	C423.930115,47.036804 423.609711,46.833351 423.166931,46.650719 
	C423.166931,46.650719 423.296448,46.609859 422.995850,46.027477 
	C416.048523,40.083263 408.282532,37.697231 399.090607,40.524639 
	C399.090607,40.524639 398.972137,40.710732 398.224121,40.708939 
	C396.161591,41.780998 394.099060,42.853058 391.937653,43.899494 
	C391.937653,43.899494 391.911133,43.998135 391.285370,44.117973 
	C390.105835,45.299225 388.926331,46.480476 387.705994,47.673721 
	C387.705994,47.673721 387.695129,47.714817 387.210022,47.850605 
	C387.041077,48.128906 386.872101,48.407207 386.636627,48.682419 
	C386.636627,48.682419 386.630646,48.748699 386.110016,48.989265 
	C385.730194,49.641148 385.350403,50.293030 384.402344,51.301102 
	C335.342133,112.495712 286.279022,173.688004 237.222916,234.885910 
	C212.650482,265.540222 187.859909,296.023560 163.598724,326.922394 
	C144.341034,351.448853 153.929855,389.396423 182.337158,401.807495 
	C187.891403,403.178253 193.445633,404.549011 199.653076,406.113251 
	C200.101578,406.075409 200.550064,406.037537 201.914291,406.216949 
	C278.921600,406.235931 355.928925,406.254913 432.994019,406.983490 
	C433.179749,407.669861 433.365479,408.356232 433.352661,409.927917 
	C433.469788,412.042572 433.586914,414.157196 433.462402,417.023163 
	C433.609863,419.122833 433.757324,421.222504 433.703217,424.200653 
	C433.949310,440.473389 434.195374,456.746094 434.317810,473.916962 
	C434.409393,476.032990 434.500977,478.148987 434.458557,480.496490 
	C434.458557,480.496490 434.609314,480.717407 434.433777,481.581787 
	C434.705078,496.326263 434.976379,511.070709 435.106384,526.602051 
	C435.178619,528.734680 435.250824,530.867249 435.189636,533.913391 
	C435.304443,537.617859 435.419281,541.322266 435.344116,545.871948 
	C435.553101,550.912170 435.762054,555.952454 435.862244,561.500916 
	C435.903625,561.669189 435.945007,561.837402 435.810181,562.662476 
	C435.872253,563.107544 435.934326,563.552612 435.832062,564.922974 
	C435.887085,571.695190 435.765869,578.474548 436.036804,585.238098 
	C436.489136,596.531555 443.439972,605.157410 454.817810,608.167847 
	C464.463470,610.747498 473.162689,608.771667 479.548126,601.138916 
	C491.045593,587.395630 501.971802,573.174438 513.086487,559.137573 
	C513.086487,559.137573 513.130371,559.158203 513.691223,558.844666 
	C514.533081,557.628540 515.374878,556.412354 516.107544,555.149109 
	C516.107544,555.149109 516.061707,555.258850 516.584839,555.071594 
	C516.761292,554.758911 516.937805,554.446289 517.685120,553.792847 
	C519.147888,551.831909 520.610657,549.870911 522.616028,547.645081 
	C523.185852,546.815613 523.755737,545.986145 524.833374,544.789307 
	C526.928284,541.863708 528.887329,538.828186 531.145569,536.034607 
	C536.348022,529.598755 541.695740,523.280396 547.548340,516.570984 
	C551.310059,511.697601 555.071716,506.824188 559.212708,501.375641 
	C561.218689,498.644684 563.224670,495.913727 565.147034,493.136475 
	C565.147034,493.136475 565.186890,493.223297 565.772034,492.918427 
	C566.651733,491.673035 567.531433,490.427612 568.824341,489.057037 
	C569.057678,488.846893 569.155212,488.585968 569.723083,487.981293 
	C570.884155,486.370422 572.045288,484.759521 573.137268,483.136200 
	C573.137268,483.136200 573.149597,483.205322 573.673645,482.983490 
	C574.289673,482.271362 574.905701,481.559235 575.583984,480.859589 
	C575.583984,480.859589 575.594727,480.797058 576.131470,480.354340 
	C577.359558,478.830963 578.590271,477.309723 579.815247,475.783783 
	C586.915100,466.938995 594.013611,458.093140 601.668640,448.971283 
	C602.289490,448.147583 602.910400,447.323883 603.558167,446.506714 
	C603.558167,446.506714 603.568359,446.483032 604.036255,446.106781 
	C604.716125,445.131531 605.396057,444.156281 606.560974,442.962769 
	C606.707947,442.651764 606.854919,442.340759 607.030518,442.025482 
	C607.030518,442.025482 607.026917,441.996704 607.467468,441.817230 
z" />
	<path fill="#3ECF8E" opacity="1.000000" stroke="none" d="
M200.998566,405.999664 
	C200.550064,406.037537 200.101578,406.075409 199.124741,405.713196 
	C193.619308,403.703827 188.652451,402.060883 183.648483,400.540070 
	C183.174927,400.396118 182.468552,401.018311 181.870270,401.284821 
	C153.929855,389.396423 144.341034,351.448853 163.598724,326.922394 
	C187.859909,296.023560 212.650482,265.540222 237.222916,234.885910 
	C286.279022,173.688004 335.342133,112.495712 384.959290,51.010254 
	C385.887695,50.062504 386.259186,49.405602 386.630646,48.748699 
	C386.630646,48.748699 386.636627,48.682419 386.877686,48.570141 
	C387.377960,48.262215 387.570068,48.014534 387.695129,47.714817 
	C387.695129,47.714817 387.705994,47.673721 388.061829,47.636009 
	C389.582153,46.398251 390.746643,45.198196 391.911133,43.998138 
	C391.911133,43.998135 391.937653,43.899494 392.332886,43.858376 
	C394.809479,42.781742 396.890808,41.746231 398.972137,40.710724 
	C398.972137,40.710732 399.090607,40.524639 399.698578,40.625671 
	C408.656281,40.005356 416.088654,42.868793 423.296448,46.609859 
	C423.296448,46.609859 423.166931,46.650719 423.373657,46.880577 
	C423.876343,47.333206 424.172333,47.555977 424.468292,47.778751 
	C424.741089,47.863949 424.939117,48.035480 425.237976,48.755844 
	C425.935242,49.788128 426.456909,50.357903 426.978577,50.927681 
	C426.978577,50.927681 427.076782,50.960312 427.098846,51.321342 
	C427.744995,52.747231 428.369080,53.812092 428.993164,54.876953 
	C429.279053,55.409077 429.564911,55.941208 429.724854,57.109745 
	C429.769714,72.078720 429.912781,86.411743 430.154388,100.743118 
	C430.178436,102.170540 430.802338,103.587852 431.147827,105.009857 
	C431.212677,106.065086 431.277527,107.120316 431.054016,108.914001 
	C430.941956,113.446869 431.118164,117.241280 431.294373,121.035698 
	C431.407288,126.083771 431.520172,131.131836 431.489197,136.730286 
	C431.254181,137.542969 431.325928,137.744522 431.560608,137.885315 
	C431.611206,140.021103 431.661835,142.156906 431.486023,145.068909 
	C431.161255,151.797958 430.977509,157.750793 430.979462,163.703583 
	C430.987488,188.183884 431.026398,212.664291 431.138000,237.144272 
	C431.148346,239.419800 431.751312,241.692642 432.097778,244.437195 
	C432.442627,267.929962 432.768829,290.952271 433.045898,314.442688 
	C433.045197,326.933350 433.093628,338.955872 433.102692,351.446960 
	C433.047302,369.276642 433.031281,386.637756 432.545166,403.998840 
	C425.080627,403.998779 418.086212,403.998779 411.091766,403.998779 
	C343.478943,403.998901 275.866089,403.978363 208.253448,404.083496 
	C205.834152,404.087250 203.416809,405.332855 200.998566,405.999664 
z" />
	<path fill="#32B37A" opacity="1.000000" stroke="none" d="
M597.942383,242.604187 
	C603.348755,242.497208 608.755066,242.390228 614.887085,242.490387 
	C616.413513,242.871674 617.214233,243.045807 618.347717,243.362335 
	C620.532532,243.922546 622.384644,244.340363 625.786377,245.107742 
	C622.967896,248.458130 621.295471,251.362793 618.831360,253.213226 
	C609.246399,260.411041 598.366211,266.306671 595.174561,279.305206 
	C594.913269,280.369385 594.068787,281.371216 593.290894,282.213165 
	C590.505920,285.227570 585.925842,287.789093 585.181458,291.209015 
	C583.974976,296.751678 579.978455,300.154327 577.745117,304.773834 
	C575.428406,309.565857 575.917297,312.244232 581.165039,313.861298 
	C585.426697,315.174500 585.320312,317.186340 583.376160,320.511322 
	C580.986816,324.597473 579.127380,328.990082 576.828918,333.133759 
	C574.846802,336.706970 573.212036,342.290161 570.292358,343.152039 
	C563.992371,345.011810 563.666077,350.130249 561.734924,354.328064 
	C560.950806,356.032440 561.565857,358.999268 562.587952,360.798981 
	C565.568787,366.047821 565.036560,367.274414 559.320251,368.080170 
	C556.505615,368.476929 553.553345,369.498291 551.175476,371.031311 
	C547.258057,373.556824 547.578552,374.754944 551.476196,377.256592 
	C552.706116,378.045959 554.225281,379.736237 554.121094,380.878082 
	C554.013794,382.053131 552.179565,383.190704 550.922058,384.096161 
	C550.153320,384.649658 548.737305,384.452393 548.157410,385.089050 
	C546.956482,386.407440 545.270081,388.121368 545.377808,389.552673 
	C545.480713,390.919678 547.514709,392.245209 548.873596,393.381104 
	C549.970154,394.297729 551.325562,394.904663 552.566162,395.649017 
	C551.628235,396.920624 550.903198,398.478302 549.690613,399.380829 
	C548.554932,400.226013 546.917419,400.431030 545.475220,400.824097 
	C540.761108,402.108856 540.019043,403.577606 542.881775,407.254578 
	C545.628479,410.782410 545.280396,413.646820 542.655518,417.106445 
	C541.317444,418.870056 541.102051,421.550903 540.601990,423.865265 
	C540.155701,425.930817 540.015930,428.062561 539.740845,430.165100 
	C537.922546,429.492218 536.104309,428.819366 534.198425,428.114075 
	C532.651062,429.529694 531.147766,431.410278 529.212341,432.569153 
	C525.334290,434.891266 525.440186,437.236542 527.823792,440.740204 
	C529.016052,442.492584 529.511780,447.045319 529.140442,447.184784 
	C523.852051,449.171478 524.580872,453.674957 523.979187,457.775024 
	C523.738525,459.415009 522.514771,460.910736 521.563171,462.824890 
	C519.808838,461.466400 518.600464,460.530640 517.054749,459.333679 
	C516.601746,460.503662 516.035950,461.253082 516.078125,461.966492 
	C516.492432,468.966217 511.455200,473.766785 508.948090,479.569397 
	C508.468994,480.678314 506.618103,481.164093 505.459198,482.017639 
	C504.074249,483.037628 501.961639,483.955261 501.647949,485.271027 
	C501.384857,486.374481 503.024933,488.236755 504.221619,489.323425 
	C507.260559,492.083038 507.112427,494.403412 503.396301,496.165558 
	C501.904175,496.873108 500.191101,497.115631 498.701263,497.826782 
	C496.066193,499.084656 495.606750,501.137451 497.088135,503.601929 
	C501.313080,510.630981 500.993011,511.207886 493.512268,513.541565 
	C491.609436,514.135193 490.160553,516.183899 488.503082,517.564026 
	C490.118134,518.400330 491.662689,519.447998 493.367065,520.016357 
	C495.257050,520.646545 497.454681,521.125977 495.556305,523.520386 
	C493.947632,525.549377 491.611877,527.000854 489.602814,528.713745 
	C488.108612,529.987671 485.393097,531.300171 485.422760,532.543030 
	C485.466370,534.371826 487.460327,536.160889 488.644257,537.953125 
	C489.319794,538.975769 490.770599,540.168884 490.564758,540.932983 
	C490.247620,542.110352 488.937561,543.183533 487.803436,543.926514 
	C486.876984,544.533508 485.601318,544.635376 484.464142,544.887390 
	C480.503418,545.764954 478.796997,547.596069 480.223541,552.025391 
	C480.972900,554.351990 480.930023,557.467285 479.988068,559.695129 
	C477.964020,564.482300 475.125641,568.925293 472.577667,573.587769 
	C471.723724,573.069031 470.438751,572.288513 469.166046,571.515442 
	C468.027832,573.263550 467.441742,575.135254 466.178406,575.929077 
	C461.680298,578.755432 462.273224,582.152771 463.265533,586.705383 
	C463.913513,589.678284 462.558044,594.110046 460.465637,596.385376 
	C458.132874,598.922180 456.831268,600.815613 457.818085,602.916931 
	C456.212952,605.021362 455.103790,606.475525 453.994629,607.929688 
	C443.439972,605.157410 436.489136,596.531555 436.036804,585.238098 
	C435.765869,578.474548 435.887085,571.695190 436.204041,564.616821 
	C438.570343,565.125977 438.655579,571.042969 442.067047,567.212524 
	C445.226562,563.664978 447.752594,559.114258 449.175964,554.572327 
	C450.891022,549.099487 450.791718,543.081421 452.181732,537.473877 
	C452.915070,534.515442 454.558746,531.187439 456.854858,529.369507 
	C459.451904,527.313293 460.775024,525.436340 461.261230,522.180542 
	C461.693665,519.284851 462.621246,514.951843 464.577789,514.092102 
	C469.485291,511.935608 470.057800,508.636230 470.141479,504.160583 
	C470.178864,502.160461 471.201538,499.039001 472.634766,498.423401 
	C476.565857,496.735077 476.918396,493.927490 477.069489,490.399780 
	C477.201233,487.324768 477.753998,484.228271 478.486786,481.230774 
	C479.096436,478.737213 480.533051,476.437805 481.076569,473.937836 
	C481.955414,469.895874 482.054260,465.766937 486.853027,463.734070 
	C488.256958,463.139252 489.235443,460.603760 489.653259,458.784271 
	C491.231293,451.911682 492.409027,444.947632 493.955688,438.067078 
	C494.274445,436.648926 495.334320,434.529816 496.396149,434.296417 
	C500.985504,433.287598 502.008362,430.129303 502.258881,426.196228 
	C502.490997,422.552887 502.603943,418.890778 503.087250,415.279510 
	C503.311340,413.605072 503.822449,411.231293 505.002533,410.541382 
	C513.117004,405.797241 517.063354,398.712219 518.121277,389.588074 
	C518.275085,388.261292 519.589539,386.439636 520.796448,385.983582 
	C524.273376,384.669708 525.134460,382.247192 525.013062,378.936737 
	C524.854736,374.619049 524.640686,370.407166 528.566101,367.072571 
	C529.687195,366.120209 529.408936,363.397919 529.565491,361.470428 
	C529.697510,359.844727 528.948425,357.051758 529.583008,356.728943 
	C537.493469,352.705017 536.567383,344.305603 539.340759,337.781464 
	C539.912354,336.436859 540.386475,335.049652 540.986328,333.718475 
	C542.656921,330.010773 544.453796,326.357727 546.041199,322.615417 
	C547.470032,319.247253 548.830505,315.835144 549.943176,312.353546 
	C550.583008,310.351318 549.978577,307.629059 551.126709,306.167877 
	C555.936462,300.046295 561.451477,294.476501 566.224426,288.329041 
	C571.552734,281.466400 576.299377,274.154816 581.433350,267.136780 
	C582.606506,265.533051 584.094177,263.733490 585.839417,263.047333 
	C593.769287,259.929474 599.229919,251.001022 597.942383,242.604187 
z" />
	<path fill="#35BB7F" opacity="1.000000" stroke="none" d="
M454.406219,608.048767 
	C455.103790,606.475525 456.212952,605.021362 457.818085,602.916931 
	C456.831268,600.815613 458.132874,598.922180 460.465637,596.385376 
	C462.558044,594.110046 463.913513,589.678284 463.265533,586.705383 
	C462.273224,582.152771 461.680298,578.755432 466.178406,575.929077 
	C467.441742,575.135254 468.027832,573.263550 469.166046,571.515442 
	C470.438751,572.288513 471.723724,573.069031 472.577667,573.587769 
	C475.125641,568.925293 477.964020,564.482300 479.988068,559.695129 
	C480.930023,557.467285 480.972900,554.351990 480.223541,552.025391 
	C478.796997,547.596069 480.503418,545.764954 484.464142,544.887390 
	C485.601318,544.635376 486.876984,544.533508 487.803436,543.926514 
	C488.937561,543.183533 490.247620,542.110352 490.564758,540.932983 
	C490.770599,540.168884 489.319794,538.975769 488.644257,537.953125 
	C487.460327,536.160889 485.466370,534.371826 485.422760,532.543030 
	C485.393097,531.300171 488.108612,529.987671 489.602814,528.713745 
	C491.611877,527.000854 493.947632,525.549377 495.556305,523.520386 
	C497.454681,521.125977 495.257050,520.646545 493.367065,520.016357 
	C491.662689,519.447998 490.118134,518.400330 488.503082,517.564026 
	C490.160553,516.183899 491.609436,514.135193 493.512268,513.541565 
	C500.993011,511.207886 501.313080,510.630981 497.088135,503.601929 
	C495.606750,501.137451 496.066193,499.084656 498.701263,497.826782 
	C500.191101,497.115631 501.904175,496.873108 503.396301,496.165558 
	C507.112427,494.403412 507.260559,492.083038 504.221619,489.323425 
	C503.024933,488.236755 501.384857,486.374481 501.647949,485.271027 
	C501.961639,483.955261 504.074249,483.037628 505.459198,482.017639 
	C506.618103,481.164093 508.468994,480.678314 508.948090,479.569397 
	C511.455200,473.766785 516.492432,468.966217 516.078125,461.966492 
	C516.035950,461.253082 516.601746,460.503662 517.054749,459.333679 
	C518.600464,460.530640 519.808838,461.466400 521.563171,462.824890 
	C522.514771,460.910736 523.738525,459.415009 523.979187,457.775024 
	C524.580872,453.674957 523.852051,449.171478 529.140442,447.184784 
	C529.511780,447.045319 529.016052,442.492584 527.823792,440.740204 
	C525.440186,437.236542 525.334290,434.891266 529.212341,432.569153 
	C531.147766,431.410278 532.651062,429.529694 534.198425,428.114075 
	C536.104309,428.819366 537.922546,429.492218 539.740845,430.165100 
	C540.015930,428.062561 540.155701,425.930817 540.601990,423.865265 
	C541.102051,421.550903 541.317444,418.870056 542.655518,417.106445 
	C545.280396,413.646820 545.628479,410.782410 542.881775,407.254578 
	C540.019043,403.577606 540.761108,402.108856 545.475220,400.824097 
	C546.917419,400.431030 548.554932,400.226013 549.690613,399.380829 
	C550.903198,398.478302 551.628235,396.920624 552.566162,395.649017 
	C551.325562,394.904663 549.970154,394.297729 548.873596,393.381104 
	C547.514709,392.245209 545.480713,390.919678 545.377808,389.552673 
	C545.270081,388.121368 546.956482,386.407440 548.157410,385.089050 
	C548.737305,384.452393 550.153320,384.649658 550.922058,384.096161 
	C552.179565,383.190704 554.013794,382.053131 554.121094,380.878082 
	C554.225281,379.736237 552.706116,378.045959 551.476196,377.256592 
	C547.578552,374.754944 547.258057,373.556824 551.175476,371.031311 
	C553.553345,369.498291 556.505615,368.476929 559.320251,368.080170 
	C565.036560,367.274414 565.568787,366.047821 562.587952,360.798981 
	C561.565857,358.999268 560.950806,356.032440 561.734924,354.328064 
	C563.666077,350.130249 563.992371,345.011810 570.292358,343.152039 
	C573.212036,342.290161 574.846802,336.706970 576.828918,333.133759 
	C579.127380,328.990082 580.986816,324.597473 583.376160,320.511322 
	C585.320312,317.186340 585.426697,315.174500 581.165039,313.861298 
	C575.917297,312.244232 575.428406,309.565857 577.745117,304.773834 
	C579.978455,300.154327 583.974976,296.751678 585.181458,291.209015 
	C585.925842,287.789093 590.505920,285.227570 593.290894,282.213165 
	C594.068787,281.371216 594.913269,280.369385 595.174561,279.305206 
	C598.366211,266.306671 609.246399,260.411041 618.831360,253.213226 
	C621.295471,251.362793 622.967896,248.458130 625.786377,245.107742 
	C622.384644,244.340363 620.532532,243.922546 618.797241,243.314987 
	C624.273193,243.405441 629.632385,243.685623 635.374512,243.972137 
	C637.242737,244.223785 638.728027,244.469131 640.987000,244.842270 
	C636.976868,249.785156 639.111450,257.595428 631.181091,258.737091 
	C630.715210,258.804138 630.461975,260.143005 630.054688,260.858704 
	C628.669617,263.292480 627.675171,266.125854 625.765320,268.043488 
	C622.631836,271.189728 621.657410,274.709961 621.989075,278.899902 
	C622.325867,283.154419 621.891907,287.127472 618.586975,290.425873 
	C617.674133,291.336914 617.099121,293.292908 617.368774,294.555939 
	C618.356262,299.179230 616.463013,302.232544 612.869812,304.752563 
	C611.957092,305.392670 610.999451,306.408936 610.715637,307.433319 
	C609.047119,313.454041 606.655273,319.473114 606.286011,325.599915 
	C605.906372,331.899933 603.147888,335.544800 597.977173,337.965271 
	C594.113953,339.773743 592.621704,342.305237 593.335815,346.703064 
	C594.350464,352.952393 590.435242,357.613068 586.177124,360.990875 
	C583.333130,363.246979 582.287903,365.130127 581.869629,368.540619 
	C581.042664,375.283783 581.595032,382.633270 575.306213,387.666718 
	C574.483215,388.325378 574.596558,390.387146 574.597656,391.798767 
	C574.601013,396.200348 574.992188,400.613129 574.779114,404.999512 
	C574.622437,408.224152 572.794739,409.952240 569.148804,409.912292 
	C567.606262,409.895416 565.372559,411.099731 564.613159,412.417542 
	C561.656311,417.548676 559.357483,422.815399 559.727356,429.188965 
	C559.969116,433.355103 558.669983,437.757324 557.321350,441.807495 
	C556.641968,443.847717 554.608643,445.835754 552.674194,446.977325 
	C548.510803,449.434235 544.641479,451.453888 545.726257,457.564697 
	C546.147949,459.940308 544.679016,462.667450 544.005371,465.217041 
	C543.383423,467.570953 542.197937,469.882416 542.102844,472.246429 
	C541.917175,476.865417 541.394165,480.870575 536.092773,482.484467 
	C535.078003,482.793396 533.979126,484.321777 533.746094,485.457336 
	C532.357178,492.225098 530.916809,499.006561 530.075134,505.854858 
	C529.386841,511.455444 527.420898,515.670105 523.862366,515.303406 
	C517.640625,514.662415 516.781372,518.048340 517.002625,522.826965 
	C517.325256,529.797607 517.710449,536.765869 517.955322,543.739136 
	C518.090637,547.593018 515.988525,549.658081 512.209534,549.799683 
	C505.902039,550.036133 505.899994,549.971436 506.570984,555.868286 
	C506.643799,556.508057 506.710052,557.148621 506.783356,557.825684 
	C509.006836,558.290222 511.071747,558.721558 513.136658,559.152893 
	C501.971802,573.174438 491.045593,587.395630 479.548126,601.138916 
	C473.162689,608.771667 464.463470,610.747498 454.406219,608.048767 
z" />
	<path fill="#2FAD75" opacity="1.000000" stroke="none" d="
M597.561218,242.477448 
	C599.229919,251.001022 593.769287,259.929474 585.839417,263.047333 
	C584.094177,263.733490 582.606506,265.533051 581.433350,267.136780 
	C576.299377,274.154816 571.552734,281.466400 566.224426,288.329041 
	C561.451477,294.476501 555.936462,300.046295 551.126709,306.167877 
	C549.978577,307.629059 550.583008,310.351318 549.943176,312.353546 
	C548.830505,315.835144 547.470032,319.247253 546.041199,322.615417 
	C544.453796,326.357727 542.656921,330.010773 540.986328,333.718475 
	C540.386475,335.049652 539.912354,336.436859 539.340759,337.781464 
	C536.567383,344.305603 537.493469,352.705017 529.583008,356.728943 
	C528.948425,357.051758 529.697510,359.844727 529.565491,361.470428 
	C529.408936,363.397919 529.687195,366.120209 528.566101,367.072571 
	C524.640686,370.407166 524.854736,374.619049 525.013062,378.936737 
	C525.134460,382.247192 524.273376,384.669708 520.796448,385.983582 
	C519.589539,386.439636 518.275085,388.261292 518.121277,389.588074 
	C517.063354,398.712219 513.117004,405.797241 505.002533,410.541382 
	C503.822449,411.231293 503.311340,413.605072 503.087250,415.279510 
	C502.603943,418.890778 502.490997,422.552887 502.258881,426.196228 
	C502.008362,430.129303 500.985504,433.287598 496.396149,434.296417 
	C495.334320,434.529816 494.274445,436.648926 493.955688,438.067078 
	C492.409027,444.947632 491.231293,451.911682 489.653259,458.784271 
	C489.235443,460.603760 488.256958,463.139252 486.853027,463.734070 
	C482.054260,465.766937 481.955414,469.895874 481.076569,473.937836 
	C480.533051,476.437805 479.096436,478.737213 478.486786,481.230774 
	C477.753998,484.228271 477.201233,487.324768 477.069489,490.399780 
	C476.918396,493.927490 476.565857,496.735077 472.634766,498.423401 
	C471.201538,499.039001 470.178864,502.160461 470.141479,504.160583 
	C470.057800,508.636230 469.485291,511.935608 464.577789,514.092102 
	C462.621246,514.951843 461.693665,519.284851 461.261230,522.180542 
	C460.775024,525.436340 459.451904,527.313293 456.854858,529.369507 
	C454.558746,531.187439 452.915070,534.515442 452.181732,537.473877 
	C450.791718,543.081421 450.891022,549.099487 449.175964,554.572327 
	C447.752594,559.114258 445.226562,563.664978 442.067047,567.212524 
	C438.655579,571.042969 438.570343,565.125977 436.286255,564.154175 
	C435.934326,563.552612 435.872253,563.107544 435.949524,562.210449 
	C436.154022,561.490295 436.114746,561.235107 435.971008,560.992676 
	C435.762054,555.952454 435.553101,550.912170 435.749146,545.514282 
	C437.468292,545.568481 438.782471,545.980408 440.314911,546.460754 
	C442.028625,540.289795 438.879608,536.566956 435.323029,532.999878 
	C435.250824,530.867249 435.178619,528.734680 435.597931,526.306030 
	C438.675354,526.552734 441.843048,527.850769 441.876984,523.386414 
	C441.915558,518.306641 441.813507,513.358948 446.394653,509.826569 
	C446.807831,509.507965 446.948669,508.570007 446.892120,507.949188 
	C446.284668,501.279022 450.126007,497.374634 455.376343,494.481750 
	C458.112213,492.974304 458.926361,491.158661 458.390167,487.981445 
	C457.399658,482.111664 458.216248,476.866577 462.313843,471.671875 
	C466.026794,466.964783 469.835632,461.401245 467.566956,454.318787 
	C467.169556,453.078125 468.030396,450.408997 469.049622,449.909912 
	C474.766205,447.110748 474.617676,440.906647 477.500641,436.542450 
	C482.391602,429.138580 483.708130,420.982269 484.459442,412.482269 
	C484.601532,410.874939 485.806885,409.041992 487.060150,407.908783 
	C492.033020,403.412476 495.119202,398.096832 494.978790,391.271637 
	C494.846619,384.844696 498.176056,379.810364 502.721802,376.351013 
	C506.431213,373.528168 507.667236,370.480072 508.011932,366.373932 
	C508.135071,364.906769 508.457764,363.429077 508.895660,362.020325 
	C510.901154,355.569061 512.850708,349.094910 515.102295,342.728699 
	C515.887817,340.507721 517.487732,338.575684 518.708740,336.507599 
	C521.188782,332.307037 524.373596,328.358521 525.993591,323.848419 
	C529.366394,314.458374 532.841248,305.580627 542.698669,300.839142 
	C544.674255,299.888824 545.599487,296.733063 546.981567,294.576630 
	C548.364807,292.418335 549.225342,289.247742 551.183411,288.282288 
	C554.783386,286.507385 556.814270,284.014282 558.436096,280.567047 
	C559.467957,278.373779 561.537659,276.692566 562.781189,274.570343 
	C565.603088,269.754333 571.476379,268.088989 573.732971,262.203979 
	C576.403076,255.240463 581.134888,249.067490 584.973083,242.551849 
	C589.042053,242.484818 593.111084,242.417786 597.561218,242.477448 
z" />
	<path fill="#3ECC8D" opacity="1.000000" stroke="none" d="
M680.991211,245.973389 
	C696.356262,250.792252 705.802856,261.717468 710.883301,276.371338 
	C716.636780,292.966187 713.979126,308.682251 703.024963,322.484253 
	C678.711548,353.118622 654.150391,383.556458 629.690674,414.074707 
	C622.600830,422.920624 615.512268,431.767517 607.977173,440.947449 
	C607.330444,441.496460 607.162354,441.735077 607.026917,441.996704 
	C607.026917,441.996704 607.030518,442.025482 606.839050,442.200073 
	C606.423218,442.619507 606.232727,442.888306 606.075989,443.181061 
	C605.396057,444.156281 604.716125,445.131531 603.683228,445.900604 
	C602.299377,442.224701 600.831909,438.575317 606.806580,438.379150 
	C607.325317,438.362122 607.970276,437.697083 608.301941,437.172150 
	C611.608765,431.937744 614.896545,426.690277 618.082520,421.382233 
	C618.443115,420.781555 618.432312,419.642487 618.108093,418.996979 
	C615.855713,414.511871 618.178284,411.501801 621.044739,408.374237 
	C624.813538,404.262177 626.618286,399.327545 625.399109,393.716675 
	C624.513855,389.642212 625.301636,386.535278 629.208984,384.491730 
	C632.401978,382.821777 633.883362,380.194916 634.208252,376.463654 
	C634.458191,373.593262 635.266479,370.444427 636.836426,368.093964 
	C639.100830,364.703888 640.427429,362.370300 635.382935,360.584473 
	C634.469604,360.261200 633.421509,358.555298 633.534424,357.620361 
	C633.636108,356.778320 635.250000,355.478943 636.188354,355.486206 
	C640.831299,355.521973 642.213867,352.425751 642.803833,348.808136 
	C643.228394,346.204437 642.631104,343.414124 643.185120,340.857727 
	C643.642883,338.745270 644.964478,335.254913 646.170654,335.138214 
	C651.650269,334.608002 651.396912,329.769257 653.394348,326.717529 
	C654.267334,325.383820 654.007996,322.954529 655.091431,322.176117 
	C659.145325,319.263733 659.143860,315.243011 659.029236,311.017700 
	C658.929871,307.354095 660.310486,304.694366 663.874695,303.078613 
	C665.150513,302.500275 666.207275,300.886810 666.820923,299.504700 
	C668.540771,295.631042 670.034058,291.652557 671.503174,287.673523 
	C672.288147,285.547241 673.616028,283.232239 673.346069,281.180359 
	C672.606934,275.559906 675.592957,272.267975 679.211060,268.788757 
	C681.001465,267.067108 682.202148,264.404724 682.907532,261.949005 
	C684.486816,256.450439 682.427429,251.210861 680.991211,245.973389 
z" />
	<path fill="#3BC788" opacity="1.000000" stroke="none" d="
M680.604980,245.894440 
	C682.427429,251.210861 684.486816,256.450439 682.907532,261.949005 
	C682.202148,264.404724 681.001465,267.067108 679.211060,268.788757 
	C675.592957,272.267975 672.606934,275.559906 673.346069,281.180359 
	C673.616028,283.232239 672.288147,285.547241 671.503174,287.673523 
	C670.034058,291.652557 668.540771,295.631042 666.820923,299.504700 
	C666.207275,300.886810 665.150513,302.500275 663.874695,303.078613 
	C660.310486,304.694366 658.929871,307.354095 659.029236,311.017700 
	C659.143860,315.243011 659.145325,319.263733 655.091431,322.176117 
	C654.007996,322.954529 654.267334,325.383820 653.394348,326.717529 
	C651.396912,329.769257 651.650269,334.608002 646.170654,335.138214 
	C644.964478,335.254913 643.642883,338.745270 643.185120,340.857727 
	C642.631104,343.414124 643.228394,346.204437 642.803833,348.808136 
	C642.213867,352.425751 640.831299,355.521973 636.188354,355.486206 
	C635.250000,355.478943 633.636108,356.778320 633.534424,357.620361 
	C633.421509,358.555298 634.469604,360.261200 635.382935,360.584473 
	C640.427429,362.370300 639.100830,364.703888 636.836426,368.093964 
	C635.266479,370.444427 634.458191,373.593262 634.208252,376.463654 
	C633.883362,380.194916 632.401978,382.821777 629.208984,384.491730 
	C625.301636,386.535278 624.513855,389.642212 625.399109,393.716675 
	C626.618286,399.327545 624.813538,404.262177 621.044739,408.374237 
	C618.178284,411.501801 615.855713,414.511871 618.108093,418.996979 
	C618.432312,419.642487 618.443115,420.781555 618.082520,421.382233 
	C614.896545,426.690277 611.608765,431.937744 608.301941,437.172150 
	C607.970276,437.697083 607.325317,438.362122 606.806580,438.379150 
	C600.831909,438.575317 602.299377,442.224701 603.449341,446.088745 
	C603.568359,446.483032 603.558167,446.506714 603.199829,446.547821 
	C602.265259,447.475159 601.688965,448.361389 601.112671,449.247620 
	C594.013611,458.093140 586.915100,466.938995 579.815247,475.783783 
	C578.590271,477.309723 577.359558,478.830963 575.596313,480.242004 
	C570.189453,473.507996 571.539001,466.248932 573.139648,459.091278 
	C574.531433,452.866913 576.718201,446.806244 577.866211,440.547150 
	C578.474060,437.233063 579.167603,434.746063 582.158813,432.695618 
	C585.917358,430.119202 590.033264,427.396484 588.415588,421.427887 
	C588.104797,420.281128 589.365234,418.101837 590.525085,417.281433 
	C593.533569,415.153381 594.252930,412.386108 594.012634,409.027466 
	C593.755493,405.432739 594.929749,402.796082 598.199951,400.671356 
	C602.073853,398.154419 605.972595,395.204803 604.458374,389.395660 
	C604.250183,388.597198 605.070374,387.555542 605.335388,386.604431 
	C606.244690,383.340851 607.136841,380.072266 608.000183,376.796265 
	C608.583923,374.581329 608.981323,372.309143 609.692322,370.137970 
	C610.507202,367.649536 612.014343,365.318146 612.440613,362.787140 
	C613.227539,358.114319 612.609863,352.932861 618.746033,351.168121 
	C619.340088,350.997253 619.643372,349.836304 620.094360,349.143280 
	C624.304260,342.674164 625.744995,335.501984 626.203857,327.880768 
	C626.346924,325.505157 628.140381,322.605377 630.072815,321.075012 
	C636.498108,315.986481 641.718445,310.627594 640.053040,301.478607 
	C639.701111,299.545349 639.621948,297.384094 640.111389,295.509125 
	C641.645203,289.632660 643.810181,284.199860 648.589355,279.820160 
	C651.938965,276.750610 655.626282,272.744232 656.483948,268.601562 
	C657.485474,263.764801 658.524658,259.585083 661.590698,255.577637 
	C664.842346,251.327621 661.857483,244.615738 656.597107,244.014053 
	C655.133606,244.014053 654.069275,244.019241 652.670532,244.021637 
	C651.890320,244.020889 651.444458,244.022964 650.623108,244.019485 
	C648.515808,243.525131 646.783997,243.036362 645.052185,242.547577 
	C651.397888,242.466721 657.743530,242.385849 664.640503,242.471771 
	C665.191711,242.638535 665.637939,242.694443 665.637939,242.694443 
	C665.637939,242.694443 665.966125,242.404083 665.966125,242.404083 
	C666.728210,242.473038 667.490356,242.541992 668.783569,242.815002 
	C669.314758,243.019058 669.699524,243.058380 669.699524,243.058380 
	C669.699524,243.058380 670.060608,242.919647 670.060608,242.919647 
	C673.446655,243.884933 676.832642,244.850220 680.604980,245.894440 
z" />
	<path fill="#2AA16C" opacity="1.000000" stroke="none" d="
M434.441437,473.018829 
	C434.195374,456.746094 433.949310,440.473389 433.839294,423.341919 
	C433.884949,420.412750 433.794495,418.342285 433.704071,416.271851 
	C433.586914,414.157196 433.469788,412.042572 433.768219,409.552338 
	C439.467468,411.430939 441.006836,410.205200 442.524506,402.535522 
	C437.698090,399.949554 436.575165,393.818085 441.252167,390.158386 
	C447.070740,385.605377 447.683289,379.483948 449.228455,373.198914 
	C450.288116,368.888855 452.685669,364.775269 455.104614,360.967407 
	C457.757446,356.791443 461.287537,353.183319 464.129883,349.114380 
	C467.040680,344.947388 469.262878,340.275604 472.360504,336.268524 
	C476.806946,330.516571 482.250580,325.501160 486.409180,319.568909 
	C493.087891,310.041748 498.951569,299.947327 505.398926,290.251709 
	C507.565979,286.992920 510.310211,284.070435 513.059937,281.257477 
	C517.422546,276.794556 524.861938,275.274963 525.947388,267.658661 
	C526.032227,267.063171 526.581604,266.488739 527.018005,265.995514 
	C531.049988,261.438629 534.957092,256.757935 539.201294,252.406647 
	C542.358704,249.169510 541.576416,247.396118 537.706543,246.039398 
	C534.480347,244.908325 531.277771,243.709610 528.064758,242.540848 
	C535.761658,242.473389 543.458496,242.405930 551.851196,242.694885 
	C555.032410,243.373383 557.517822,243.695480 559.903442,244.357269 
	C557.936340,248.732742 556.712158,253.215866 551.878113,255.060364 
	C551.125061,255.347733 550.668945,256.575073 550.206543,257.437988 
	C545.559265,266.111816 540.955872,274.809204 536.279968,283.467438 
	C535.911438,284.149933 535.184448,284.815002 534.468628,285.106689 
	C527.017029,288.143066 523.839539,294.698730 520.568054,301.350677 
	C519.300964,303.927002 517.469543,307.110626 515.099243,308.088898 
	C508.704712,310.728088 507.255920,316.363831 504.806641,321.704498 
	C503.005402,325.632019 501.153992,330.207336 497.923737,332.610413 
	C494.997467,334.787384 493.165161,336.782532 492.189423,340.105438 
	C491.711548,341.732849 490.949005,343.742462 489.663513,344.587158 
	C483.778900,348.453918 482.255737,354.385925 480.936768,360.700043 
	C479.371704,368.192017 477.367706,375.595032 475.405548,382.997253 
	C475.202240,383.764252 474.084869,384.578766 473.231232,384.833221 
	C469.613220,385.911804 469.118988,388.593353 468.930542,391.836548 
	C468.771729,394.570129 468.099548,397.305389 467.378906,399.965240 
	C466.747009,402.297577 465.456451,404.465210 464.937408,406.811859 
	C463.302704,414.202576 460.809692,420.867310 454.782898,426.151459 
	C451.541199,428.993683 448.646790,433.053406 447.363495,437.121460 
	C445.272522,443.749542 442.273499,449.403442 437.098267,454.004913 
	C436.378296,454.645020 436.086426,456.069336 436.064087,457.140411 
	C435.953796,462.424316 436.001038,467.711517 435.734100,473.002930 
	C435.130859,473.011810 434.786133,473.015320 434.441437,473.018829 
z" />
	<path fill="#38C183" opacity="1.000000" stroke="none" d="
M644.606812,242.436920 
	C646.783997,243.036362 648.515808,243.525131 650.557129,244.354828 
	C651.416809,246.040558 651.676880,247.649780 652.596130,248.658112 
	C653.575928,249.732712 655.179016,250.239059 656.509949,250.993500 
	C655.304138,252.242477 654.235413,253.678604 652.855103,254.689194 
	C651.398743,255.755463 649.296875,256.081696 648.100464,257.329193 
	C646.149780,259.363068 644.163391,261.672058 643.165100,264.242798 
	C641.331787,268.963806 640.409851,274.034180 638.665833,278.796997 
	C638.121948,280.282257 636.144104,281.235382 634.840576,282.451355 
	C633.349304,283.842346 631.140991,284.996643 630.541565,286.708160 
	C628.982117,291.160553 628.051514,295.843567 627.023071,300.468597 
	C626.001953,305.060516 625.235840,309.708801 624.234009,314.305389 
	C622.920471,320.331940 617.423889,325.055450 618.785522,332.004700 
	C618.958801,332.889191 617.734741,334.625671 616.757507,335.054413 
	C613.098206,336.659943 612.001892,339.715271 610.872925,343.179199 
	C608.621460,350.086945 605.998291,356.879883 603.316040,363.635834 
	C602.748352,365.065704 601.503052,366.573242 600.165527,367.285614 
	C596.207336,369.393646 595.013123,372.837036 595.072632,376.856018 
	C595.120667,380.096375 594.386719,382.524200 591.410156,384.401337 
	C589.701904,385.478699 587.797974,387.484467 587.501953,389.317749 
	C586.768066,393.862244 586.981201,398.503937 583.465637,402.241821 
	C582.804932,402.944336 582.898865,405.018219 583.427795,406.062622 
	C585.623535,410.398438 583.538086,412.973083 580.151794,415.174622 
	C576.293335,417.683167 574.733826,421.237640 574.931641,425.806122 
	C575.000183,427.388184 574.397522,429.021301 573.977234,430.598022 
	C573.024963,434.169891 572.037476,437.733673 570.980957,441.275879 
	C570.399536,443.225128 570.230469,445.984802 568.876343,446.899017 
	C562.465271,451.227264 559.891174,457.171234 559.978210,464.623840 
	C560.027649,468.852142 558.574280,472.115570 554.990417,474.874969 
	C548.035095,480.230164 542.947693,486.836853 543.929138,496.435699 
	C544.044495,497.563263 543.752686,498.759155 543.507202,499.892487 
	C542.165955,506.085632 543.156006,511.785583 546.984497,516.914368 
	C541.695740,523.280396 536.348022,529.598755 531.145569,536.034607 
	C528.887329,538.828186 526.928284,541.863708 524.268188,545.065979 
	C523.159790,546.198425 522.616638,547.054199 522.073486,547.909973 
	C520.610657,549.870911 519.147888,551.831909 517.202881,554.126343 
	C516.500977,554.726196 516.281372,554.992493 516.061707,555.258850 
	C516.061707,555.258850 516.107544,555.149109 515.870117,555.098511 
	C511.104980,554.169373 513.333923,557.404236 513.130371,559.158203 
	C513.130371,559.158203 513.086487,559.137573 513.111572,559.145264 
	C511.071747,558.721558 509.006836,558.290222 506.783356,557.825684 
	C506.710052,557.148621 506.643799,556.508057 506.570984,555.868286 
	C505.899994,549.971436 505.902039,550.036133 512.209534,549.799683 
	C515.988525,549.658081 518.090637,547.593018 517.955322,543.739136 
	C517.710449,536.765869 517.325256,529.797607 517.002625,522.826965 
	C516.781372,518.048340 517.640625,514.662415 523.862366,515.303406 
	C527.420898,515.670105 529.386841,511.455444 530.075134,505.854858 
	C530.916809,499.006561 532.357178,492.225098 533.746094,485.457336 
	C533.979126,484.321777 535.078003,482.793396 536.092773,482.484467 
	C541.394165,480.870575 541.917175,476.865417 542.102844,472.246429 
	C542.197937,469.882416 543.383423,467.570953 544.005371,465.217041 
	C544.679016,462.667450 546.147949,459.940308 545.726257,457.564697 
	C544.641479,451.453888 548.510803,449.434235 552.674194,446.977325 
	C554.608643,445.835754 556.641968,443.847717 557.321350,441.807495 
	C558.669983,437.757324 559.969116,433.355103 559.727356,429.188965 
	C559.357483,422.815399 561.656311,417.548676 564.613159,412.417542 
	C565.372559,411.099731 567.606262,409.895416 569.148804,409.912292 
	C572.794739,409.952240 574.622437,408.224152 574.779114,404.999512 
	C574.992188,400.613129 574.601013,396.200348 574.597656,391.798767 
	C574.596558,390.387146 574.483215,388.325378 575.306213,387.666718 
	C581.595032,382.633270 581.042664,375.283783 581.869629,368.540619 
	C582.287903,365.130127 583.333130,363.246979 586.177124,360.990875 
	C590.435242,357.613068 594.350464,352.952393 593.335815,346.703064 
	C592.621704,342.305237 594.113953,339.773743 597.977173,337.965271 
	C603.147888,335.544800 605.906372,331.899933 606.286011,325.599915 
	C606.655273,319.473114 609.047119,313.454041 610.715637,307.433319 
	C610.999451,306.408936 611.957092,305.392670 612.869812,304.752563 
	C616.463013,302.232544 618.356262,299.179230 617.368774,294.555939 
	C617.099121,293.292908 617.674133,291.336914 618.586975,290.425873 
	C621.891907,287.127472 622.325867,283.154419 621.989075,278.899902 
	C621.657410,274.709961 622.631836,271.189728 625.765320,268.043488 
	C627.675171,266.125854 628.669617,263.292480 630.054688,260.858704 
	C630.461975,260.143005 630.715210,258.804138 631.181091,258.737091 
	C639.111450,257.595428 636.976868,249.785156 640.987000,244.842270 
	C638.728027,244.469131 637.242737,244.223785 635.413940,243.708069 
	C635.072388,243.083282 635.074219,242.728882 635.076050,242.374481 
	C638.104553,242.358414 641.132996,242.342346 644.606812,242.436920 
z" />
	<path fill="#279A66" opacity="1.000000" stroke="none" d="
M527.603516,242.436005 
	C531.277771,243.709610 534.480347,244.908325 537.706543,246.039398 
	C541.576416,247.396118 542.358704,249.169510 539.201294,252.406647 
	C534.957092,256.757935 531.049988,261.438629 527.018005,265.995514 
	C526.581604,266.488739 526.032227,267.063171 525.947388,267.658661 
	C524.861938,275.274963 517.422546,276.794556 513.059937,281.257477 
	C510.310211,284.070435 507.565979,286.992920 505.398926,290.251709 
	C498.951569,299.947327 493.087891,310.041748 486.409180,319.568909 
	C482.250580,325.501160 476.806946,330.516571 472.360504,336.268524 
	C469.262878,340.275604 467.040680,344.947388 464.129883,349.114380 
	C461.287537,353.183319 457.757446,356.791443 455.104614,360.967407 
	C452.685669,364.775269 450.288116,368.888855 449.228455,373.198914 
	C447.683289,379.483948 447.070740,385.605377 441.252167,390.158386 
	C436.575165,393.818085 437.698090,399.949554 442.524506,402.535522 
	C441.006836,410.205200 439.467468,411.430939 433.867493,409.109680 
	C433.365479,408.356232 433.179749,407.669861 432.991272,406.250092 
	C432.997437,405.010742 433.006378,404.504822 433.015289,403.998871 
	C433.031281,386.637756 433.047302,369.276642 433.449524,351.485046 
	C435.928345,350.538361 439.109741,350.680573 439.898651,349.375977 
	C441.850739,346.147919 446.599945,344.408875 445.636078,339.435974 
	C445.532410,338.901093 446.915009,338.115265 447.548279,337.393280 
	C449.295807,335.401001 451.705933,333.644135 452.589355,331.314575 
	C454.217804,327.020294 455.105255,322.415344 455.998474,317.880157 
	C456.921143,313.195221 458.989624,309.425720 464.080688,309.170807 
	C468.347687,308.957184 469.802124,306.748810 470.750214,303.175781 
	C471.279144,301.182465 472.364594,299.301239 473.407928,297.489685 
	C474.524200,295.551361 475.689301,293.576355 477.179199,291.930664 
	C480.948395,287.767426 484.003845,283.295013 485.698364,277.832397 
	C486.045013,276.714996 488.565735,276.393555 489.881317,275.428467 
	C492.230927,273.704895 494.975952,272.151123 496.571442,269.845306 
	C499.937531,264.980591 502.386932,259.482666 508.587860,257.272095 
	C509.783722,256.845795 511.573517,254.651047 511.322449,254.139923 
	C509.168762,249.755081 512.210632,246.308411 513.011108,242.490601 
	C517.721497,242.437454 522.431824,242.384323 527.603516,242.436005 
z" />
	<path fill="#2EA872" opacity="1.000000" stroke="none" d="
M434.379639,473.467896 
	C434.786133,473.015320 435.130859,473.011810 435.736267,473.471802 
	C436.020172,479.929962 435.690796,485.959717 436.282166,491.897797 
	C436.458618,493.669586 438.962769,495.777466 440.883301,496.589996 
	C441.996094,497.060791 445.214996,495.556763 445.510498,494.425415 
	C446.661407,490.019409 446.847992,485.373016 447.723694,480.880463 
	C448.715759,475.790955 449.998962,470.754425 451.278900,465.726227 
	C452.016113,462.830200 453.831116,459.959686 453.707550,457.141449 
	C453.377045,449.605194 453.098358,449.705933 460.428101,446.916870 
	C461.688141,446.437408 463.249817,444.975616 463.441284,443.771790 
	C464.247345,438.704346 464.546997,433.558319 465.107941,428.449402 
	C465.677063,423.265839 467.223053,418.868500 472.676819,416.535431 
	C476.732880,414.800262 482.663025,397.507172 481.106323,393.336334 
	C478.785095,387.117188 479.303497,387.847076 484.764252,383.968567 
	C489.389465,380.683441 493.852234,375.991821 496.103088,370.910858 
	C497.934509,366.776611 496.558258,361.133820 496.279633,356.178223 
	C496.026031,351.667450 494.949188,347.113678 500.303314,344.508484 
	C501.135742,344.103424 501.418457,342.585632 501.974915,341.593414 
	C505.318634,335.631409 508.660309,329.668274 512.032166,323.722229 
	C512.267395,323.307373 512.786743,323.064484 513.096008,322.679047 
	C518.296570,316.198486 523.617126,309.808167 528.628723,303.184174 
	C531.949463,298.795074 534.906189,294.120789 537.871277,289.475525 
	C540.216858,285.800873 542.609924,282.109680 544.466064,278.182068 
	C546.493896,273.891083 549.311829,270.874451 553.744385,268.992981 
	C555.496094,268.249420 556.947632,266.253662 557.994202,264.504089 
	C560.380981,260.513672 561.115662,255.488937 566.254700,253.317001 
	C567.374451,252.843750 568.262207,250.051041 568.038757,248.502274 
	C567.371338,243.875336 563.690979,243.740723 560.003174,244.017578 
	C557.517822,243.695480 555.032410,243.373383 552.313110,242.803955 
	C562.742004,242.481613 573.404846,242.406586 584.520386,242.441711 
	C581.134888,249.067490 576.403076,255.240463 573.732971,262.203979 
	C571.476379,268.088989 565.603088,269.754333 562.781189,274.570343 
	C561.537659,276.692566 559.467957,278.373779 558.436096,280.567047 
	C556.814270,284.014282 554.783386,286.507385 551.183411,288.282288 
	C549.225342,289.247742 548.364807,292.418335 546.981567,294.576630 
	C545.599487,296.733063 544.674255,299.888824 542.698669,300.839142 
	C532.841248,305.580627 529.366394,314.458374 525.993591,323.848419 
	C524.373596,328.358521 521.188782,332.307037 518.708740,336.507599 
	C517.487732,338.575684 515.887817,340.507721 515.102295,342.728699 
	C512.850708,349.094910 510.901154,355.569061 508.895660,362.020325 
	C508.457764,363.429077 508.135071,364.906769 508.011932,366.373932 
	C507.667236,370.480072 506.431213,373.528168 502.721802,376.351013 
	C498.176056,379.810364 494.846619,384.844696 494.978790,391.271637 
	C495.119202,398.096832 492.033020,403.412476 487.060150,407.908783 
	C485.806885,409.041992 484.601532,410.874939 484.459442,412.482269 
	C483.708130,420.982269 482.391602,429.138580 477.500641,436.542450 
	C474.617676,440.906647 474.766205,447.110748 469.049622,449.909912 
	C468.030396,450.408997 467.169556,453.078125 467.566956,454.318787 
	C469.835632,461.401245 466.026794,466.964783 462.313843,471.671875 
	C458.216248,476.866577 457.399658,482.111664 458.390167,487.981445 
	C458.926361,491.158661 458.112213,492.974304 455.376343,494.481750 
	C450.126007,497.374634 446.284668,501.279022 446.892120,507.949188 
	C446.948669,508.570007 446.807831,509.507965 446.394653,509.826569 
	C441.813507,513.358948 441.915558,518.306641 441.876984,523.386414 
	C441.843048,527.850769 438.675354,526.552734 435.668579,525.912598 
	C434.976379,511.070709 434.705078,496.326263 434.557373,481.098633 
	C434.681000,480.615479 434.592560,480.265015 434.592560,480.265015 
	C434.500977,478.148987 434.409393,476.032990 434.379639,473.467896 
z" />
	<path fill="#39C385" opacity="1.000000" stroke="none" d="
M547.266418,516.742676 
	C543.156006,511.785583 542.165955,506.085632 543.507202,499.892487 
	C543.752686,498.759155 544.044495,497.563263 543.929138,496.435699 
	C542.947693,486.836853 548.035095,480.230164 554.990417,474.874969 
	C558.574280,472.115570 560.027649,468.852142 559.978210,464.623840 
	C559.891174,457.171234 562.465271,451.227264 568.876343,446.899017 
	C570.230469,445.984802 570.399536,443.225128 570.980957,441.275879 
	C572.037476,437.733673 573.024963,434.169891 573.977234,430.598022 
	C574.397522,429.021301 575.000183,427.388184 574.931641,425.806122 
	C574.733826,421.237640 576.293335,417.683167 580.151794,415.174622 
	C583.538086,412.973083 585.623535,410.398438 583.427795,406.062622 
	C582.898865,405.018219 582.804932,402.944336 583.465637,402.241821 
	C586.981201,398.503937 586.768066,393.862244 587.501953,389.317749 
	C587.797974,387.484467 589.701904,385.478699 591.410156,384.401337 
	C594.386719,382.524200 595.120667,380.096375 595.072632,376.856018 
	C595.013123,372.837036 596.207336,369.393646 600.165527,367.285614 
	C601.503052,366.573242 602.748352,365.065704 603.316040,363.635834 
	C605.998291,356.879883 608.621460,350.086945 610.872925,343.179199 
	C612.001892,339.715271 613.098206,336.659943 616.757507,335.054413 
	C617.734741,334.625671 618.958801,332.889191 618.785522,332.004700 
	C617.423889,325.055450 622.920471,320.331940 624.234009,314.305389 
	C625.235840,309.708801 626.001953,305.060516 627.023071,300.468597 
	C628.051514,295.843567 628.982117,291.160553 630.541565,286.708160 
	C631.140991,284.996643 633.349304,283.842346 634.840576,282.451355 
	C636.144104,281.235382 638.121948,280.282257 638.665833,278.796997 
	C640.409851,274.034180 641.331787,268.963806 643.165100,264.242798 
	C644.163391,261.672058 646.149780,259.363068 648.100464,257.329193 
	C649.296875,256.081696 651.398743,255.755463 652.855103,254.689194 
	C654.235413,253.678604 655.304138,252.242477 656.509949,250.993500 
	C655.179016,250.239059 653.575928,249.732712 652.596130,248.658112 
	C651.676880,247.649780 651.416809,246.040558 650.932617,244.360397 
	C651.444458,244.022964 651.890320,244.020889 652.813965,244.290955 
	C654.526611,244.381805 655.761475,244.200531 656.996277,244.019257 
	C661.857483,244.615738 664.842346,251.327621 661.590698,255.577637 
	C658.524658,259.585083 657.485474,263.764801 656.483948,268.601562 
	C655.626282,272.744232 651.938965,276.750610 648.589355,279.820160 
	C643.810181,284.199860 641.645203,289.632660 640.111389,295.509125 
	C639.621948,297.384094 639.701111,299.545349 640.053040,301.478607 
	C641.718445,310.627594 636.498108,315.986481 630.072815,321.075012 
	C628.140381,322.605377 626.346924,325.505157 626.203857,327.880768 
	C625.744995,335.501984 624.304260,342.674164 620.094360,349.143280 
	C619.643372,349.836304 619.340088,350.997253 618.746033,351.168121 
	C612.609863,352.932861 613.227539,358.114319 612.440613,362.787140 
	C612.014343,365.318146 610.507202,367.649536 609.692322,370.137970 
	C608.981323,372.309143 608.583923,374.581329 608.000183,376.796265 
	C607.136841,380.072266 606.244690,383.340851 605.335388,386.604431 
	C605.070374,387.555542 604.250183,388.597198 604.458374,389.395660 
	C605.972595,395.204803 602.073853,398.154419 598.199951,400.671356 
	C594.929749,402.796082 593.755493,405.432739 594.012634,409.027466 
	C594.252930,412.386108 593.533569,415.153381 590.525085,417.281433 
	C589.365234,418.101837 588.104797,420.281128 588.415588,421.427887 
	C590.033264,427.396484 585.917358,430.119202 582.158813,432.695618 
	C579.167603,434.746063 578.474060,437.233063 577.866211,440.547150 
	C576.718201,446.806244 574.531433,452.866913 573.139648,459.091278 
	C571.539001,466.248932 570.189453,473.507996 575.327881,480.463348 
	C575.594727,480.797058 575.583984,480.859589 575.225220,480.833862 
	C574.294189,481.607178 573.721924,482.406250 573.149597,483.205322 
	C573.149597,483.205322 573.137268,483.136200 572.799866,483.169434 
	C571.347351,484.893188 570.232239,486.583740 569.117065,488.274292 
	C569.155212,488.585968 569.057678,488.846893 568.309570,488.935974 
	C565.955933,487.391846 564.117065,485.968811 562.278259,484.545776 
	C561.816772,484.892639 561.355347,485.239471 560.893860,485.586334 
	C562.324890,488.131989 563.755859,490.677643 565.186890,493.223297 
	C565.186890,493.223297 565.147034,493.136475 564.864197,493.017914 
	C562.820557,492.278564 561.059692,491.657776 559.298889,491.036987 
	C558.867065,492.896973 558.169617,494.744385 558.080627,496.620667 
	C557.997070,498.381500 558.556763,500.172882 558.833435,501.950806 
	C555.071716,506.824188 551.310059,511.697601 547.266418,516.742676 
z" />
	<path fill="#249160" opacity="1.000000" stroke="none" d="
M512.551880,242.397705 
	C512.210632,246.308411 509.168762,249.755081 511.322449,254.139923 
	C511.573517,254.651047 509.783722,256.845795 508.587860,257.272095 
	C502.386932,259.482666 499.937531,264.980591 496.571442,269.845306 
	C494.975952,272.151123 492.230927,273.704895 489.881317,275.428467 
	C488.565735,276.393555 486.045013,276.714996 485.698364,277.832397 
	C484.003845,283.295013 480.948395,287.767426 477.179199,291.930664 
	C475.689301,293.576355 474.524200,295.551361 473.407928,297.489685 
	C472.364594,299.301239 471.279144,301.182465 470.750214,303.175781 
	C469.802124,306.748810 468.347687,308.957184 464.080688,309.170807 
	C458.989624,309.425720 456.921143,313.195221 455.998474,317.880157 
	C455.105255,322.415344 454.217804,327.020294 452.589355,331.314575 
	C451.705933,333.644135 449.295807,335.401001 447.548279,337.393280 
	C446.915009,338.115265 445.532410,338.901093 445.636078,339.435974 
	C446.599945,344.408875 441.850739,346.147919 439.898651,349.375977 
	C439.109741,350.680573 435.928345,350.538361 433.488892,351.016479 
	C433.093628,338.955872 433.045197,326.933350 433.421722,314.430786 
	C438.065308,312.828766 445.326691,301.572540 444.505615,297.423523 
	C444.473572,297.261688 444.424347,297.099396 444.357269,296.948792 
	C442.496094,292.769196 444.308105,290.211182 448.167358,288.803375 
	C451.252777,287.677887 454.496704,286.982300 457.567657,285.823792 
	C459.002747,285.282379 461.060669,284.324677 461.363342,283.169678 
	C464.250092,272.153748 473.930420,266.051178 480.072449,257.433960 
	C482.982422,253.351349 486.727661,250.893951 482.873322,245.732864 
	C482.763550,245.585892 483.055054,245.139252 483.164368,244.832153 
	C487.113586,244.069565 491.057861,243.307114 495.002106,242.544647 
	C500.698944,242.464691 506.395752,242.384750 512.551880,242.397705 
z" />
	<path fill="#228458" opacity="1.000000" stroke="none" d="
M494.545380,242.440063 
	C491.057861,243.307114 487.113586,244.069565 483.164368,244.832153 
	C483.055054,245.139252 482.763550,245.585892 482.873322,245.732864 
	C486.727661,250.893951 482.982422,253.351349 480.072449,257.433960 
	C473.930420,266.051178 464.250092,272.153748 461.363342,283.169678 
	C461.060669,284.324677 459.002747,285.282379 457.567657,285.823792 
	C454.496704,286.982300 451.252777,287.677887 448.167358,288.803375 
	C444.308105,290.211182 442.496094,292.769196 444.357269,296.948792 
	C444.424347,297.099396 444.473572,297.261688 444.505615,297.423523 
	C445.326691,301.572540 438.065308,312.828766 433.470825,313.962646 
	C432.768829,290.952271 432.442627,267.929962 432.144470,244.198425 
	C432.309845,243.028137 432.447174,242.567078 432.584473,242.105988 
	C453.085876,242.182495 473.587250,242.258987 494.545380,242.440063 
z" />
	<path fill="#3ECC8D" opacity="1.000000" stroke="none" d="
M432.545166,403.998840 
	C433.006378,404.504822 432.997437,405.010742 432.962402,405.895294 
	C355.928925,406.254913 278.921600,406.235931 201.456421,406.108307 
	C203.416809,405.332855 205.834152,404.087250 208.253448,404.083496 
	C275.866089,403.978363 343.478943,403.998901 411.091766,403.998779 
	C418.086212,403.998779 425.080627,403.998779 432.545166,403.998840 
z" />
	<path fill="#32B37A" opacity="1.000000" stroke="none" d="
M432.514465,241.634827 
	C432.447174,242.567078 432.309845,243.028137 432.125854,243.727966 
	C431.751312,241.692642 431.148346,239.419800 431.138000,237.144272 
	C431.026398,212.664291 430.987488,188.183884 430.979462,163.703583 
	C430.977509,157.750793 431.161255,151.797958 431.423706,145.523834 
	C431.780029,167.025360 431.971039,188.848236 432.164917,210.671066 
	C432.255188,220.835281 432.351074,230.999451 432.514465,241.634827 
z" />
	<path fill="#32B37A" opacity="1.000000" stroke="none" d="
M431.262695,104.620773 
	C430.802338,103.587852 430.178436,102.170540 430.154388,100.743118 
	C429.912781,86.411743 429.769714,72.078720 429.740723,57.415695 
	C430.317932,59.511997 431.097778,61.934013 431.131317,64.366325 
	C431.314697,77.653381 431.314575,90.942970 431.262695,104.620773 
z" />
	<path fill="#2EA872" opacity="1.000000" stroke="none" d="
M435.256348,533.456665 
	C438.879608,536.566956 442.028625,540.289795 440.314911,546.460754 
	C438.782471,545.980408 437.468292,545.568481 435.844116,545.091675 
	C435.419281,541.322266 435.304443,537.617859 435.256348,533.456665 
z" />
	<path fill="#3BC788" opacity="1.000000" stroke="none" d="
M559.023071,501.663208 
	C558.556763,500.172882 557.997070,498.381500 558.080627,496.620667 
	C558.169617,494.744385 558.867065,492.896973 559.298889,491.036987 
	C561.059692,491.657776 562.820557,492.278564 564.906006,493.041046 
	C563.224670,495.913727 561.218689,498.644684 559.023071,501.663208 
z" />
	<path fill="#32B37A" opacity="1.000000" stroke="none" d="
M423.146149,46.318668 
	C416.088654,42.868793 408.656281,40.005356 399.805786,40.651619 
	C408.282532,37.697231 416.048523,40.083263 423.146149,46.318668 
z" />
	<path fill="#3ECC8D" opacity="1.000000" stroke="none" d="
M182.103714,401.546143 
	C182.468552,401.018311 183.174927,400.396118 183.648483,400.540070 
	C188.652451,402.060883 193.619308,403.703827 198.798141,405.616455 
	C193.445633,404.549011 187.891403,403.178253 182.103714,401.546143 
z" />
	<path fill="#3BC788" opacity="1.000000" stroke="none" d="
M565.479492,493.070862 
	C563.755859,490.677643 562.324890,488.131989 560.893860,485.586334 
	C561.355347,485.239471 561.816772,484.892639 562.278259,484.545776 
	C564.117065,485.968811 565.955933,487.391846 568.102966,488.998535 
	C567.531433,490.427612 566.651733,491.673035 565.479492,493.070862 
z" />
	<path fill="#228458" opacity="1.000000" stroke="none" d="
M634.619507,242.252151 
	C635.074219,242.728882 635.072388,243.083282 635.031006,243.701752 
	C629.632385,243.685623 624.273193,243.405441 618.464539,243.172577 
	C617.214233,243.045807 616.413513,242.871674 615.357727,242.534454 
	C621.456116,242.290848 627.809509,242.210327 634.619507,242.252151 
z" />
	<path fill="#32B37A" opacity="1.000000" stroke="none" d="
M431.421082,120.598145 
	C431.118164,117.241280 430.941956,113.446869 430.973633,109.304291 
	C431.303619,112.690956 431.425720,116.425781 431.421082,120.598145 
z" />
	<path fill="#35BB7F" opacity="1.000000" stroke="none" d="
M513.410767,559.001465 
	C513.333923,557.404236 511.104980,554.169373 515.924683,555.122070 
	C515.374878,556.412354 514.533081,557.628540 513.410767,559.001465 
z" />
	<path fill="#3BC788" opacity="1.000000" stroke="none" d="
M569.420044,488.127808 
	C570.232239,486.583740 571.347351,484.893188 572.834412,483.175659 
	C572.045288,484.759521 570.884155,486.370422 569.420044,488.127808 
z" />
	<path fill="#32B37A" opacity="1.000000" stroke="none" d="
M391.598267,44.058060 
	C390.746643,45.198196 389.582153,46.398251 388.082214,47.630013 
	C388.926331,46.480476 390.105835,45.299225 391.598267,44.058060 
z" />
	<path fill="#32B37A" opacity="1.000000" stroke="none" d="
M398.598145,40.709831 
	C396.890808,41.746231 394.809479,42.781742 392.382324,43.871185 
	C394.099060,42.853058 396.161591,41.780998 398.598145,40.709831 
z" />
	<path fill="#279A66" opacity="1.000000" stroke="none" d="
M433.583252,416.647522 
	C433.794495,418.342285 433.884949,420.412750 433.940094,422.902679 
	C433.757324,421.222504 433.609863,419.122833 433.583252,416.647522 
z" />
	<path fill="#35BB7F" opacity="1.000000" stroke="none" d="
M522.344727,547.777527 
	C522.616638,547.054199 523.159790,546.198425 524.014282,545.249634 
	C523.755737,545.986145 523.185852,546.815613 522.344727,547.777527 
z" />
	<path fill="#32B37A" opacity="1.000000" stroke="none" d="
M429.007843,54.557899 
	C428.369080,53.812092 427.744995,52.747231 427.082855,51.370544 
	C427.704041,52.118763 428.363281,53.178802 429.007843,54.557899 
z" />
	<path fill="#3ECC8D" opacity="1.000000" stroke="none" d="
M601.390625,449.109467 
	C601.688965,448.361389 602.265259,447.475159 603.186401,446.544556 
	C602.910400,447.323883 602.289490,448.147583 601.390625,449.109467 
z" />
	<path fill="#3BC788" opacity="1.000000" stroke="none" d="
M573.411621,483.094421 
	C573.721924,482.406250 574.294189,481.607178 575.194092,480.827637 
	C574.905701,481.559235 574.289673,482.271362 573.411621,483.094421 
z" />
	<path fill="#32B37A" opacity="1.000000" stroke="none" d="
M386.370331,48.868980 
	C386.259186,49.405602 385.887695,50.062504 385.243408,50.832161 
	C385.350403,50.293030 385.730194,49.641148 386.370331,48.868980 
z" />
	<path fill="#32B37A" opacity="1.000000" stroke="none" d="
M426.935608,50.624683 
	C426.456909,50.357903 425.935242,49.788128 425.299438,48.947346 
	C425.754395,49.224789 426.323486,49.773239 426.935608,50.624683 
z" />
	<path fill="#32B37A" opacity="1.000000" stroke="none" d="
M435.916626,561.246826 
	C436.114746,561.235107 436.154022,561.490295 436.037628,561.881958 
	C435.945007,561.837402 435.903625,561.669189 435.916626,561.246826 
z" />
	<path fill="#35BB7F" opacity="1.000000" stroke="none" d="
M516.323242,555.165222 
	C516.281372,554.992493 516.500977,554.726196 516.917480,554.296753 
	C516.937805,554.446289 516.761292,554.758911 516.323242,555.165222 
z" />
	<path fill="#2AA16C" opacity="1.000000" stroke="none" d="
M434.525574,480.380737 
	C434.592560,480.265015 434.681000,480.615479 434.645142,480.666443 
	C434.609314,480.717407 434.458557,480.496490 434.525574,480.380737 
z" />
	<path fill="#3BC788" opacity="1.000000" stroke="none" d="
M606.318481,443.071899 
	C606.232727,442.888306 606.423218,442.619507 606.824707,442.202209 
	C606.854919,442.340759 606.707947,442.651764 606.318481,443.071899 
z" />
	<path fill="#3BC788" opacity="1.000000" stroke="none" d="
M607.247192,441.906982 
	C607.162354,441.735077 607.330444,441.496460 607.689941,441.129089 
	C607.865356,441.322479 607.738281,441.602478 607.247192,441.906982 
z" />
	<path fill="#228458" opacity="1.000000" stroke="none" d="
M669.901367,242.805298 
	C670.060608,242.919647 669.699524,243.058380 669.699524,243.058380 
	C669.699524,243.058380 669.314758,243.019058 669.155273,242.910980 
	C669.223999,242.627991 669.472717,242.590683 669.901367,242.805298 
z" />
	<path fill="#228458" opacity="1.000000" stroke="none" d="
M665.733398,242.318192 
	C665.966125,242.404083 665.637939,242.694443 665.637939,242.694443 
	C665.637939,242.694443 665.191711,242.638535 665.109131,242.508301 
	C665.026489,242.378082 665.500732,242.232300 665.733398,242.318192 
z" />
	<path fill="#32B37A" opacity="1.000000" stroke="none" d="
M431.634766,137.690979 
	C431.325928,137.744522 431.254181,137.542969 431.435120,137.202087 
	C431.524933,137.123535 431.708954,137.496643 431.634766,137.690979 
z" />
	<path fill="#32B37A" opacity="1.000000" stroke="none" d="
M387.452576,47.782711 
	C387.570068,48.014534 387.377960,48.262215 386.910950,48.571686 
	C386.872101,48.407207 387.041077,48.128906 387.452576,47.782711 
z" />
	<path fill="#32B37A" opacity="1.000000" stroke="none" d="
M424.359436,47.509506 
	C424.172333,47.555977 423.876343,47.333206 423.434814,46.870163 
	C423.609711,46.833351 423.930115,47.036804 424.359436,47.509506 
z" />
	<path fill="#38C183" opacity="1.000000" stroke="none" d="
M656.597107,244.014038 
	C655.761475,244.200531 654.526611,244.381805 653.148376,244.293762 
	C654.069275,244.019241 655.133606,244.014053 656.597107,244.014038 
z" />
	<path fill="#2BA66F" opacity="1.000000" stroke="none" d="
M559.903442,244.357269 
	C563.690979,243.740723 567.371338,243.875336 568.038757,248.502274 
	C568.262207,250.051041 567.374451,252.843750 566.254700,253.317001 
	C561.115662,255.488937 560.380981,260.513672 557.994202,264.504089 
	C556.947632,266.253662 555.496094,268.249420 553.744385,268.992981 
	C549.311829,270.874451 546.493896,273.891083 544.466064,278.182068 
	C542.609924,282.109680 540.216858,285.800873 537.871277,289.475525 
	C534.906189,294.120789 531.949463,298.795074 528.628723,303.184174 
	C523.617126,309.808167 518.296570,316.198486 513.096008,322.679047 
	C512.786743,323.064484 512.267395,323.307373 512.032166,323.722229 
	C508.660309,329.668274 505.318634,335.631409 501.974915,341.593414 
	C501.418457,342.585632 501.135742,344.103424 500.303314,344.508484 
	C494.949188,347.113678 496.026031,351.667450 496.279633,356.178223 
	C496.558258,361.133820 497.934509,366.776611 496.103088,370.910858 
	C493.852234,375.991821 489.389465,380.683441 484.764252,383.968567 
	C479.303497,387.847076 478.785095,387.117188 481.106323,393.336334 
	C482.663025,397.507172 476.732880,414.800262 472.676819,416.535431 
	C467.223053,418.868500 465.677063,423.265839 465.107941,428.449402 
	C464.546997,433.558319 464.247345,438.704346 463.441284,443.771790 
	C463.249817,444.975616 461.688141,446.437408 460.428101,446.916870 
	C453.098358,449.705933 453.377045,449.605194 453.707550,457.141449 
	C453.831116,459.959686 452.016113,462.830200 451.278900,465.726227 
	C449.998962,470.754425 448.715759,475.790955 447.723694,480.880463 
	C446.847992,485.373016 446.661407,490.019409 445.510498,494.425415 
	C445.214996,495.556763 441.996094,497.060791 440.883301,496.589996 
	C438.962769,495.777466 436.458618,493.669586 436.282166,491.897797 
	C435.690796,485.959717 436.020172,479.929962 435.994812,473.466431 
	C436.001038,467.711517 435.953796,462.424316 436.064087,457.140411 
	C436.086426,456.069336 436.378296,454.645020 437.098267,454.004913 
	C442.273499,449.403442 445.272522,443.749542 447.363495,437.121460 
	C448.646790,433.053406 451.541199,428.993683 454.782898,426.151459 
	C460.809692,420.867310 463.302704,414.202576 464.937408,406.811859 
	C465.456451,404.465210 466.747009,402.297577 467.378906,399.965240 
	C468.099548,397.305389 468.771729,394.570129 468.930542,391.836548 
	C469.118988,388.593353 469.613220,385.911804 473.231232,384.833221 
	C474.084869,384.578766 475.202240,383.764252 475.405548,382.997253 
	C477.367706,375.595032 479.371704,368.192017 480.936768,360.700043 
	C482.255737,354.385925 483.778900,348.453918 489.663513,344.587158 
	C490.949005,343.742462 491.711548,341.732849 492.189423,340.105438 
	C493.165161,336.782532 494.997467,334.787384 497.923737,332.610413 
	C501.153992,330.207336 503.005402,325.632019 504.806641,321.704498 
	C507.255920,316.363831 508.704712,310.728088 515.099243,308.088898 
	C517.469543,307.110626 519.300964,303.927002 520.568054,301.350677 
	C523.839539,294.698730 527.017029,288.143066 534.468628,285.106689 
	C535.184448,284.815002 535.911438,284.149933 536.279968,283.467438 
	C540.955872,274.809204 545.559265,266.111816 550.206543,257.437988 
	C550.668945,256.575073 551.125061,255.347733 551.878113,255.060364 
	C556.712158,253.215866 557.936340,248.732742 559.903442,244.357269 
z" />
</svg>